<?xml version="1.0" encoding="UTF-8"?>
<svg width="24px" height="24px" viewBox="0 0 24 24" version="1.1" xmlns="http://www.w3.org/2000/svg" xmlns:xlink="http://www.w3.org/1999/xlink">
    <title>Social - Facebook@2x</title>
    <g id="Symbols" stroke="none" stroke-width="1" fill="none" fill-rule="evenodd">
        <g id="Footer" transform="translate(-1088.000000, -163.000000)" fill="#FFF7F0" fill-rule="nonzero">
            <g id="Social---Facebook" transform="translate(1088.000000, 163.000000)">
                <path d="M19.55,14.56 C19.5194883,14.8124825 19.3043128,15.0018369 19.05,15 L17,15 C16.7238576,15 16.5,15.2238576 16.5,15.5 L16.5,23.5 C16.5,23.7761424 16.7238576,24 17,24 L23,24 C23.5522847,24 24,23.5522847 24,23 L24,1 C24,0.44771525 23.5522847,0 23,0 L1,0 C0.44771525,0 0,0.44771525 0,1 L0,23 C0,23.5522847 0.44771525,24 1,24 L12,24 C12.2761424,24 12.5,23.7761424 12.5,23.5 L12.5,15.5 C12.5,15.2238576 12.2761424,15 12,15 L10,15 C9.72385763,15 9.5,14.7761424 9.5,14.5 L9.5,11.5 C9.5,11.2238576 9.72385763,11 10,11 L12,11 C12.2761424,11 12.5,10.7761424 12.5,10.5 L12.5,9.19 C12.5,6.04749977 15.0474998,3.5 18.19,3.5 L19.5,3.5 C19.6326082,3.5 19.7597852,3.55267842 19.8535534,3.64644661 C19.9473216,3.7402148 20,3.86739176 20,4 L20,7 C20,7.27614237 19.7761424,7.5 19.5,7.5 L18.19,7.5 C17.2566388,7.5 16.5,8.25663877 16.5,9.19 L16.5,10.5 C16.5,10.7761424 16.7238576,11 17,11 L19.43,11 C19.5736899,10.9989612 19.7108812,11.0597925 19.8065835,11.166979 C19.9022857,11.2741656 19.947247,11.4173451 19.93,11.56 L19.55,14.56 Z"></path>
            </g>
        </g>
    </g>
</svg>