<?xml version="1.0" encoding="UTF-8"?>
<svg width="24px" height="24px" viewBox="0 0 24 24" version="1.1" xmlns="http://www.w3.org/2000/svg" xmlns:xlink="http://www.w3.org/1999/xlink">
    <title>Social - Instagram@2x</title>
    <g id="Symbols" stroke="none" stroke-width="1" fill="none" fill-rule="evenodd">
        <g id="Footer" transform="translate(-1132.000000, -163.000000)" fill="#FFF7F0" fill-rule="nonzero">
            <g id="Social---Instagram" transform="translate(1132.000000, 163.000000)">
                <path d="M17.5,0 L6.5,0 C2.91243253,0.0055066367 0.0055066367,2.91243253 0,6.5 L0,17.5 C0.0055066367,21.0875675 2.91243253,23.9944934 6.5,24 L17.5,24 C21.0875675,23.9944934 23.9944934,21.0875675 24,17.5 L24,6.5 C23.9944934,2.91243253 21.0875675,0.0055066367 17.5,0 Z M12,17.5 C8.96243388,17.5 6.5,15.0375661 6.5,12 C6.5,8.96243388 8.96243388,6.5 12,6.5 C15.0375661,6.5 17.5,8.96243388 17.5,12 C17.5,13.4586907 16.9205374,14.8576372 15.8890873,15.8890873 C14.8576372,16.9205374 13.4586907,17.5 12,17.5 Z M18.5,6.5 C17.6715729,6.5 17,5.82842712 17,5 C17,4.17157288 17.6715729,3.5 18.5,3.5 C19.3284271,3.5 20,4.17157288 20,5 C20,5.39782473 19.8419647,5.7793556 19.5606602,6.06066017 C19.2793556,6.34196474 18.8978247,6.5 18.5,6.5 Z"></path>
            </g>
        </g>
    </g>
</svg>