<?xml version="1.0" encoding="UTF-8"?>
<svg width="120px" height="70px" viewBox="0 0 120 70" version="1.1" xmlns="http://www.w3.org/2000/svg" xmlns:xlink="http://www.w3.org/1999/xlink">
    <title>Cooked Food@2x</title>
    <defs>
        <polygon id="path-1" points="0 0 75.7197505 0 75.7197505 63.3609106 0 63.3609106"></polygon>
        <polygon id="path-3" points="1.33269451e-14 0 47.0028763 0 47.0028763 34.6603852 1.33269451e-14 34.6603852"></polygon>
        <polygon id="path-5" points="0 0 47.5902054 0 47.5902054 21.6495829 0 21.6495829"></polygon>
    </defs>
    <g id="Tucker-Tub---UI" stroke="none" stroke-width="1" fill="none" fill-rule="evenodd">
        <g id="Home---Menu-Expanded" transform="translate(-308.000000, -179.000000)">
            <g id="Cooked-Food" transform="translate(308.000000, 179.000000)">
                <path d="M83.9370501,19.0278903 C82.3282536,14.5766207 80.5576864,10.0189109 77.2624903,6.62126005 C75.3887652,4.68962569 72.3026985,3.0165898 69.1868567,2.26963179 C64.1316437,0.373633853 53.6083511,1.90224849 48.6211286,3.9708017 C43.6336717,6.03912045 38.9634258,8.9104308 33.7766863,10.4099736 C30.6908541,11.3022907 27.4821701,11.6900711 24.3623426,12.454144 C19.5891731,13.6231122 15.079291,15.6576701 10.6008253,17.6812089 C8.82299018,18.4846694 6.99803062,19.320484 5.64994256,20.7307014 C3.87984433,22.5823882 3.16078588,25.1716551 2.5038567,27.6474481 C1.82231027,30.2151456 1.13490259,32.8637283 1.48399878,35.4973063 C1.98056409,39.2405365 4.51778304,42.4227277 7.43903125,44.8152909 C10.360045,47.2078542 13.7229972,49.0044453 16.7232551,51.2971328 C19.253675,53.2308772 21.5156495,55.5097321 24.1417251,57.3110122 C28.116592,60.0374324 32.883197,61.5944155 37.700912,61.7402435 C41.9191382,61.8677843 46.1880055,60.9445198 50.3328488,61.7374301 C54.555764,62.5455796 71.2969076,60.9583524 74.3194383,57.9004198 C76.0524934,57.0109161 77.745692,55.9254122 78.8956697,54.3531898 C79.8257332,53.0820014 80.3483225,51.5658126 80.8575481,50.0754133 C81.9943966,46.7480975 83.1312452,43.4207818 84.2680937,40.093466 C85.316789,37.0245142 86.376269,33.8995289 86.4827093,30.6580218 C86.6140014,26.6662745 85.2947507,22.7837809 83.9370501,19.0278903" id="Fill-1" fill="#AA7F74" fill-rule="nonzero"></path>
                <path d="M62.5599841,2.46244355 C66.9209903,0.622479186 73.9669191,3.22370302 77.2623497,6.62135383 C80.5577802,10.0190046 82.3281129,14.5764801 83.9369095,19.0279841 C85.29461,22.7838746 86.6140951,26.6663682 86.4828031,30.6581156 C86.3761283,33.8996226 85.3168828,37.0243735 84.2681875,40.0935598 C83.1313389,43.4208755 81.994256,46.7481913 80.8574075,50.0752727 C80.3481818,51.5659064 79.825827,53.0820952 78.8957635,54.3532836 C77.7455513,55.9255059 76.0523527,57.0110099 74.319532,57.9005136 C67.7530537,61.2712026 59.8581811,62.2622232 52.8509366,59.9437462 C45.8434577,57.6252691 39.9259372,51.8270838 38.1033222,44.6747147 C36.8082198,39.5918366 37.5549434,34.2086279 38.8186294,29.1180129 C40.347244,22.9604156 42.6790847,16.8895647 46.6159707,11.9142992 C50.5528568,6.93879926 56.2514008,3.13812873 62.5599841,2.46244355" id="Fill-3" fill="#AA7F74" fill-rule="nonzero"></path>
                <path d="M40.5147117,46.7388837 C39.2196094,41.6560055 39.966333,36.2727969 41.230019,31.1821819 C42.7586336,25.0245845 45.0904743,18.9539682 49.0273603,13.9784682 C52.9642464,9.00296825 58.6627904,5.20253217 64.9713736,4.52661254 C68.5476754,3.01769171 73.9283052,4.49660293 77.5669707,6.951061 C77.4654538,6.8411039 77.3669847,6.72903676 77.26242,6.62118971 C73.9669894,3.22377335 66.9210607,0.622549521 62.5600544,2.46251388 C56.2514712,3.13819906 50.5529271,6.93886959 46.6160411,11.9141351 C42.679155,16.8896351 40.3473144,22.9602514 38.8186997,29.1180832 C37.5550137,34.2086982 36.8085246,39.5919069 38.1036269,44.6745506 C39.3124516,49.4193516 42.324432,53.5665394 46.2601458,56.4988068 C43.5198931,53.8106019 41.4625935,50.4586689 40.5147117,46.7388837" id="Fill-5" fill="#FFF7F0" fill-rule="nonzero"></path>
                <path d="M62.9339554,3.81890148 C63.4007456,3.62501125 63.8853539,3.48082444 64.3814503,3.38352765 C64.5150869,3.35726924 64.6503646,3.33945103 64.7842356,3.31436487 C64.9722646,3.2794318 64.3952829,3.35891039 64.6707617,3.33007302 C64.7333599,3.32350842 64.7959581,3.31577157 64.8587907,3.30967587 C65.1396619,3.28201075 65.4214709,3.26653705 65.7035144,3.2616136 C66.2617401,3.25223559 66.8204347,3.28458971 67.3751436,3.34953238 C67.4775983,3.36148934 67.690479,3.40533151 67.2848803,3.33523093 C67.3521675,3.34695343 67.4203925,3.35445583 67.4881485,3.36477164 C67.6379622,3.3875133 67.7875413,3.41236501 67.9364171,3.43956122 C68.2243219,3.49207804 68.5105854,3.55256617 68.7952078,3.62055669 C69.3721895,3.7581789 69.9421377,3.92604517 70.5027079,4.12016985 C70.7842825,4.21793554 71.063747,4.32203139 71.3406325,4.43292628 C71.3931494,4.45379234 71.4456662,4.4755962 71.4984175,4.49669671 C71.784681,4.61251506 71.1933979,4.3623568 71.4756758,4.4868498 C71.6308818,4.55507478 71.7860877,4.62306531 71.939887,4.69433814 C72.9810799,5.17636754 73.983354,5.75006693 74.9110731,6.42598656 C75.0041498,6.49397709 75.3492603,6.78094401 74.9987574,6.48647468 C75.0960542,6.56829777 75.1985089,6.6442596 75.2967435,6.72491043 C75.5068108,6.89816906 75.7117202,7.07752338 75.9100649,7.26414566 C76.365367,7.69248598 76.7866739,8.15880723 77.1868802,8.63872658 C77.2914449,8.76415738 77.3929618,8.89169823 77.495651,9.01853574 C77.6513258,9.21101927 77.4799428,8.99391847 77.4562633,8.96531556 C77.5183926,9.04033959 77.5751295,9.12099043 77.6332732,9.19906231 C77.847795,9.48649813 78.0548144,9.77956075 78.2545659,10.0773124 C78.6371885,10.6470261 78.9940215,11.2338547 79.3288163,11.8326403 C79.6654866,12.4349426 79.9798842,13.0494363 80.2771669,13.6721357 C80.4192437,13.9698873 80.5573348,14.269749 80.6919091,14.5707829 C80.7591963,14.7217688 80.8257801,14.8729891 80.8916606,15.0246783 C80.9310482,15.115645 80.9699669,15.2068461 81.0091201,15.2980471 C81.1232973,15.5632102 80.9019764,15.0378075 81.021546,15.3278223 C81.5511687,16.611671 82.0402316,17.910759 82.5133519,19.2164116 C83.0420369,20.6749257 83.5620472,22.1378943 84.0016412,23.6264179 C84.2217898,24.3724382 84.4213068,25.1247885 84.5898764,25.8841724 C84.6698239,26.2440533 84.7427379,26.6055753 84.8072117,26.9685041 C84.8395658,27.149734 84.8695754,27.3311984 84.8977094,27.5131317 C84.9143554,27.6216821 84.9342836,27.7311703 84.9455372,27.840424 C84.9084941,27.4803086 84.941786,27.821668 84.9516329,27.9037255 C85.0418962,28.6706118 85.0897241,29.442656 85.0848006,30.2149346 C85.0822216,30.6017772 85.0660446,30.9886199 85.0372072,31.3745248 C85.0233747,31.5576303 85.0067287,31.7405014 84.9875038,31.9229035 C84.9778914,32.0143391 84.9664033,32.1053057 84.9567908,32.1965068 C84.9216233,32.5280192 84.9947718,31.9564299 84.9495229,32.259105 C84.7174173,33.8102268 84.331278,35.3266501 83.8684735,36.8240828 C82.9114482,39.9209342 81.7996858,42.9744122 80.7516939,46.0414884 C80.2349659,47.5534571 79.7330082,49.0717559 79.1975242,50.57716 C79.0824092,50.9009356 78.963543,51.2235389 78.8355333,51.542391 C78.810916,51.6033481 78.7881743,51.6739175 78.7576958,51.732999 C78.9269688,51.403831 78.7666049,51.7093195 78.7375331,51.7749655 C78.6540689,51.9622912 78.5668534,52.1479756 78.4744801,52.3308467 C78.3209153,52.6353974 78.1544557,52.9333835 77.9704124,53.2203504 C77.8780391,53.3645372 77.7781633,53.5023938 77.681101,53.6432984 C77.4975266,53.9096337 77.8273978,53.4698053 77.6942302,53.6287624 C77.6215507,53.715509 77.5514501,53.8041311 77.4771294,53.889471 C77.265421,54.1330646 77.0401144,54.3644669 76.8040232,54.584381 C76.6858603,54.6943381 76.5648841,54.8014818 76.4417978,54.9060466 C76.3799029,54.958329 76.3175392,55.009908 76.2547066,55.0607836 C75.9726631,55.2893725 76.4232762,54.9407452 76.1942185,55.1100182 C75.6430263,55.5174924 75.0672168,55.8862824 74.4703069,56.2234217 C73.8651912,56.5650155 73.2443673,56.8791786 72.6148688,57.1734135 C72.3136005,57.3145524 72.0088153,57.4751507 71.6946522,57.5853423 C72.0683656,57.4545191 71.5624223,57.6392658 71.4719246,57.67584 C71.2848334,57.7515674 71.0970389,57.8251847 70.908541,57.8971609 C69.5881181,58.4005253 68.2325276,58.8112818 66.8546644,59.1247416 C66.1663189,59.2813543 65.4725811,59.4131152 64.7748576,59.5200245 C64.6777952,59.5347948 64.1390289,59.6304505 64.5504888,59.5549576 C64.3861393,59.5849672 64.2166319,59.597393 64.0506412,59.616149 C63.6841957,59.6581156 63.3168124,59.6925798 62.9489602,59.7202449 C61.547652,59.825513 60.138138,59.8257474 58.7372987,59.7143836 C58.4043795,59.6878908 58.0719293,59.6550677 57.7401824,59.6159146 C57.6428856,59.6044265 57.5373831,59.6006753 57.4419619,59.5788715 C57.7896514,59.6583501 57.5648137,59.595283 57.4684547,59.5814504 C57.2867559,59.5554265 57.1050571,59.5272924 56.9240616,59.4972828 C56.2317305,59.3824023 55.5443228,59.2386844 54.8641831,59.0658947 C54.1870912,58.8938083 53.5170328,58.693119 52.8577591,58.4621857 C52.5865004,58.3672334 52.3171172,58.2671232 52.0496096,58.1620895 C51.9049539,58.1051182 51.7588915,58.0272807 51.6100157,57.9839075 C51.6343985,57.990941 51.9260544,58.1203574 51.7077814,58.0244673 C51.6156425,57.9841419 51.5232692,57.9442854 51.4311303,57.9032566 C50.3139756,57.4045813 49.2364429,56.8170493 48.2104893,56.1502732 C47.9692401,55.9934261 47.7305699,55.8321245 47.4949476,55.6663682 C47.2483061,55.4928752 46.9965067,55.2410758 46.7289991,55.1043914 C46.7515063,55.1158794 46.9948655,55.3132864 46.8087122,55.1658173 C46.7411905,55.1123627 46.6732,55.0591425 46.6056784,55.005219 C46.4933768,54.9151901 46.382013,54.8242235 46.2713525,54.7323191 C46.0279933,54.5302231 45.7886198,54.3232036 45.5537008,54.1112607 C44.6588048,53.3042835 43.826038,52.4279091 43.0692331,51.4901087 C42.9796732,51.3792138 42.8969123,51.2603476 42.8026634,51.1534383 C43.0861135,51.474635 42.7749982,51.1133474 42.7116967,51.0277731 C42.52484,50.7748014 42.3433756,50.5180786 42.167538,50.25737 C41.8325089,49.7603358 41.5176424,49.2494691 41.2259864,48.7257076 C40.9343305,48.2024149 40.6649474,47.6666965 40.4201815,47.1199588 C40.3779804,47.0257099 40.2237123,46.5645466 40.3580522,46.9844467 C40.3153823,46.8505757 40.2490329,46.7185803 40.1974539,46.5875227 C40.0828078,46.294929 39.9749607,45.9995218 39.8743816,45.7017702 C39.6713479,45.1001713 39.4985581,44.4889599 39.3553091,43.8704805 C39.2723138,43.5120063 39.1989309,43.1514221 39.134926,42.7891966 C39.1028064,42.6084356 39.0735001,42.4272057 39.0460694,42.2457413 C39.0362225,42.1807986 38.9736244,41.8106019 39.0350503,42.1838465 C39.0172321,42.0755306 39.0073852,41.9651046 38.9947249,41.8560853 C38.8172461,40.3218438 38.7954423,38.7721287 38.8866434,37.2310882 C38.9325956,36.4545895 39.0109019,35.6813731 39.1056198,34.9095633 C39.1520409,34.5330365 39.0606054,35.2176308 39.1142944,34.8420417 C39.1248447,34.7684244 39.134926,34.694807 39.1454763,34.6214242 C39.1719691,34.4376153 39.1998687,34.2538064 39.2289405,34.0704664 C39.2927109,33.6665089 39.3625771,33.2637236 39.4371322,32.8616417 C39.71519,31.3656157 40.0626451,29.8829532 40.4518322,28.4122478 C40.8196844,27.0212554 41.2302066,25.6415165 41.6937144,24.2793615 C41.9227721,23.6064897 42.1644902,22.9383069 42.4207441,22.275282 C42.5485194,21.9442385 42.680046,21.6146017 42.8150892,21.2863715 C42.8408787,21.2237734 42.8669027,21.1614096 42.8926922,21.0990459 C43.0267976,20.7755048 42.7696059,21.382965 42.9086348,21.0617683 C42.9822521,20.8913231 43.0554006,20.7208779 43.130659,20.5509016 C44.279699,17.9506155 45.6824139,15.4553632 47.3974164,13.1844795 C47.4311772,13.139934 47.5015122,13.0707712 47.5197993,13.0234123 C47.4876796,13.06491 47.45556,13.1064076 47.4234403,13.1479053 C47.4647035,13.0946851 47.5062012,13.041465 47.5479333,12.9884792 C47.6449957,12.864924 47.7429958,12.7423066 47.8419337,12.6203926 C48.0562211,12.3568707 48.2747286,12.0971 48.4981596,11.8415494 C48.9257965,11.352252 49.369845,10.8772561 49.8298361,10.4184373 C50.2905306,9.95914953 50.7669332,9.51556994 51.2588095,9.09004301 C51.4930251,8.88724368 51.7305231,8.68866445 51.9713033,8.49407087 C52.0836049,8.40357313 52.2083324,8.27462558 52.3351699,8.20569725 C52.0489063,8.36137211 52.2219305,8.29291268 52.3077392,8.22773556 C52.3940168,8.16232398 52.4805289,8.0973813 52.5675099,8.03314198 C53.607765,7.26344231 54.7056948,6.57064227 55.853328,5.97279452 C56.1252901,5.83095221 56.4003001,5.69450226 56.6776546,5.5636791 C56.8162146,5.49826752 56.9554779,5.4344971 57.0954446,5.37189892 C57.1793778,5.33438691 57.2637798,5.29828159 57.3477129,5.26100403 C57.6032635,5.14823353 57.0698896,5.37307117 57.3500574,5.25983178 C57.9460296,5.01952043 58.5473941,4.79632393 59.1611844,4.60548155 C59.7451996,4.42378273 60.3371861,4.26810786 60.9350339,4.13986366 C61.2346611,4.07585878 61.535695,4.01841851 61.8379012,3.96848064 C61.9288678,3.95347583 62.0196,3.93893993 62.1108011,3.92510737 C62.1494854,3.91924612 62.445127,3.90025566 62.1973132,3.91127482 C61.9478583,3.92205952 62.24772,3.90517911 62.2847631,3.90072456 C62.3764331,3.88947096 62.4681031,3.87915515 62.5600075,3.8690738 C62.9440368,3.82710723 63.2715635,3.74036069 63.5547793,3.45714498 C63.7986074,3.21308243 63.9824162,2.81287611 63.9667081,2.46237321 C63.9355262,1.76910428 63.3433053,0.969863895 62.5600075,1.05567263 C59.7048742,1.36866351 56.981033,2.21596616 54.4332638,3.54342261 C51.9778679,4.82281679 49.7269125,6.5352403 47.774881,8.49477422 C43.5857267,12.7003401 40.8135887,18.0964435 38.9318922,23.6758869 C37.9624411,26.5504796 37.1847701,29.5101776 36.6546785,32.4977752 C36.081448,35.7273253 35.8062035,39.0283826 36.236185,42.2928658 C36.6117741,45.1435445 37.4886174,47.8704336 38.9229831,50.3692027 C40.1908893,52.5777227 41.8484515,54.58907 43.7575786,56.2728906 C45.7037489,57.9890654 47.9028908,59.4264789 50.2877172,60.4538392 C53.0427403,61.6406256 55.9440602,62.3277989 58.9370501,62.5427896 C61.9007338,62.7559047 64.9087286,62.4694067 67.7990294,61.7923148 C70.7008182,61.1124096 73.5693152,60.010963 76.1452184,58.5064967 C77.4131245,57.7656344 78.6493799,56.8674561 79.5918693,55.7310765 C80.6640096,54.4385531 81.3321923,52.9453404 81.8932314,51.373587 C83.0139029,48.2340657 84.054158,45.0638315 85.1319251,41.9093054 C86.208051,38.7601717 87.3430239,35.6253395 87.7565939,32.3057605 C88.1621926,29.0518276 87.5877898,25.7807799 86.6506928,22.6647036 C85.7550934,19.6864841 84.6581014,16.7385085 83.438492,13.8779829 C82.2842942,11.1710221 80.8614165,8.5803485 78.9220453,6.35072808 C77.3219234,4.51146706 75.2749396,3.10804878 73.0511805,2.12546842 C70.6928469,1.08333774 68.1089724,0.363107043 65.5091553,0.453135881 C64.382857,0.492289047 63.2312381,0.671643371 62.1860596,1.1060794 C61.83204,1.25307961 61.5469486,1.40781668 61.3453215,1.75245832 C61.1690151,2.05396114 61.0942255,2.49824408 61.2034792,2.83632112 C61.4142499,3.48738904 62.2062223,4.1213421 62.9339554,3.81890148" id="Fill-7" fill="#986A5D" fill-rule="nonzero"></path>
                <g id="Group-11">
                    <mask id="mask-2" fill="white">
                        <use xlink:href="#path-1"></use>
                    </mask>
                    <g id="Clip-10" fill-rule="nonzero"></g>
                    <path d="M69.5608281,0.913150416 C67.4296767,0.124225839 65.0366446,-0.0145686186 62.784048,0.00113953792 C60.1117858,0.0194266455 57.4338968,0.326321823 54.8071179,0.807647873 C52.6061004,1.21090204 50.3910159,1.73724251 48.3149603,2.58618631 C45.2277214,3.84870008 42.2785736,5.41037218 39.2515884,6.80511581 C38.9130425,6.96125958 38.5733243,7.11505884 38.2324338,7.2660447 C38.031979,7.35466684 37.8310553,7.44235118 37.6298971,7.52886326 C37.5492462,7.56356188 37.4688299,7.59802604 37.3879446,7.6320213 C37.6470119,7.52253311 37.2545425,7.68688263 37.2393032,7.69321278 C36.4907041,8.00174911 35.734368,8.29199833 34.9688885,8.55622359 C33.3706422,9.10741577 31.7334771,9.51324889 30.0784939,9.85273263 C28.3906876,10.198781 26.6913933,10.4890302 25.0085105,10.860868 C23.345556,11.2282513 21.7079221,11.6955104 20.0956087,12.2436547 C16.8039294,13.3629195 13.6222071,14.7822804 10.456193,16.2112537 C9.06426277,16.83958 7.64279183,17.445399 6.37746466,18.3114577 C5.01882634,19.2415212 3.89979603,20.4189296 3.0993834,21.8633767 C2.35054979,23.214747 1.85703233,24.7006917 1.44252456,26.1833542 C0.995193773,27.7827727 0.551614189,29.3969616 0.274025274,31.0355334 C-0.0347455044,32.8586173 -0.126649943,34.6720888 0.230417556,36.4961106 C0.515977774,37.9548591 1.11194992,39.3704688 1.87227159,40.6435328 C3.49794856,43.3647951 5.87386585,45.4877407 8.42022835,47.3248917 C9.75354606,48.2870749 11.1393806,49.1730618 12.5134926,50.0749913 C13.1821443,50.5141164 13.8484515,50.9569926 14.5049117,51.4144047 C14.8329074,51.6429936 15.1583242,51.8750992 15.4802241,52.1121282 C15.6410569,52.2305255 15.7995452,52.352674 15.9601435,52.4713058 C16.1648184,52.6225261 15.7092819,52.2727265 16.0433733,52.5353106 C16.147938,52.6171337 16.2522683,52.6991913 16.3558952,52.7819521 C18.959698,54.8577733 21.3440555,57.2186858 24.1663658,59.0105879 C26.8419103,60.7094133 29.8606898,61.932305 32.9631679,62.578215 C34.5651654,62.9118375 36.2053783,63.1101823 37.8416055,63.1507421 C39.5826319,63.1941154 41.3215483,63.0639956 43.0578857,62.9547419 C44.7855485,62.845957 46.5211826,62.7545215 48.2507209,62.8778422 C48.4366399,62.8912059 48.6223243,62.906914 48.8077744,62.9252012 C48.9235927,62.9369237 49.0391766,62.9533352 49.1552294,62.9631821 C49.4192202,62.9859237 48.8260615,62.9101963 49.2668277,62.9772491 C49.5484022,63.019919 49.8273978,63.0736081 50.1080346,63.1207325 C50.4920639,63.1852063 50.8800788,63.2332686 51.2678592,63.2682016 C52.8609476,63.4116851 54.4751366,63.3643262 56.070335,63.2885988 C58.151783,63.1896609 60.2299487,63.0004596 62.2973296,62.7376411 C64.4690409,62.4616933 66.6367665,62.1259608 68.7712002,61.6350223 C70.4676811,61.2448973 72.1798701,60.7684947 73.7420111,59.9851969 C74.3089114,59.700809 74.8638548,59.3444448 75.3142335,58.8952384 C75.8358849,58.3747592 75.8736314,57.4193751 75.3142335,56.9059294 C74.7520221,56.3896702 73.8815089,56.3505171 73.3249244,56.9059294 C73.2421635,56.9882213 73.1509624,57.0592597 73.0656226,57.1380349 C72.9570722,57.238614 73.4072164,56.8963169 73.1840199,57.0447238 C73.1228284,57.0852837 73.063747,57.1291258 73.0023211,57.1694513 C72.7470049,57.3366142 72.4773873,57.4815043 72.2028462,57.6144375 C72.0612384,57.6831314 71.9168171,57.7457296 71.7733336,57.8102034 C71.5869458,57.8941365 71.9587837,57.7326004 71.9489368,57.7361171 C71.9027501,57.7529976 71.8575012,57.7738636 71.8120179,57.7921507 C71.7180034,57.8298972 71.62352,57.8667059 71.5288022,57.9025767 C71.1520409,58.0453568 70.7698872,58.1743044 70.3849202,58.2936395 C68.5803578,58.8542097 66.7183551,59.2316743 64.8565869,59.5441963 C64.3433756,59.6304739 63.8289921,59.7104214 63.3136708,59.7854454 C63.169484,59.8063115 63.0248283,59.8269431 62.880407,59.8471058 C62.7737322,59.8618762 62.384545,59.9085317 62.8196844,59.8562494 C62.5437367,59.8893068 62.2682578,59.92846 61.99231,59.9624553 C60.9450215,60.0914028 59.8951539,60.2006566 58.8434108,60.2899821 C57.0118866,60.445188 55.1719223,60.5495183 53.3333646,60.539437 C52.6443158,60.5354513 51.9543291,60.5166953 51.2678592,60.4548005 C51.1290648,60.4421402 50.9909737,60.424322 50.8521792,60.4107239 C50.7016623,60.396188 51.3023234,60.48059 50.9944904,60.4294799 C50.9293133,60.4186952 50.8639017,60.4093172 50.798959,60.3980636 C49.976977,60.2545801 49.1531194,60.1319627 48.3203526,60.069599 C44.9180128,59.8156895 41.5252854,60.3919679 38.1229456,60.3429678 C37.3534804,60.3317142 36.584953,60.2864653 35.8199423,60.2051111 C35.6323822,60.1849484 35.4452911,60.1619723 35.2581999,60.1387617 C35.0127306,60.1082832 35.5955736,60.1926853 35.1963051,60.1289148 C35.1135442,60.1157856 35.0305488,60.1040631 34.947788,60.0911684 C34.5752468,60.0327903 34.2038778,59.9657376 33.8343845,59.8907135 C32.3350761,59.5861629 30.8636673,59.1468034 29.4426652,58.5801375 C29.3453684,58.5414532 29.2485405,58.5015967 29.1514782,58.4622091 C29.1050571,58.4432186 28.9050712,58.3529554 29.1399902,58.4572856 C28.9866598,58.3892951 28.8326261,58.3231802 28.6799991,58.2540174 C28.2985488,58.0807588 27.9210841,57.8981222 27.5487773,57.706342 C26.8782501,57.3607625 26.222962,56.9856424 25.5861956,56.581216 C24.9278597,56.1631914 24.2929688,55.7111717 23.6714416,55.2401614 C23.6397909,55.216482 23.4618432,55.0767497 23.6411976,55.2174198 C23.5718003,55.1627929 23.5019342,55.1086349 23.4327714,55.0537736 C23.2766277,54.9304528 23.1216562,54.8059598 22.967388,54.680529 C22.6412679,54.4156004 22.3184301,54.1466862 21.9977024,53.8754274 C20.7809064,52.8468948 19.5913066,51.7860081 18.3452043,50.7926431 C17.0175134,49.7338664 15.6293344,48.763243 14.2120836,47.8289594 C12.8578998,46.9364079 11.4887112,46.0656602 10.165006,45.1278598 C9.857173,44.9098212 9.55215342,44.6882659 9.2501817,44.4620215 C9.17914332,44.4088014 9.10904274,44.3544089 9.03776991,44.3016577 C8.83332943,44.1504374 9.28839706,44.5009403 8.95360233,44.2369494 C8.77917145,44.0993272 8.60544393,43.9612361 8.43359201,43.8205661 C7.89341899,43.3779243 7.37153307,42.9130097 6.87309216,42.4237124 C6.37324455,41.9327739 5.89660751,41.4172181 5.45209012,40.875404 C5.4028556,40.8156192 5.35479333,40.7544277 5.30532436,40.6944085 C5.06618526,40.4053315 5.41317141,40.8430498 5.2750803,40.6583032 C5.17075001,40.5188054 5.06618526,40.3797764 4.96513727,40.2379341 C4.76421354,39.9554218 4.57219891,39.6665792 4.39096898,39.3711721 C4.21067686,39.0776406 4.04093499,38.7775445 3.88315007,38.4711182 C3.81328394,38.335606 3.74576231,38.1986872 3.68081964,38.0605961 C3.64025977,37.9745529 3.60368556,37.8863997 3.56218789,37.8008254 C3.48786721,37.6467917 3.64612102,38.0202707 3.54812088,37.7691746 C3.29163248,37.1113076 3.07898624,36.4419526 2.94323963,35.7482148 C2.91018217,35.5789418 2.88064146,35.408731 2.8564931,35.2378169 C2.89822521,35.5308795 2.83984714,35.0401755 2.83234474,34.9426442 C2.79764612,34.504457 2.78967482,34.0643942 2.80350737,33.6248002 C2.81593323,33.2311585 2.84594284,32.8382202 2.88978501,32.4466885 C2.88673716,32.4743536 2.94488078,32.0218649 2.91698122,32.2185686 C2.89400511,32.3805736 2.93667503,32.0938411 2.94206738,32.0598458 C2.981455,31.8059364 3.02576607,31.5529647 3.07406279,31.3006964 C3.37439336,29.7317564 3.79640354,28.1787589 4.23670082,26.6438141 C4.4341078,25.9559376 4.64909854,25.2725155 4.9067592,24.6045672 C4.93512766,24.5307154 4.96537172,24.457567 4.99374018,24.3839497 C5.13019014,24.0280544 4.9147305,24.5511126 5.01155839,24.3379974 C5.08470682,24.1771647 5.1552763,24.0153941 5.23217593,23.8562025 C5.38503739,23.5399293 5.55126251,23.2297518 5.73366469,22.9294213 C5.82463133,22.7798421 5.91934917,22.6326074 6.01828711,22.4881862 C6.07338288,22.4080042 6.1310576,22.3296979 6.18709118,22.2499849 C6.22132089,22.2012193 6.35542635,22.0499989 6.18052657,22.256315 C6.41192882,21.9834151 6.64333107,21.7152042 6.90286732,21.4676249 C7.03439383,21.3421941 7.17014044,21.2214523 7.30963824,21.1046961 C7.38677233,21.0397535 7.46484421,20.9757486 7.54455724,20.9140882 C7.50094952,20.947849 7.33261435,21.0683564 7.54971514,20.9152605 C7.86458162,20.6932362 8.18413711,20.4810589 8.51611844,20.2852931 C9.82692894,19.5118422 11.2446487,18.9236069 12.6304832,18.300673 C13.406513,17.9518112 14.1834806,17.605294 14.9637306,17.2655758 C15.3222048,17.1096665 15.6818512,16.9565706 16.0410288,16.802068 C16.2555506,16.7096946 15.870818,16.8731063 16.0862776,16.7828431 C16.1922491,16.7382975 16.2982205,16.6939865 16.404192,16.6496754 C16.6163693,16.5612877 16.8287811,16.4738378 17.0416618,16.3868568 C20.1153026,15.1332522 23.2548238,14.0890114 26.5075845,13.4128574 C29.7950437,12.7296698 33.1043068,12.2220853 36.2738377,11.0718731 C39.3202823,9.96620647 42.2162099,8.50089337 45.1313624,7.09606838 C45.8640189,6.74275209 46.5987855,6.39365589 47.3389445,6.0558133 C47.6786627,5.90084179 48.0193187,5.74798032 48.3616158,5.59840116 C48.5426113,5.51939148 48.7243101,5.44155405 48.906009,5.36395106 C49.1142006,5.27486003 48.7238412,5.43663059 48.934143,5.35246301 C49.0117459,5.32128115 49.0886456,5.28845813 49.1662486,5.25727627 C50.1188193,4.87395036 51.1016341,4.56682073 52.0919513,4.29837537 C53.2341922,3.98890124 54.3912034,3.73381954 55.5550137,3.52046995 C56.1720864,3.407465 56.7912691,3.30641701 57.4120929,3.21756042 C57.4817246,3.20747907 57.5515907,3.19810106 57.6212224,3.18801971 C57.9679741,3.13831629 57.3919302,3.21685707 57.6144234,3.18872306 C57.7722083,3.1687948 57.9297588,3.14816319 58.0875437,3.12917274 C58.4035824,3.09072292 58.7198556,3.05578986 59.0365977,3.02390464 C60.2984081,2.89730159 61.5663142,2.82110531 62.8346892,2.81407181 C63.4280824,2.81102395 64.0217101,2.82321536 64.6141655,2.85510057 C65.1838792,2.88581354 65.7606265,2.99741178 66.328699,3.00983764 C66.3026751,3.00936874 65.9770239,2.95849307 66.2192108,2.99623953 C66.27712,3.00514863 66.3352636,3.01335439 66.3931728,3.02226349 C66.521417,3.0424262 66.6496612,3.06376116 66.7774365,3.08673727 C67.0109488,3.12893829 67.2435233,3.17582831 67.4746911,3.22928293 C67.9285865,3.33431657 68.3759173,3.46420193 68.8129323,3.62597249 C69.5043256,3.881992 70.3844513,3.34064672 70.5434084,2.64362658 C70.7248728,1.8467307 70.300987,1.18722258 69.5608281,0.913150416" id="Fill-9" fill="#986A5D" fill-rule="nonzero" mask="url(#mask-2)"></path>
                </g>
                <path d="M16.5530443,28.5941576 C15.5643683,30.1056574 15.4145547,31.9817271 15.5287319,33.7384616 C15.6487703,35.585694 15.8855649,37.4298784 16.0721872,39.2712495 C16.2693597,41.2162475 16.4662978,43.1612455 16.6634703,45.1062435 C16.8386046,46.8355474 16.9579397,48.5894686 17.3164139,50.2932175 C17.6936441,52.0855885 18.4422432,53.8713949 19.8158863,55.1294541 C20.3586383,55.6264883 21.2758071,55.7062013 21.8051954,55.1294541 C22.3019952,54.5883433 22.3847561,53.67094 21.8051954,53.140145 C21.6760134,53.0217477 21.5508171,52.8993648 21.4324198,52.7701827 C21.3740417,52.7061779 21.3194148,52.6388907 21.2615056,52.5744169 C21.0561274,52.3446558 21.4457834,52.8391111 21.269008,52.5875461 C21.0535484,52.2811198 20.8563759,51.9676601 20.6889785,51.6319275 C20.6282559,51.5102479 20.5825382,51.350353 20.5068108,51.2385203 C20.7011699,51.5257216 20.5647199,51.3742669 20.5178299,51.2511806 C20.4864136,51.169123 20.456404,51.086831 20.4275666,51.0040702 C20.3009636,50.6406725 20.1963988,50.2700069 20.1075423,49.8955901 C20.0315804,49.5743935 19.9673411,49.2503834 19.911542,48.9252012 C19.880829,48.7467846 19.852695,48.5681337 19.826671,48.3892482 C19.812604,48.2924203 19.8069772,47.991152 19.8273744,48.4051908 C19.8215131,48.2863246 19.7966614,48.1653484 19.7825944,48.0471855 C19.683422,47.2226245 19.6074602,46.3947813 19.5237615,45.5685791 C19.1516892,41.8984973 18.7566408,38.2300566 18.4089513,34.5576303 C18.3273627,33.6936817 18.2678123,32.8217618 18.3372096,31.9547653 C18.3449464,31.859813 18.3554967,31.7655641 18.3648747,31.6708462 C18.3840996,31.5147025 18.3798795,31.5456499 18.3524488,31.7641574 C18.3618268,31.7020281 18.3723771,31.6403677 18.3836307,31.5787074 C18.4230183,31.36442 18.4727217,31.1522426 18.5355544,30.943582 C18.5622817,30.854491 18.591119,30.7663378 18.6225353,30.6788879 C18.6434014,30.6207443 18.6654397,30.5628351 18.6886503,30.5053948 C18.6056549,30.6983472 18.5955736,30.7250745 18.6584062,30.5860456 C18.7610954,30.3907487 18.86144,30.199203 18.9824162,30.0142219 C19.3859049,29.3969147 19.1261342,28.4321526 18.4776452,28.0893866 C17.7749982,27.7182521 16.9837292,27.9355873 16.5530443,28.5941576" id="Fill-12" fill="#986A5D" fill-rule="nonzero"></path>
                <path d="M38.6479263,7.5077862 C37.0213115,10.4780345 35.3780508,13.440077 33.7697231,16.4201722 C32.2507209,19.2349801 30.7652451,22.1996015 30.1884979,25.3726492 C29.8471385,27.2510633 29.8187701,29.1278364 30.2241343,30.9994515 C30.3800436,31.7196822 31.2594659,32.2068695 31.954376,31.9820319 C32.7128221,31.7365626 33.1041193,31.023131 32.9369564,30.2515557 C32.8956932,30.0614167 32.8579467,29.8708087 32.8260615,29.6787941 C32.8119945,29.5932198 32.790894,29.5048321 32.7859705,29.41832 C32.8063677,29.766244 32.8005064,29.5181958 32.7906595,29.4279325 C32.7496307,29.0478889 32.7278269,28.6659697 32.7243101,28.2835816 C32.7210278,27.9201839 32.734157,27.5563174 32.762291,27.1938575 C32.7758892,27.0208333 32.7951141,26.848747 32.8126978,26.6761917 C32.8391907,26.4161865 32.8054299,26.6998712 32.8021476,26.7399621 C32.8136356,26.6021055 32.842473,26.4630766 32.8654491,26.3268611 C33.1125595,24.8556867 33.5730195,23.4276512 34.1354653,22.0486157 C34.1582069,21.9925821 34.2953602,21.6505194 34.160317,21.9843764 C34.1875132,21.9173236 34.2172884,21.8509743 34.2461257,21.7848593 C34.3181019,21.6183998 34.3914848,21.4526435 34.4660399,21.2875907 C34.6306239,20.9234897 34.8013035,20.5622021 34.9766722,20.203259 C35.3264718,19.4870139 35.6945584,18.7799124 36.0713197,18.0777344 C36.8290624,16.6647036 37.6076712,15.2626921 38.3778398,13.8564604 C39.2776593,12.2136686 40.1774787,10.5706423 41.0772982,8.92785044 C41.4306145,8.28240932 41.256887,7.36477164 40.5725271,7.00324959 C39.9139568,6.65509119 39.0253909,6.81850291 38.6479263,7.5077862" id="Fill-14" fill="#986A5D" fill-rule="nonzero"></path>
                <path d="M74.1138021,65.9931682 L74.9657937,65.2469136 C88.0593628,60.3905143 104.153893,67.8127354 116.483624,61.0315008 C117.210653,60.6312945 117.947765,60.1492651 118.317258,59.4060583 C118.671278,58.6945023 118.632124,57.8589221 118.584765,57.0657774 C118.462148,55.0000376 118.330387,52.8928001 117.563032,50.9710127 C116.795677,49.0492253 115.268938,47.30984 113.253839,46.8390642 L112.657164,47.1246244 C112.32612,44.7730899 111.762971,42.3284788 110.125337,40.6198065 C108.439641,38.8614307 105.268,38.331808 103.633648,40.1375426 L103.607155,40.1607532 C102.679436,38.3772913 101.127846,36.9124471 99.2339578,36.2266805 C95.8480294,35.0005065 91.7057651,36.3844654 89.7363843,39.3994937 L89.4963074,39.5983074 C89.5230347,38.1339321 89.5499965,36.6695568 89.5767238,35.2051815 C89.6404942,31.7315688 89.3202354,27.5557781 86.2702741,25.8918858 C83.0918341,24.1576584 79.2452114,26.4151784 76.5272314,28.8075072 C68.4377652,35.9277567 62.2696176,45.0265305 57.5077017,54.6938458 C56.9633086,55.7990436 56.4231355,56.9809065 56.5307481,58.2080183 C56.6388296,59.4351301 57.7215202,63.1455374 58.9483975,63.0341736 C59.6397909,63.2308772 60.344079,63.2540877 61.0380513,63.1497575 L60.3354043,63.7311937 C62.8979439,63.5075283 64.6286545,66.3129582 67.0169976,67.2681079 C69.427848,68.2321667 72.1969381,67.1518206 74.2375917,65.5320049" id="Fill-16" fill="#AA7F74" fill-rule="nonzero"></path>
                <path d="M42.6172602,26.0317587 C42.1722739,28.2309006 41.7270532,30.4300425 41.2820669,32.6291845 C40.8314538,34.8552881 40.3524723,37.0797507 40.116381,39.3417252 C39.8899022,41.5117953 39.9682086,43.7198463 40.5365156,45.8350551 C41.0546503,47.7643449 41.939465,49.598917 42.982299,51.2965701 C44.1674443,53.22586 45.5668769,55.013073 46.9604483,56.793956 C47.1667644,57.0577123 47.638009,57.2061193 47.9549856,57.2061193 C48.3000961,57.2061193 48.7122594,57.0527889 48.9497573,56.793956 C49.1959299,56.5259795 49.3785666,56.1740699 49.3616862,55.7994187 C49.343868,55.4017913 49.1928821,55.1152933 48.9497573,54.8046469 C48.8060394,54.6210725 48.662556,54.4372636 48.519307,54.2534547 C48.4576466,54.174445 48.3962207,54.0952009 48.3347947,54.0159568 C48.293766,53.9632055 48.2525028,53.9106887 48.2119429,53.8574685 C48.2679765,53.9308514 48.3530818,54.0408085 48.2478138,53.9036552 C47.9617846,53.5308795 47.6771622,53.1571661 47.3972288,52.7797014 C46.8378309,52.0254755 46.2948444,51.2585892 45.7851499,50.4694302 C45.2806133,49.6882424 44.8086653,48.8850164 44.3906408,48.0538908 C44.2867794,47.8478092 44.1864347,47.6398519 44.0898413,47.430488 C44.0415446,47.3259233 43.9941856,47.2208896 43.947999,47.1156215 C43.929243,47.0731861 43.9142382,47.0185592 43.8886831,46.9798749 C43.971444,47.1060091 43.9721473,47.1812675 43.8973577,46.9976931 C43.7236302,46.5724006 43.5665487,46.1403091 43.428692,45.7021219 C43.2906009,45.2627624 43.1719691,44.8170728 43.0753757,44.3666941 C43.0301268,44.1561579 42.9898014,43.944684 42.9543995,43.7322722 C42.9419736,43.6579515 42.9309544,43.5836308 42.9192319,43.5093101 C42.9145429,43.4788316 42.8864089,43.2891615 42.9133707,43.4732048 C42.940098,43.6567792 42.9133707,43.4678125 42.9100884,43.436865 C42.900007,43.3437884 42.8892223,43.2507117 42.8803132,43.1574005 C42.7783274,42.1133942 42.7879399,41.0611822 42.8683563,40.0160037 C42.8871123,39.7721756 42.9098539,39.5288164 42.9356434,39.2854572 C42.9497105,39.1543996 42.9647153,39.023342 42.9804234,38.8922844 C42.9872225,38.8360163 42.994256,38.7799828 43.0012895,38.7237147 C43.0460694,38.3572692 42.9722177,38.9178394 43.0033995,38.7047243 C43.0795958,38.1804939 43.1616533,37.6574357 43.25473,37.1355498 C43.4413523,36.0877923 43.6572808,35.0456616 43.8682859,34.0025931 C44.3557077,31.5950251 44.842895,29.1872226 45.3300823,26.7796545 C45.4756758,26.0605961 45.1235318,25.2259537 44.3477364,25.0491784 C43.646965,24.8897523 42.773404,25.2604179 42.6172602,26.0317587" id="Fill-18" fill="#986A5D" fill-rule="nonzero"></path>
                <path d="M10.1679366,23.8639862 C8.15588587,26.1057981 7.32851148,29.0999603 7.83046913,32.0591894 C7.95378989,32.786688 8.88830797,33.2593394 9.56071085,33.0417697 C10.3458842,32.7876258 10.6755211,32.0908401 10.5432912,31.3112936 C10.5346166,31.259949 10.4978079,30.9854079 10.5257075,31.2222025 C10.5545448,31.4676718 10.5196118,31.1586666 10.5167983,31.1321737 C10.5027313,30.9933792 10.49265,30.8541159 10.4858509,30.7146181 C10.4724873,30.4358569 10.473894,30.1566268 10.4898366,29.8778657 C10.4985112,29.7228942 10.5170328,29.5690949 10.5292242,29.4143578 C10.5444635,29.2230466 10.4830375,29.7008559 10.5153916,29.5116546 C10.5285209,29.4352239 10.5390711,29.3583243 10.5526692,29.2818935 C10.6042482,28.9916443 10.671301,28.703974 10.7533585,28.4207583 C10.8311959,28.1516096 10.9280238,27.8911356 11.0262584,27.6287859 C11.0879188,27.4639675 10.9022343,27.900748 11.0117225,27.6651257 C11.0379809,27.6088576 11.0633015,27.5521207 11.0897944,27.4960871 C11.1566127,27.3561204 11.2271821,27.2177949 11.3017373,27.0818138 C11.4358427,26.8372824 11.582374,26.5993155 11.7410968,26.3697889 C11.7851734,26.3062529 11.8330012,26.2445925 11.8763745,26.1805876 C11.9788292,26.0296018 11.6566947,26.4483297 11.8550395,26.2070805 C11.9535085,26.0872765 12.0536187,25.9688792 12.1572457,25.8532953 C12.6486531,25.3058543 12.7377441,24.3968913 12.1572457,23.8639862 C11.6208239,23.3714066 10.6928704,23.2790332 10.1679366,23.8639862" id="Fill-20" fill="#986A5D" fill-rule="nonzero"></path>
                <path d="M57.1643261,60.1923101 L56.8088997,60.5477365 C56.6717464,60.6750429 56.5749185,60.8260288 56.5181816,61.0002252 C56.4300284,61.1680915 56.389703,61.348618 56.3969709,61.5422738 C56.389703,61.7359296 56.4300284,61.9166906 56.5181816,62.0843224 C56.5749185,62.2587533 56.6717464,62.4095047 56.8088997,62.5370456 C56.903852,62.6104285 56.9988043,62.6835769 57.0937566,62.7569598 C57.3132019,62.8842662 57.549762,62.948271 57.8036715,62.9489744 L58.1776194,62.8988021 C58.4160551,62.8319838 58.6228401,62.711242 58.7984433,62.5370456 L59.1536351,62.1816192 C59.2907885,62.0543128 59.3878508,61.903327 59.4445877,61.7288961 C59.532741,61.5612643 59.5730664,61.3807377 59.5657984,61.1870819 C59.5730664,60.9934261 59.532741,60.8126651 59.4445877,60.6450333 C59.3878508,60.4706024 59.2907885,60.3196166 59.1536351,60.1923101 C59.0589173,60.1189273 58.963965,60.0457788 58.8690127,59.972396 C58.6495674,59.8450896 58.4130073,59.7810847 58.1590978,59.7803813 L57.7851499,59.8305536 C57.5467142,59.8973719 57.3399292,60.0178793 57.1643261,60.1923101" id="Fill-22" fill="#986A5D" fill-rule="nonzero"></path>
                <path d="M58.9219047,61.650707 C58.8435983,61.655396 58.6731531,61.6324199 58.9638712,61.6704008 C59.2550583,61.7083817 59.0817996,61.6875156 59.007479,61.6586783 C59.0414742,61.6718075 59.3912738,61.8370948 59.2020725,61.7311234 C58.9765315,61.6049892 59.4182355,61.9374394 59.3132019,61.8242 C59.2365367,61.7414392 59.1547136,61.662195 59.0775795,61.5791997 C58.9359717,61.4270416 59.2930392,61.8882049 59.1509624,61.6701663 C59.1092303,61.605927 59.0651537,61.5430944 59.0245938,61.4776828 C58.8679812,61.2242423 58.7378613,60.9569691 58.614775,60.6861793 C58.4956744,60.4240641 58.7226221,60.9588447 58.6370478,60.7405717 C58.6075071,60.6655477 58.5774975,60.591227 58.5486601,60.5159685 C58.4869997,60.3539635 58.4288561,60.1907862 58.3739948,60.0266712 C58.189717,59.4752445 58.0342766,58.9106887 57.9297119,58.338396 C57.9193961,58.282128 57.9102525,58.2256255 57.90064,58.1693575 C57.8968888,58.1466158 57.8943099,58.1236397 57.8903242,58.1008981 C57.856329,57.9098212 57.9344009,58.3829415 57.9231473,58.3470707 C57.8732094,58.1871757 57.8943099,57.9775773 57.89853,57.81229 C57.9004056,57.7426583 57.9072047,57.67373 57.9095492,57.6043327 C57.9109559,57.5630695 57.9437789,57.3961411 57.9072047,57.5844045 C57.8671137,57.788845 57.9121281,57.5644762 57.9217406,57.513835 C57.9311186,57.4624904 57.9414344,57.4111459 57.9524535,57.3602702 C58.0084871,57.1026095 58.0849178,56.8498723 58.1728366,56.6015897 C58.2145687,56.4845991 58.2595831,56.3690152 58.3050665,56.2534313 C58.4051767,55.9997563 58.2169132,56.4442737 58.330856,56.1964599 C58.4422198,55.9545074 58.5552247,55.7134927 58.6724498,55.4743536 C58.8862683,55.0392142 59.103369,54.6054816 59.3230488,54.1731556 C59.7467001,53.3392166 60.1809017,52.5104355 60.625888,51.6877501 C61.5245352,50.0264367 62.4677279,48.3890372 63.4592174,46.7811785 C64.4586782,45.1608938 65.5073735,43.5703844 66.6085856,42.0173869 C67.1487586,41.2554241 67.7018264,40.5026049 68.2677889,39.7596325 C68.3385928,39.6667903 68.4096312,39.5741825 68.4804351,39.4815747 C68.5259185,39.4224933 68.652756,39.2900289 68.4438609,39.5286991 C68.4764495,39.4914216 68.5055213,39.449455 68.5357654,39.4103018 C68.6893302,39.2131293 68.8438328,39.0164257 68.9990388,38.8206599 C69.2890535,38.4553866 69.5823506,38.0924579 69.8786955,37.732577 C72.2717277,34.8272713 74.8811572,32.0572434 77.7444963,29.6091155 C77.9018123,29.4745412 78.0610039,29.3420769 78.2223056,29.2119571 C78.3099899,29.1411531 78.3988465,29.0717559 78.4872342,29.0016553 C78.6096171,28.904593 78.3969709,29.0719904 78.3948609,29.0731626 C78.4619136,29.0372917 78.5280285,28.9725835 78.5899233,28.9266313 C78.9570722,28.6539658 79.3340679,28.3941951 79.7213795,28.1510704 C80.1197102,27.9011466 80.5290601,27.6685721 80.9506014,27.4603804 C81.036879,27.4177105 81.1233911,27.3762128 81.2103721,27.3358874 C81.2506975,27.3171314 81.5946358,27.1680211 81.3908986,27.2524232 C81.184817,27.337763 81.5226596,27.2010786 81.5735353,27.1818537 C81.690057,27.1375426 81.8075165,27.0953416 81.9256793,27.0554851 C82.3315124,26.9190351 82.7441446,26.8198627 83.1649825,26.7431975 C83.4130307,26.6981831 82.8580874,26.7743794 83.1893653,26.740853 C83.2920545,26.7303028 83.3952125,26.722097 83.4983706,26.7169391 C83.7178159,26.7056855 83.9379645,26.7066233 84.1574098,26.7209248 C84.2589267,26.7277238 84.3611469,26.745542 84.4624294,26.7495277 C84.4699318,26.7497621 84.1520174,26.696542 84.3053478,26.7310061 C84.3480177,26.7406186 84.3920943,26.7457765 84.4349987,26.7542167 C84.652334,26.7964177 84.8666213,26.8531546 85.0764542,26.9239586 C85.1167796,26.9375567 85.3606077,27.0463415 85.3716268,27.0339157 C85.3645933,27.041887 85.1106839,26.9110638 85.2443204,26.9837433 C85.2980095,27.0130496 85.3554498,27.0367291 85.4100767,27.0646286 C85.5779429,27.1504374 85.7408858,27.2451552 85.8982018,27.3490166 C85.9673645,27.3944999 86.0409819,27.4660072 86.1162404,27.5011747 C86.10147,27.4941412 85.8407615,27.2751648 86.0098,27.4191172 C86.0381685,27.4435 86.0672403,27.4667105 86.0958432,27.4908589 C86.2369822,27.6108974 86.3715565,27.7384382 86.4988629,27.873247 C86.5495041,27.9267016 86.5989731,27.9813285 86.6472698,28.0371276 C86.6810306,28.0758119 86.8789065,28.3252668 86.723935,28.1227019 C86.5680257,27.9187303 86.7560547,28.1700608 86.7891121,28.2176542 C86.8456146,28.2985395 86.900007,28.3810659 86.9522894,28.4645302 C87.1398495,28.7643918 87.2786439,29.0811339 87.4361944,29.3960004 C87.2439453,29.0117367 87.3836776,29.275493 87.4228308,29.3788855 C87.454716,29.4628187 87.4854289,29.5474552 87.5145007,29.6325605 C87.5780367,29.8168383 87.6352425,30.0032261 87.6872905,30.1912551 C87.7866973,30.5494949 87.8664103,30.9128925 87.9315875,31.2788691 C87.947999,31.3717114 87.9634727,31.4647881 87.978243,31.5578647 C87.9873866,31.6164773 88.0342766,31.9529132 87.999578,31.6922046 C87.966755,31.443922 88.0035636,31.7306545 88.0103627,31.7883292 C88.023023,31.8964107 88.0347455,32.0049611 88.0452958,32.113277 C88.1212576,32.8843834 88.1486883,33.6597099 88.1503294,34.434333 C88.154784,36.5075752 88.0821044,38.5833964 88.0441235,40.6561697 C88.0394345,40.9100791 88.0363867,41.1637541 88.0272431,41.4174291 C88.023023,41.5393432 88.0176306,41.6612572 88.008956,41.7829368 C88.0054392,41.8349848 88.0012191,41.8870327 87.9967646,41.9390806 C87.9939512,41.9735448 87.9906689,42.0082434 87.9866832,42.0427075 C87.9749607,42.1505546 87.9810564,42.1118703 88.0049703,41.9264203 C87.9625349,41.9955831 87.9672239,42.1505546 87.9494057,42.2319088 C87.9236162,42.3496027 87.8926687,42.4661244 87.8558601,42.5807705 C87.8392141,42.6328184 87.7463719,42.8295221 87.8385108,42.6525122 C87.9257262,42.484646 87.8471854,42.6337562 87.8305395,42.6651725 C87.7702858,42.7791153 87.7119077,42.8932925 87.6436827,43.0027807 C87.5836635,43.0989052 87.5170797,43.189403 87.4526059,43.2822452 C87.3616393,43.4125995 87.5238787,43.186824 87.5234098,43.1891685 C87.5184864,43.2187092 87.4080604,43.3258529 87.3977446,43.3375754 C87.247931,43.5089584 87.0885049,43.6716668 86.9250932,43.8299206 C86.6212459,44.1239211 86.3030971,44.4038545 85.9753358,44.6708931 C85.8974984,44.7344291 85.8140342,44.7935105 85.7387757,44.8600944 C85.73268,44.8654867 85.9755703,44.6800367 85.8527184,44.7721756 C85.8180198,44.7981995 85.7840246,44.8244579 85.749326,44.8504819 C85.5767707,44.9803673 85.4016365,45.1067359 85.2246266,45.2302911 C84.8935831,45.4607555 84.5550372,45.6806697 84.2108644,45.8914403 C83.5054041,46.3228285 82.7767332,46.715298 82.0365742,47.0831502 C80.5501606,47.8214335 79.0182637,48.4612479 77.4980892,49.125445 C74.3911565,50.4826766 71.2699224,52.0047266 68.8963496,54.4927111 C67.5602185,55.892847 66.4974562,57.5218063 65.2138419,58.9667223 C64.8928798,59.3282443 64.5592573,59.6799195 64.2028931,60.0067429 C64.0516728,60.1455374 63.8964668,60.2796428 63.7375097,60.4092937 C63.4655476,60.6308491 63.8870888,60.304729 63.6845239,60.4529014 C63.5818348,60.5279255 63.4793801,60.6031839 63.3745809,60.6751601 C63.0093077,60.9260217 62.6266851,61.1522661 62.2278855,61.3459219 C62.1716175,61.3733525 62.1141772,61.399142 62.0576747,61.4261038 C62.0218039,61.4432186 61.8694113,61.5053479 62.0536891,61.4305583 C62.2384357,61.3555343 62.0853398,61.4176636 62.0487656,61.4314961 C61.990622,61.4537689 61.9329473,61.476745 61.8745692,61.4983144 C61.6574684,61.5780274 61.436382,61.6471902 61.2120132,61.7039271 C61.0204675,61.7522239 60.818606,61.7695732 60.6289358,61.8213866 C60.6589454,61.8131809 60.9770942,61.7859847 60.7320939,61.8045062 C60.686845,61.8077885 60.6415961,61.812712 60.5963473,61.8159943 C60.4906103,61.8234967 60.3848733,61.8281857 60.2791363,61.829358 C60.0812604,61.831468 59.8861979,61.8157598 59.6894943,61.8005206 C59.4986519,61.7855158 59.9790402,61.8535063 59.7917145,61.812712 C59.7469346,61.8030995 59.7012168,61.7970038 59.6562024,61.7880947 C59.5347572,61.7639464 59.4151877,61.7334679 59.2958526,61.7008793 C58.586641,61.5069891 57.7344149,61.941894 57.5653764,62.6834597 C57.3963379,63.4259631 57.7883385,64.206213 58.5479568,64.4139358 C60.6127588,64.9784917 62.7915035,64.3996344 64.5564439,63.2630203 C66.3052071,62.136722 67.5914004,60.5487915 68.8518041,58.9247557 C69.4805993,58.1147306 70.11127,57.3032988 70.8150892,56.5563408 C71.1210466,56.2318619 71.441071,55.920981 71.7751624,55.6255739 C71.9369329,55.4823249 72.1017513,55.3425927 72.2693832,55.2063772 C72.3364359,55.1519847 72.4039575,55.0985301 72.4714791,55.044841 C72.657867,54.8964341 72.41357,55.0966545 72.3912972,55.106267 C72.4522542,55.0800086 72.5106323,55.0162381 72.563618,54.9768505 C73.93562,53.9583993 75.4489954,53.1488431 76.9919115,52.4227511 C80.1058777,50.9572036 83.4041216,49.8166039 86.2873889,47.9023188 C87.9477645,46.7999345 89.808126,45.4091765 90.5185098,43.4754321 C90.9109793,42.4068085 90.8476778,41.1937637 90.8680749,40.0726234 C90.8891754,38.9247557 90.9102759,37.776888 90.9313765,36.6292548 C90.9651373,34.7846014 90.989989,32.9631586 90.7379551,31.1311656 C90.5203854,29.5500341 90.0552364,27.9135724 89.0883642,26.6184701 C87.8694582,24.9857596 86.0796661,23.9846577 84.0261177,23.9004901 C81.9981244,23.8172603 79.9879493,24.6633907 78.3013153,25.7216985 C76.590064,26.7957144 75.0834877,28.169123 73.625677,29.5584743 C72.2037371,30.9138303 70.8429888,32.3329568 69.5424941,33.8050689 C66.8699974,36.8301785 64.4392188,40.0740301 62.2372635,43.4559727 C60.0854805,46.7607813 58.1510328,50.2050877 56.3996905,53.7377817 C55.9073453,54.7304435 55.3711579,55.7643684 55.1908658,56.8686283 C55.0452723,57.7588354 55.0977891,58.5876165 55.2937894,59.4621153 C55.610297,60.8749116 56.1174126,62.3409281 57.0226244,63.4857479 C57.4685485,64.0498348 58.1761189,64.5088881 58.9219047,64.4641081 C59.6550301,64.4200315 60.3640072,63.8486766 60.3286053,63.0574076 C60.2962511,62.3329568 59.7084847,61.6033481 58.9219047,61.650707" id="Fill-24" fill="#986A5D" fill-rule="nonzero"></path>
                <g id="Group-28" transform="translate(58.901002, 34.396764)">
                    <mask id="mask-4" fill="white">
                        <use xlink:href="#path-3"></use>
                    </mask>
                    <g id="Clip-27" fill-rule="nonzero"></g>
                    <path d="M32.0236695,5.73587813 C32.098928,5.62216984 32.1784066,5.51197829 32.2567129,5.40038005 C32.4276271,5.15678639 32.0440667,5.6542895 32.2358469,5.42687291 C32.27078,5.38537524 32.3045408,5.34293977 32.3394738,5.3014421 C32.5317229,5.07355661 32.738039,4.85715917 32.9558431,4.65342204 C33.0547811,4.5610487 33.1560635,4.47078541 33.2596905,4.38356997 C33.3011881,4.34863691 33.343858,4.3148761 33.3851213,4.27994303 C33.6123034,4.08769395 33.1169104,4.47570886 33.3574562,4.30034019 C33.588155,4.13223947 33.8235429,3.97211005 34.0690122,3.82628209 C34.3027589,3.68725318 34.5433047,3.55947788 34.7892429,3.44365953 C34.8509033,3.41458772 34.9130325,3.38715706 34.9749274,3.35855415 C35.1859325,3.26102291 34.885133,3.39958292 34.8642669,3.40450637 C35.0183006,3.36886995 35.1720999,3.28376457 35.3230858,3.23171665 C35.580512,3.14286006 35.8421583,3.06642933 36.1068524,3.00219 C36.2390823,2.97030479 36.3720155,2.94146743 36.5056521,2.91567791 C36.6228771,2.89317071 37.1874329,2.83573043 36.6957911,2.87699365 C37.2404187,2.83127588 37.7742615,2.79540501 38.3212336,2.83713713 C38.4560424,2.84745294 38.5906168,2.86996015 38.7254256,2.8786348 C38.2553531,2.84792184 38.7090141,2.88215155 38.8330382,2.90629991 C39.1263352,2.96327128 39.41635,3.03782642 39.7005035,3.1299653 C39.8315611,3.17240077 39.9595709,3.22186974 40.0892218,3.26829086 C40.3089015,3.34683164 40.0071643,3.23406115 39.985126,3.22116639 C40.0552265,3.26219516 40.139863,3.28915692 40.2134803,3.32385553 C40.4896626,3.45374089 40.7578735,3.6007411 41.0164719,3.76298057 C41.1222089,3.82932994 41.2260703,3.89849272 41.328525,3.96976555 C41.3854964,4.00938762 41.4410611,4.05088529 41.497798,4.0907418 C41.7345926,4.25790472 41.2945297,3.92475113 41.4443434,4.04807188 C41.6698844,4.23375636 41.8902674,4.42272314 42.0986936,4.62786697 C42.2970384,4.82316391 42.4850673,5.02854219 42.6632494,5.24236068 C42.7077949,5.2958153 42.7506993,5.35044217 42.7945415,5.4043657 C42.9176278,5.55511711 42.5844742,5.11458538 42.7523405,5.35208333 C42.8489339,5.48876773 42.946934,5.62381099 43.0383696,5.76401215 C43.1902932,5.99775889 43.3314322,6.23830469 43.4603797,6.4854151 C43.5248535,6.6089703 43.5862794,6.7339322 43.6446575,6.8603008 C43.6678681,6.91047312 43.6880308,6.96369329 43.7131169,7.01269336 C43.5220401,6.63944881 43.6767772,6.92665018 43.7145236,7.02394697 C43.9199019,7.55521089 44.0718256,8.10710642 44.1630267,8.6690833 C44.1695913,8.71034652 44.2171847,8.98770098 44.1735769,8.72910253 C44.1302037,8.47261412 44.1726391,8.74668628 44.1768592,8.79005955 C44.1904573,8.92815066 44.2000698,9.06647622 44.2059311,9.20503622 C44.2188258,9.5105247 44.2134335,9.81671653 44.1885817,10.1215017 C44.1838927,10.1770663 44.1787348,10.232631 44.1728736,10.2879612 C44.1599788,10.4119853 44.0732323,10.6276794 44.1815482,10.2436502 C44.1487252,10.3599374 44.1423951,10.488885 44.119419,10.6077512 C44.0654954,10.8860434 43.9975049,11.1615223 43.9154474,11.432781 C43.8378444,11.6888006 43.738672,11.9352076 43.6474709,12.1863037 C43.8047869,11.7530399 43.6451264,12.1839592 43.5961264,12.2873517 C43.5279014,12.4310696 43.4556907,12.5731463 43.3799634,12.713113 C43.2531259,12.9468598 43.1164415,13.1752142 42.9706135,13.3977073 C42.8974651,13.5093056 42.8219721,13.6194971 42.7443691,13.728282 C42.7131873,13.7718897 42.681771,13.8152629 42.6501202,13.8584018 C42.618235,13.9015406 42.5861153,13.9444449 42.5535268,13.9871149 C42.6836466,13.8197175 42.7157662,13.7779854 42.6498858,13.8616841 C42.2972728,14.2949478 41.9259039,14.7080489 41.521243,15.0937193 C41.3212571,15.2845617 41.114941,15.4690739 40.9039359,15.647256 C40.7974955,15.7372848 40.6896485,15.8256725 40.5808636,15.9124191 C40.5388971,15.9459454 40.4884903,15.9792373 40.4491027,16.0162805 C40.7562323,15.7272035 40.4814568,15.9893187 40.3984615,16.0505102 C39.942456,16.3869461 39.4688668,16.6992336 38.9826173,16.9899517 C38.4675305,17.2977847 37.9379077,17.5814693 37.3977347,17.8428812 C37.1407774,17.9671397 36.8814756,18.0867093 36.6198293,18.2011209 C36.5677813,18.2238626 36.5152645,18.2463698 36.4632166,18.2691114 C36.179532,18.3929011 36.7715185,18.1441495 36.484786,18.259499 C36.3401303,18.3174082 36.1961779,18.376724 36.0508189,18.4332265 C33.6237915,19.377357 31.062893,19.9369894 28.5676407,20.6658948 C25.9851728,21.4201207 23.37715,22.3436197 21.143075,23.8750477 C19.907523,24.7221159 18.8147511,25.7349403 17.7742615,26.807784 C16.806686,27.8056036 15.86912,28.837184 14.8171425,29.748726 C14.6891327,29.8596209 14.5597163,29.9688746 14.4281897,30.0757839 C14.4000557,30.0985255 14.3231561,30.1775352 14.2821273,30.19254 C14.3276107,30.157607 14.373094,30.1226739 14.4183428,30.0877408 C14.368405,30.1257218 14.3182327,30.1634682 14.2675914,30.2007458 C13.9998494,30.3979183 13.7234328,30.5833683 13.4392792,30.7559236 C13.1813841,30.9127707 12.91669,31.0588331 12.6461346,31.1927041 C12.5307851,31.2494411 12.3448662,31.3854221 12.2149808,31.3926901 C12.2689043,31.3699484 12.3225934,31.3472068 12.3765169,31.3244651 C12.3181389,31.348379 12.2597608,31.3715896 12.2009138,31.3943312 C12.112995,31.428092 12.0246073,31.4606806 11.9355163,31.491628 C11.6417503,31.5938483 11.3423576,31.6801259 11.0385102,31.7467097 C10.9672374,31.7621834 10.6308015,31.7821117 10.5853182,31.8306429 C10.6490886,31.7626523 10.8833043,31.7992266 10.6868351,31.8158725 C10.5653899,31.8259539 10.4446481,31.8386142 10.323203,31.8444754 C10.0338916,31.8587769 9.7509103,31.8409587 9.46277114,31.822906 C9.2580962,31.8100113 9.82757549,31.8901932 9.52208701,31.8315807 C9.44776633,31.8172792 9.3732112,31.8053223 9.29889052,31.7898485 C9.13477545,31.7553844 8.97230153,31.7131834 8.81240657,31.6625421 C8.72401888,31.6346426 8.63797569,31.6013507 8.55029136,31.57181 C8.44760221,31.5371113 8.34913317,31.4440347 8.6539183,31.6189344 C8.5411478,31.5542262 8.4133725,31.5087429 8.29708525,31.4484892 C8.03614229,31.3134459 7.78481179,31.1598811 7.54074924,30.9964694 C7.31497379,30.8452491 7.09529405,30.6855886 6.87866216,30.521708 C6.83575779,30.4893539 6.79285343,30.4530141 6.74830791,30.4225356 C7.08826055,30.6551101 6.84630805,30.4980285 6.77362852,30.4412916 C6.65523122,30.3486838 6.53730282,30.2556071 6.41913997,30.1625304 C5.41499021,29.3719647 4.41834284,28.5874947 3.18958988,28.177207 C2.62597185,27.9889436 2.00092789,27.9061827 1.40800359,27.9509627 C0.676050389,28.0062929 -0.0345678563,28.5581884 0.00130300856,29.3576632 C0.0334226719,30.0722671 0.622361316,30.8236797 1.40800359,30.7643638 C1.549377,30.7535791 1.69028151,30.7488901 1.83188937,30.7545169 C1.89472199,30.7570959 1.95708572,30.763426 2.0196839,30.7674117 C2.30360296,30.7854643 1.66519535,30.6947321 1.94067421,30.7592059 C2.21005738,30.822273 2.45834003,30.9083162 2.71998634,30.9941249 C2.28930151,30.8527515 2.67637862,30.9824024 2.79290032,31.043125 C2.90613971,31.1017375 3.01750351,31.1643357 3.12699171,31.2295128 C3.37433656,31.3769819 3.61277231,31.5389869 3.84605015,31.707791 C3.95460055,31.7863318 4.06174424,31.8662793 4.16841904,31.947399 C4.23922297,32.0010881 4.46874961,32.1877104 4.14075393,31.9253607 C4.18318939,31.9591215 4.22656266,31.992179 4.26923258,32.0257053 C4.5529172,32.247964 4.83566401,32.471395 5.12098978,32.6917781 C5.61755509,33.0753384 6.1197472,33.4549131 6.66742262,33.7641528 C7.9444723,34.4848524 9.41142656,34.7940921 10.8685339,34.6070009 C12.3837849,34.4124073 13.8165094,33.8607463 15.1017649,33.0336063 C17.6092087,31.4198863 19.352814,28.9579258 21.5990804,27.0422341 C21.7277935,26.932277 21.8590856,26.8258366 21.9903776,26.7189274 C22.260933,26.4987788 21.7491285,26.8966406 22.0182772,26.6961857 C22.0696218,26.6577359 22.1209663,26.6192861 22.1725454,26.5813052 C22.4679525,26.3646733 22.7713309,26.1590606 23.0815084,25.9642325 C23.6587245,25.6015382 24.2586823,25.2763559 24.8736449,24.98259 C25.1563917,24.8475467 25.4447654,24.6921063 25.7418136,24.5912928 C25.3493442,24.7246949 25.8416894,24.5526085 25.9359383,24.5150965 C26.1138859,24.4442925 26.2925369,24.3753642 26.4718912,24.3083115 C27.1337439,24.0609666 27.80474,23.8380046 28.4797219,23.6295785 C31.0689888,22.8296347 33.7349208,22.2648444 36.2848001,21.3392355 C38.7514495,20.444105 41.1004051,19.2094908 43.0826806,17.4738567 C44.9266307,15.8594333 46.4184366,13.6799852 46.8547483,11.2349052 C47.3555337,8.4280686 46.5649679,5.67163881 44.8098745,3.44787964 C43.1619248,1.35939817 40.6507298,0.0996977958 37.9962858,0.00568330674 C35.3826361,-0.0866900316 32.7188141,0.951689449 30.8488401,2.77641456 C30.3754854,3.23828125 29.9586331,3.76485617 29.5942976,4.3158139 C29.1875267,4.93101095 29.4526898,5.8990554 30.0990687,6.24064919 C30.8042946,6.6131904 31.589468,6.39233841 32.0236695,5.73587813" id="Fill-26" fill="#986A5D" fill-rule="nonzero" mask="url(#mask-4)"></path>
                </g>
                <path d="M104.60181,41.155478 C104.671442,41.0802196 104.742714,41.0068367 104.818676,40.9374394 C104.855954,40.9034442 104.895107,40.8717934 104.932853,40.8380326 C105.097672,40.6900946 104.844466,40.9139944 104.826179,40.9200901 C104.908705,40.8928939 104.999437,40.8021617 105.075399,40.7573818 C105.171524,40.7006448 105.272806,40.6560993 105.370337,40.6026447 C105.522261,40.5196494 105.073758,40.7111951 105.238576,40.6577405 C105.285232,40.6425012 105.33095,40.6228074 105.377605,40.6068648 C105.471385,40.5747451 105.566338,40.5466111 105.662228,40.5222283 C105.759056,40.4973766 105.856352,40.4788551 105.954353,40.4593957 C106.0132,40.4476732 106.192319,40.4197736 105.95318,40.4568167 C105.698568,40.4959699 105.931611,40.462678 105.99163,40.4582234 C106.194898,40.4427497 106.399104,40.4415775 106.602607,40.4533 C106.704124,40.4589268 106.809861,40.4816685 106.910909,40.4807307 C106.893794,40.4807307 106.541181,40.4183669 106.768129,40.4636158 C106.832134,40.4762761 106.896373,40.4863575 106.960378,40.4994867 C107.165991,40.5416877 107.369024,40.5963146 107.568541,40.6619606 C107.668886,40.6952525 107.766886,40.7337023 107.866059,40.7698076 C108.033456,40.8309991 107.588001,40.6439079 107.749303,40.7201042 C107.808853,40.7482382 107.869575,40.7747311 107.928891,40.8038029 C108.118561,40.8966451 108.303074,41.0000376 108.480552,41.1142148 C108.569175,41.1711862 108.654983,41.2316743 108.740792,41.2926313 C108.842074,41.3643731 108.816754,41.4222822 108.643261,41.2159662 C108.683352,41.263794 108.746419,41.3010715 108.793309,41.3418659 C108.960003,41.4872249 109.115209,41.6443065 109.262443,41.8091249 C109.345204,41.9017327 109.422573,41.9978572 109.502051,42.093044 C109.622324,42.2372308 109.34497,41.8740676 109.450707,42.0285702 C109.494315,42.0921062 109.54097,42.1532977 109.584578,42.2165992 C109.873889,42.6383749 110.103181,43.0868779 110.320517,43.5487446 C110.401402,43.7201277 110.218765,43.2924907 110.287928,43.469266 C110.31067,43.5271752 110.334584,43.584381 110.357091,43.6425247 C110.402105,43.7585775 110.44501,43.8755681 110.486273,43.993262 C110.574192,44.244827 110.65367,44.4994398 110.725412,44.7559282 C110.866317,45.2581203 110.979322,45.7678148 111.074743,46.2803227 C111.120929,46.5288398 111.162896,46.7782947 111.201815,47.0279841 C111.221274,47.1522426 111.239796,47.2767356 111.257614,47.4012286 C111.266757,47.4633579 111.275432,47.5254872 111.284107,47.5876165 C111.311537,47.7850234 111.286451,47.6996836 111.279887,47.554559 C111.305442,48.1151292 111.413992,48.6764027 111.447987,49.2383796 C111.481983,49.7994187 111.490188,50.3628023 111.453848,50.9240758 C111.444939,51.0586501 111.43392,51.1932245 111.420088,51.32733 C111.413289,51.3906315 111.395236,51.46589 111.396877,51.5277848 C111.395939,51.4888661 111.450566,51.2000236 111.404614,51.4525263 C111.353738,51.7324597 111.301221,52.0100486 111.226432,52.2848242 C111.155862,52.5434226 111.066537,52.7933464 110.972054,53.0437391 C110.90336,53.2266102 111.08459,52.8111646 110.994561,52.9851266 C110.963848,53.0449114 110.937589,53.1075095 110.907345,53.1677632 C110.846154,53.2908495 110.780742,53.4120602 110.711579,53.5309264 C110.593886,53.732788 110.415,53.9224581 110.31489,54.1306498 C110.327785,54.103688 110.523785,53.8741614 110.369986,54.058908 C110.33177,54.1048603 110.294493,54.1515158 110.255809,54.1972336 C110.168593,54.3001572 110.078564,54.4005018 109.985956,54.498502 C109.820669,54.6734017 109.647176,54.8405647 109.467353,55.0002252 C109.376855,55.0804071 109.284716,55.1587134 109.191171,55.2351442 C109.156941,55.2630437 109.116147,55.2893022 109.084965,55.3207185 C109.33442,55.0696224 109.16374,55.2604648 109.080276,55.3216563 C108.674677,55.6201112 108.24704,55.8878533 107.806274,56.1307436 C107.59269,56.248672 107.375824,56.3605046 107.156378,56.4671794 C107.066584,56.5107872 106.447636,56.8516776 106.402621,56.8099455 C106.404262,56.8113522 106.723114,56.6800601 106.449746,56.788845 C106.385272,56.8144 106.321033,56.8408929 106.256559,56.866448 C106.127377,56.9175581 105.99796,56.967027 105.86784,57.0153238 C105.592362,57.1177785 105.314304,57.213903 105.03437,57.3046352 C104.492087,57.4800039 103.943005,57.6335687 103.389234,57.7686119 C102.834291,57.9036552 102.274893,58.0194735 101.712681,58.1198182 C101.456427,58.1655359 101.19947,58.2079714 100.942044,58.2475935 C100.804422,58.268694 100.666565,58.2881533 100.528943,58.3083161 C100.270344,58.346297 100.551685,58.3036271 100.592479,58.3005792 C100.489321,58.3080816 100.383818,58.3277754 100.281129,58.3406702 C99.1332614,58.4836847 97.9792981,58.5762925 96.8248658,58.6461586 C92.630788,58.9003026 88.4348346,58.9410969 84.2742832,59.591227 C80.5001055,60.1811034 76.6197219,61.301306 73.6654163,63.8293814 C73.3486742,64.1001713 73.0495159,64.3897171 72.7665346,64.6956745 C72.266687,65.2358475 72.1918974,66.1574709 72.7665346,66.6849836 C73.3099899,67.1838934 74.2222352,67.2619653 74.7558437,66.6849836 C75.0566431,66.3600357 75.3757297,66.053375 75.7142757,65.7680493 C75.8043045,65.6920874 75.8964434,65.618939 75.9878789,65.5448528 C76.1247978,65.433489 75.747802,65.7253793 75.8896443,65.6203457 C75.9318454,65.5889294 75.9738119,65.5570442 76.0160129,65.5258623 C76.196774,65.3924602 76.3810517,65.2644504 76.5686118,65.1411297 C76.9606124,64.8837035 77.3664455,64.6480811 77.7821255,64.4312148 C77.975078,64.3306357 78.1701404,64.2340423 78.3670785,64.1414345 C78.4786768,64.0889177 78.5907439,64.0375731 78.7035144,63.9874008 C78.7539212,63.965128 78.8043279,63.9433241 78.8547347,63.9210514 C79.0830891,63.8209412 78.623098,64.0157692 78.7858064,63.9498887 C80.5995123,63.2148877 82.4964481,62.7335616 84.423159,62.4025181 C84.907064,62.3192883 85.3928446,62.2520011 85.8781563,62.1790872 C85.8556491,62.1826039 85.5196821,62.2257427 85.7606968,62.1950298 C85.8176682,62.1877618 85.8746395,62.1802594 85.9316109,62.1729915 C86.0450848,62.15869 86.1587931,62.144623 86.2725013,62.1307904 C86.5271142,62.1003119 86.781727,62.071709 87.0365742,62.0445128 C87.9708579,61.9455749 88.907486,61.8693786 89.8448175,61.8070149 C92.1520409,61.6536845 94.4641877,61.6009332 96.7721145,61.4628421 C99.224697,61.3158419 101.693925,61.0708416 104.086723,60.4936254 C106.32408,59.9539213 108.630835,59.1239679 110.50034,57.7510282 C111.4787,57.0324386 112.340304,56.2090499 112.999578,55.1812207 C113.709024,54.0750851 114.052493,52.8191359 114.210278,51.5277848 C114.353293,50.3585822 114.285771,49.1771881 114.14979,48.0107989 C114.013106,46.8380795 113.849694,45.6597333 113.569995,44.5113967 C113.022789,42.2658337 111.941505,40.0406678 109.966732,38.7279817 C108.191006,37.5479944 105.778046,37.2502428 103.850397,38.2215695 C103.389703,38.4536751 102.962535,38.7882354 102.612501,39.166169 C102.112184,39.7058731 102.038098,40.6281998 102.612501,41.155478 C103.156425,41.6548567 104.067498,41.7319908 104.60181,41.155478" id="Fill-29" fill="#986A5D" fill-rule="nonzero"></path>
                <g id="Group-33" transform="translate(72.409795, 45.465719)">
                    <mask id="mask-6" fill="white">
                        <use xlink:href="#path-5"></use>
                    </mask>
                    <g id="Clip-32" fill-rule="nonzero"></g>
                    <path d="M40.4436741,2.75298975 C40.6661673,2.80714772 40.8820958,2.87607605 41.0968521,2.95532018 C41.3280199,3.04066001 40.8021483,2.81769797 41.111388,2.96563598 C41.2262685,3.02049731 41.339039,3.07957873 41.4496995,3.14241136 C41.635384,3.24814835 41.8081737,3.36935905 41.9842457,3.48963195 C42.1340593,3.59208664 41.7636282,3.30887093 41.9028915,3.42539262 C41.9357145,3.45282329 41.9694753,3.4790817 42.0022984,3.50651236 C42.1012363,3.58903879 42.1973608,3.67461308 42.2909064,3.76300076 C42.447988,3.91093878 42.5978016,4.06661364 42.7401128,4.22908756 C42.7893473,4.28535558 42.8971944,4.47408791 42.962606,4.49542287 C42.9433811,4.48909272 42.7593377,4.2180684 42.9016489,4.41781989 C42.9436155,4.47690131 42.9869888,4.53504493 43.0284864,4.59459526 C43.2861471,4.96408861 43.5119225,5.35562028 43.7044061,5.76262564 C43.7292578,5.81490802 43.7522339,5.86789374 43.7770856,5.92017611 C43.8692245,6.11406634 43.733009,5.82311377 43.737698,5.82264487 C43.7569229,5.82030037 43.8708656,6.16564536 43.8842293,6.20221958 C43.9810572,6.46925824 44.0666315,6.740517 44.1423588,7.01435471 C44.2895935,7.54561863 44.3990817,8.08672946 44.4837182,8.63112258 C44.4945029,8.70169206 44.5041153,8.77249599 44.5151345,8.84283102 C44.5472542,9.04609926 44.4841871,8.58282586 44.508101,8.7875008 C44.5226369,8.91175935 44.5385795,9.03578345 44.5524121,9.16027645 C44.5859384,9.46295153 44.613838,9.76609551 44.6382208,10.0697084 C44.6825319,10.6199628 44.7165271,11.1713894 44.747709,11.7225816 C44.7629483,11.9896202 44.775843,12.2571278 44.7713885,12.5246354 C44.7692784,12.641157 44.7641205,12.7574443 44.7545081,12.8734971 C44.7500535,12.9271862 44.7366898,13.1466315 44.7507569,12.9321096 C44.7657617,12.7053964 44.7301252,13.0019757 44.7223884,13.0352677 C44.6958955,13.1466315 44.6079767,13.2978518 44.6051633,13.4092156 C44.6056322,13.3871773 44.7244984,13.1836746 44.6450199,13.2941006 C44.6100868,13.3428662 44.5861729,13.4017132 44.5542877,13.4530577 C44.3744644,13.7416658 44.6942544,13.3191867 44.5313116,13.4973688 C44.4281535,13.6101393 44.3238232,13.7196275 44.2089427,13.8206755 C44.1744785,13.851154 44.1376698,13.879288 44.1034401,13.910001 C43.9644112,14.0342595 44.3238232,13.7559673 44.1676795,13.8595942 C44.0771817,13.9196134 43.9897318,13.9845561 43.8982963,14.0434031 C43.6772099,14.1857143 43.4476832,14.3148963 43.2167499,14.4398582 C42.8041177,14.6632891 42.3839831,14.8728875 41.9572839,15.0681845 C41.8480302,15.1181223 41.7383076,15.1673568 41.6283505,15.2154191 C41.5737236,15.239333 41.5167522,15.2609024 41.4632976,15.2869264 C41.489556,15.2742661 41.7746473,15.1582133 41.5509819,15.2494144 C41.3298955,15.3396777 41.1083401,15.4282998 40.8846747,15.5122329 C40.439454,15.6796303 39.9890754,15.8327262 39.5344766,15.972224 C38.6552888,16.2420761 37.7606272,16.460818 36.8575254,16.6357178 C36.3897975,16.72645 35.9194906,16.8054597 35.447777,16.8736847 C35.3415711,16.8891584 34.9486327,16.9320627 35.3776764,16.8847038 C35.2735806,16.8961919 35.1697192,16.9114311 35.0658578,16.9240914 C34.8126517,16.9548044 34.5592111,16.9829384 34.3055361,17.0080246 C33.3719558,17.1011012 32.4350932,17.1585415 31.4977618,17.1894889 C29.5546393,17.2534938 27.6094069,17.2054315 25.6679256,17.1179817 C21.721896,16.940034 17.7796177,16.5930479 13.8265546,16.6251676 C9.92530495,16.6568183 5.94363895,17.0612447 2.25855232,18.408395 C1.72986735,18.6015819 1.21056038,18.817276 0.693597918,19.0397691 C0.392798444,19.1691856 0.129745434,19.580411 0.0472190002,19.8802727 C-0.0453887882,20.2171775 -0.00365667092,20.6654461 0.189061309,20.96437 C0.382717089,21.2647005 0.671090709,21.5291602 1.02979936,21.6107489 C1.42344107,21.7005433 1.74651331,21.6269259 2.11366216,21.4689066 C2.337562,21.372782 2.05903529,21.4923516 2.03043237,21.5033707 C2.0871693,21.4818013 2.14296842,21.4564807 2.19923644,21.4335046 C2.31177249,21.3875524 2.42477744,21.3423035 2.53825128,21.2979924 C2.77809373,21.2044469 3.01981178,21.1148869 3.26293653,21.0290782 C3.71823862,20.8687143 4.17869861,20.7219486 4.64290981,20.5887809 C5.58422695,20.3186944 6.54054889,20.1037036 7.5050766,19.9348996 C7.74280899,19.8934019 7.98124474,19.8544832 8.22014939,19.8183779 C8.32471414,19.8026697 8.42951333,19.7874305 8.53431252,19.7726601 C8.5898772,19.7646888 8.79431768,19.7363203 8.57229344,19.7667989 C8.33268544,19.7996219 8.60324085,19.7632821 8.65552322,19.7567175 C9.13755262,19.6959949 9.62075427,19.6453537 10.1048937,19.6036216 C11.1118569,19.5168751 12.1221024,19.4688128 13.1325823,19.4481812 C17.1606694,19.3670614 21.1803163,19.7156887 25.2004321,19.909579 C29.2538399,20.1048759 33.3363194,20.1355889 37.3426027,19.3984778 C39.3269883,19.0332045 41.2431489,18.4393424 43.0894435,17.6267384 C43.9869184,17.2314555 44.914403,16.7991295 45.6995764,16.2057363 C46.2329504,15.8024822 46.7283434,15.3514002 47.0530568,14.7549591 C47.4044975,14.1097525 47.5491532,13.4038232 47.5801006,12.6746834 C47.6281629,11.5504952 47.4964019,10.384106 47.3775357,9.26695125 C47.2476504,8.04734184 47.0638415,6.82069893 46.6676208,5.65548195 C45.973883,3.6143594 44.6675271,1.66256234 42.7208879,0.631450815 C42.2397963,0.376603559 41.7214271,0.168880773 41.1915699,0.0401676694 C40.4779038,-0.133325403 39.6334146,0.266412013 39.4610938,1.02251358 C39.2960409,1.74719883 39.6788979,2.56707082 40.4436741,2.75298975" id="Fill-31" fill="#986A5D" fill-rule="nonzero" mask="url(#mask-6)"></path>
                </g>
            </g>
        </g>
    </g>
</svg>