<?xml version="1.0" encoding="UTF-8"?>
<svg width="119px" height="120px" viewBox="0 0 119 120" version="1.1" xmlns="http://www.w3.org/2000/svg" xmlns:xlink="http://www.w3.org/1999/xlink">
    <title>Raw Food@2x</title>
    <defs>
        <polygon id="path-1" points="2.67977616e-15 0 118.181024 0 118.181024 119.889694 2.67977616e-15 119.889694"></polygon>
        <polygon id="path-3" points="3.33020727e-15 0 88.0919419 0 88.0919419 57.9868154 3.33020727e-15 57.9868154"></polygon>
    </defs>
    <g id="Tucker-Tub---UI" stroke="none" stroke-width="1" fill="none" fill-rule="evenodd">
        <g id="Home---Menu-Expanded" transform="translate(-544.000000, -154.000000)">
            <g id="Raw-Food" transform="translate(544.000000, 154.000000)">
                <path d="M87.5832749,90.7199588 C90.2278301,89.4355275 92.6612426,87.5992196 95.7337072,87.3658145 C99.5649728,86.5423349 111.202187,82.2044209 102.437543,79.0527485 C98.9816943,77.1334834 98.4816074,72.3833609 96.0467888,69.2687147 C94.2507878,66.0169781 86.1106666,64.130521 89.0570549,59.8725177 C95.7259739,56.0478137 94.1125257,45.5502069 89.7600824,40.3290559 C87.2169976,37.1309838 83.6875651,34.964253 80.2096881,32.7408113 L69.100213,21.7602247 C64.1213722,7.61413945 50.8222008,6.30791433 38.2471477,2.61819162 C31.567449,-0.10205616 24.8345545,2.04733328 19.1538579,6.13215745 C14.4613836,9.07409324 9.63697451,12.1397619 6.48038099,16.691162 C4.13086305,20.5791384 1.7911875,25.1080417 1.36257506,29.6723306 C6.61653398,41.7939309 19.1262055,49.9443632 31.7666401,53.0969729 C29.30206,55.7708208 29.9010395,60.3025362 28.2372077,63.4225723 C52.3053545,74.1936567 83.5853918,88.4353537 99.3990583,110.643993 C103.385927,116.405772 107.26453,120.419825 114.305585,117.512337 C115.286308,115.218827 118.001166,114.213732 116.165796,111.038626 C108.183387,102.607217 97.4326903,96.8098174 87.5832749,90.7199588" id="Fill-1" fill="#FFF7F0" fill-rule="nonzero"></path>
                <path d="M87.5832749,90.7199588 C90.2278301,89.4355275 92.6612426,87.5992196 95.7337072,87.3658145 C99.5649728,86.5423349 111.202187,82.2044209 102.437543,79.0527485 C98.9816943,77.1334834 98.4816074,72.3833609 96.0467888,69.2687147 C94.2507878,66.0169781 86.1106666,64.130521 89.0570549,59.8725177 C95.7259739,56.0478137 94.1125257,45.5502069 89.7600824,40.3290559 C87.2169976,37.1309838 83.6875651,34.964253 80.2096881,32.7408113 L69.100213,21.7602247 C64.1213722,7.61413945 50.8222008,6.30791433 38.2471477,2.61819162 C31.567449,-0.10205616 24.8345545,2.04733328 19.1538579,6.13215745 C14.4613836,9.07409324 9.63697451,12.1397619 6.48038099,16.691162 C4.13086305,20.5791384 1.7911875,25.1080417 1.36257506,29.6723306 C6.61653398,41.7939309 19.1262055,49.9443632 31.7666401,53.0969729 C29.30206,55.7708208 29.9010395,60.3025362 28.2372077,63.4225723 C52.3053545,74.1936567 68.9118016,72.9811686 84.7252338,95.1898077 C88.7123371,100.951587 97.4326903,96.8098174 87.5832749,90.7199588" id="Fill-3" fill="#CD7991" fill-rule="nonzero"></path>
                <path d="M58.2304,9.12330517 C57.5353402,8.45683509 56.6692103,7.9921339 55.7480099,7.92370589 C55.5371016,7.90519283 55.325256,7.90917666 55.1122387,7.93518868 L55.7477755,7.92370589 C56.5996105,8.29185797 57.4263709,8.69070891 58.2304,9.12330517 C58.2304,9.12330517 58.2332121,9.12119608 58.2325091,9.12611728 C62.9800539,11.6750607 66.8708425,15.430868 69.1001427,21.7602247 L80.2068056,32.7396396 L81.1748745,33.6927106 C78.486966,33.1019331 75.8037443,32.5118587 73.120757,31.9217843 C71.6647871,31.6023755 70.1933505,31.2731242 68.8756426,30.5829856 C66.3180285,29.2446555 64.6291221,26.6865728 63.3882785,24.077169 C62.1270472,21.4225371 61.2128771,18.6015221 60.6755297,15.7080952 C60.3565896,13.9650556 60.1595075,12.1594466 59.338137,10.5931013 C59.0576291,10.0541136 58.6775255,9.54933984 58.2325091,9.12611728" id="Fill-5" fill="#FFF7F0" fill-rule="nonzero"></path>
                <path d="M89.1600953,59.6617266 C86.9556354,64.3598251 83.4353423,68.7019573 78.5973413,70.5792751 C73.7593404,72.4565929 67.5237207,71.2255918 64.7003622,66.8715081 C64.3401778,66.3161163 64.030377,65.6761269 64.1086474,65.0187962 C64.1857461,64.3720109 64.6223261,63.8320858 65.0546881,63.3448877 C66.6102536,61.5927088 68.3500123,60.0043353 70.2360008,58.6142156 C66.5033934,60.454976 62.1429825,61.3536795 58.13596,60.2288355 C54.1289375,59.1037571 50.6463736,55.6474395 50.2948598,51.5000459 C50.2222137,50.6423523 50.2341651,49.6674875 49.6065959,49.0778818 C48.8850553,48.4001633 47.7349023,48.6113059 46.7783162,48.8662705 C42.3658812,50.0426699 37.9536806,51.2190692 33.5412456,52.3954686 C32.7791638,52.5988779 31.9800558,52.8224406 31.4188055,53.3766607 C30.8313089,53.9566584 30.604231,54.7988853 30.4008217,55.5989306 C29.7622384,58.1082701 29.1236551,60.6176097 28.4850717,63.1269492 L28.2371374,63.4226894 C33.1627825,65.626915 43.7255364,70.5101441 43.7255364,70.5101441 C40.7022838,66.9753218 36.917418,63.1794419 38.1969281,60.3764712 C41.0624682,54.0984356 51.4424351,59.969184 65.7703701,71.2651956 C68.8747052,73.7126688 80.0251902,79.3078304 89.057219,59.8726348 L89.1600953,59.6617266 Z" id="Fill-7" fill="#FFF7F0" fill-rule="nonzero"></path>
                <path d="M17.641177,46.9569181 C14.7163483,43.222436 12.5203247,40.3247909 11.3061962,38.7664133 C11.0198296,38.3987299 10.3732787,37.5909513 10.3414081,36.4717315 C10.3210203,35.7649545 10.5998879,35.0858299 10.8996119,34.4470122 C12.0099267,32.089761 13.4965955,29.9134222 15.2841602,28.0208721 C19.0765249,24.0091628 24.0731757,21.4051489 29.172703,19.2377151 C25.2783992,19.8805166 21.3566774,20.5863562 17.7370231,22.1498894 C13.8856041,23.8134868 10.3456262,26.5728698 8.60493012,30.3891374 C7.32424834,33.1965606 7.05170801,37.8327927 9.40872491,41.0568769 C9.73797613,41.5070488 10.0597284,41.8463768 10.2945396,42.0739233 C12.7434187,43.7016664 15.1922979,45.3291751 17.641177,46.9569181" id="Fill-9" fill="#FFF7F0" fill-rule="nonzero"></path>
                <g id="Group-13">
                    <mask id="mask-2" fill="white">
                        <use xlink:href="#path-1"></use>
                    </mask>
                    <g id="Clip-12" fill-rule="nonzero"></g>
                    <path d="M88.2929343,91.9340404 C90.483568,90.8586426 92.5352367,89.3907212 94.9602129,88.8847757 C95.729325,88.7244855 96.4890634,88.6478555 97.2495048,88.4346038 C97.9295667,88.243849 98.6023641,88.0268478 99.2678968,87.7901619 C100.80659,87.2427378 102.342705,86.6088414 103.753915,85.7811436 C104.896569,85.1106897 106.160378,84.2337801 106.72655,82.9882497 C107.460511,81.3738642 106.699601,79.8897731 105.342523,78.9198295 C104.618639,78.4024012 103.577455,78.0858045 102.948949,77.722808 C102.236548,77.3115369 101.632881,76.6230386 101.174507,75.9216515 C100.045445,74.1929068 99.3923327,72.2091976 98.4263729,70.3932775 C97.6181256,68.8738007 96.6132649,67.45017 95.2500946,66.3860207 C94.468328,65.7757928 93.6471918,65.2255566 92.8251183,64.6720396 C92.4379845,64.4114508 92.0515537,64.1492215 91.6742623,63.8743377 C91.6102868,63.8279379 91.5472487,63.7798977 91.4832732,63.7337322 C91.215654,63.5411027 91.6278625,63.8584024 91.3982068,63.6697567 C91.2240904,63.5268078 91.0492708,63.3864366 90.881716,63.2357544 C90.7357206,63.104757 90.5939434,62.969307 90.4584934,62.8272954 C90.3828008,62.7478533 90.0338648,62.2988531 90.2539124,62.6131064 C90.1531451,62.4692201 90.0601111,62.3260368 89.9708266,62.1746516 C89.9319258,62.1088013 89.9031017,62.0377955 89.8677159,61.9700706 C90.0392547,62.2979157 89.9054451,62.0715409 89.8817765,61.9705392 C89.8724028,61.929998 89.8555301,61.7844713 89.8269404,61.7554128 C89.8056152,61.6466779 89.810302,61.6982333 89.8414696,61.9100789 C89.8346737,61.8507902 89.8304555,61.7912672 89.8283464,61.7315099 C89.8302211,61.6780798 89.835611,61.5995751 89.8288151,61.5501288 C89.792492,61.2839157 89.7416397,61.7982975 89.8236596,61.5515348 C89.8538897,61.4603756 89.8733402,61.3570306 89.8972431,61.2635279 C89.9185683,61.1796333 90.0603455,60.9087334 89.9101319,61.2035362 C90.0195699,60.9886442 90.1360381,60.7828914 90.2712537,60.5822943 C90.1029958,60.7503178 89.9349722,60.9185757 89.7667143,61.0865993 C93.4719036,58.9226806 95.0729316,54.7771618 94.9475584,50.6243783 C94.8214821,46.4542534 93.2710721,42.3998938 90.6323755,39.1833086 C88.8724633,37.0381373 86.6607388,35.3232189 84.3758994,33.7716371 C83.8085562,33.3861437 83.234417,33.0104927 82.6577001,32.6388255 C82.3549296,32.4436182 82.0514561,32.2493482 81.7477482,32.055547 C81.6373729,31.9850099 81.5267632,31.9144728 81.4163879,31.84417 C81.3706911,31.8148772 80.8602931,31.451412 81.2005585,31.7434028 C81.0634681,31.6257628 80.9404383,31.486329 80.8120186,31.3593154 C78.9279049,29.4969955 77.0437911,27.6346757 75.1596774,25.7723558 C73.4712397,24.1036028 71.7828019,22.4348499 70.0943642,20.7660969 L70.4559547,21.3866358 C69.1199681,17.6287195 67.0383036,14.1705271 64.0607478,11.4847277 C61.3168314,9.00960218 58.0559555,7.2850757 54.6315085,5.95143252 C51.1728475,4.60466615 47.5693628,3.67526378 43.9857972,2.73086349 C42.138944,2.24413411 40.2208506,1.83965895 38.4262557,1.18443731 C36.0675984,0.322994272 33.596691,-0.123193854 31.0793839,0.0295974582 C28.5920725,0.180748373 26.2050598,0.823549859 23.9197517,1.7974773 C21.6306941,2.77304514 19.6453444,4.15941539 17.5531346,5.47782632 C13.5744676,7.9852911 9.52315435,10.6542179 6.51724306,14.3305831 C4.90613835,16.3014035 3.68005838,18.5838995 2.59130311,20.8781126 C1.47442674,23.2311457 0.528151707,25.7074429 0.131409849,28.2927094 C0.00650529477,29.107284 -0.121914397,29.7664894 0.21764789,30.540757 C0.448709598,31.067559 0.695472254,31.5877993 0.954889406,32.1012438 C1.42052796,33.0219755 1.92975422,33.920679 2.47905305,34.7940735 C3.63998581,36.639755 4.97526939,38.3842006 6.43287976,40.0051477 C12.2602748,46.4849523 20.1475404,51.0314312 28.4179561,53.6171664 C29.4012572,53.9246237 30.3934634,54.2018509 31.3926998,54.4528317 C31.1860097,53.6694247 30.9790853,52.8860178 30.7723952,52.1026108 C29.4155521,53.6171664 28.7938414,55.5137002 28.3949905,57.4732723 C28.2063448,58.3993938 28.0533191,59.33278 27.8440513,60.2546834 C27.642751,61.1407324 27.3814592,62.0227976 27.0231495,62.7129363 C26.7023346,63.3308975 26.8063827,64.3139643 27.5274545,64.6366539 C36.2592906,68.5445495 44.9749569,72.4995479 53.4752626,76.8941729 C62.3760595,81.4957223 71.0816492,86.5612698 79.1240495,92.5564541 C82.9621111,95.4175417 86.6778458,98.5523414 90.099715,101.946558 C91.7621407,103.595626 93.3594192,105.311014 94.8718658,107.098812 C96.3679083,108.86763 97.6171882,110.598249 98.9885605,112.490565 C101.573124,116.057023 104.815253,119.668476 109.530927,119.880556 C110.681548,119.932345 111.86076,119.760338 112.9692,119.457567 C113.551541,119.298449 114.121228,119.097383 114.679432,118.868196 C115.45323,118.549959 115.608834,117.926608 116.038384,117.292243 C116.099547,117.202021 116.164226,117.114377 116.227264,117.025327 C116.263118,116.974709 116.436297,116.749037 116.2821,116.948462 C116.41216,116.780439 116.546438,116.615462 116.677904,116.448375 C117.002234,116.035933 117.339688,115.621381 117.596058,115.161601 C118.155903,114.15838 118.326738,113.043379 118.053026,111.923222 C117.895548,111.278545 117.593481,110.550209 117.160181,110.044498 C116.699464,109.506682 116.163991,109.013625 115.658046,108.519162 C114.658341,107.542423 113.623016,106.602475 112.560272,105.694867 C110.403618,103.853403 108.137995,102.137547 105.815426,100.511445 C101.281836,97.3370412 96.5221057,94.5066524 91.7907305,91.6418153 C90.6220645,90.9343353 89.4552731,90.2238088 88.2929343,89.5057834 C86.7490859,88.5520094 85.3350632,90.9835472 86.8735218,91.9340404 C91.8455667,95.0055676 96.9101769,97.930162 101.782626,101.160573 C104.171982,102.744729 106.521735,104.397078 108.761346,106.188158 C109.906109,107.103499 111.025095,108.051649 112.109632,109.037997 C112.590268,109.475045 113.063874,109.919593 113.529982,110.371874 C114.019523,110.846652 114.666777,111.353301 115.047349,111.919472 C115.220997,112.177483 115.236229,112.369175 115.341449,112.670774 C115.466354,113.029084 115.366992,112.491033 115.3766,112.842782 C115.380116,112.971201 115.379647,113.093997 115.373554,113.222416 C115.389021,112.897618 115.360431,113.252647 115.342152,113.321075 C115.321764,113.396767 115.298564,113.471523 115.272084,113.545106 C115.334887,113.408953 115.344964,113.387159 115.30208,113.479959 C115.193579,113.714536 115.059066,113.935755 114.91354,114.149007 C114.867609,114.216263 114.820037,114.282582 114.771997,114.348432 C114.723254,114.414985 114.673807,114.48107 114.623424,114.546452 C114.71552,114.426703 114.711302,114.430921 114.611238,114.559106 C114.401736,114.818289 114.196686,115.081924 113.994448,115.346731 C113.644809,115.804402 113.326572,116.274728 113.091527,116.802701 C113.371566,116.587106 113.651605,116.371745 113.931645,116.156385 C113.115664,116.487979 112.278593,116.765441 111.4134,116.936276 C110.970493,117.023921 110.948699,117.028607 110.479076,117.058603 C110.116314,117.081569 109.751912,117.083444 109.388915,117.060947 C109.330564,117.057197 108.820869,117.003533 109.066929,117.038215 C108.908279,117.015719 108.750332,116.985957 108.593557,116.952915 C108.262196,116.883315 107.935054,116.792156 107.614942,116.681077 C107.561747,116.662799 107.10595,116.482589 107.323655,116.576561 C107.178831,116.513991 107.036351,116.445329 106.895511,116.374323 C106.590163,116.22036 106.293485,116.049056 106.006181,115.863925 C105.850109,115.763392 105.696849,115.658641 105.546167,115.550375 C105.469771,115.495539 105.393844,115.440234 105.319323,115.383289 C105.344632,115.402505 105.449149,115.485228 105.323776,115.384695 C105.021005,115.142385 104.729483,114.886248 104.447335,114.620269 C103.887959,114.093468 103.366782,113.527296 102.870444,112.940971 C101.846602,111.731061 100.966646,110.399761 99.9896717,109.074085 C95.9399989,103.577348 91.1240261,98.7020862 85.8878772,94.3337076 C80.4234787,89.7750429 74.5445283,85.7291196 68.4652151,82.0382252 C62.3488758,78.3248339 56.0246747,74.9629563 49.6090799,71.7986295 C43.5128941,68.7915465 37.3288297,65.9677193 31.1274241,63.1853708 C30.400728,62.8594004 29.6737975,62.5338986 28.9468671,62.2086312 C29.1148907,62.8497923 29.2831486,63.4911877 29.4511721,64.1323488 C30.3339404,62.4324283 30.6505371,60.5724519 31.0095498,58.7124754 C31.1808542,57.824083 31.3673908,56.9342845 31.6577412,56.0758879 C31.8820069,55.4134017 32.2974962,54.6084352 32.7607913,54.0912413 C33.442728,53.3300968 33.2154158,52.0109829 32.1402524,51.7410203 C22.4335515,49.3033896 13.1346067,44.1206708 6.86805379,36.1745852 C5.17094538,34.022618 3.69388458,31.5210117 2.57653953,28.9626946 C2.64051503,29.1993806 2.70449054,29.4358321 2.76846604,29.6725181 C3.20129664,25.3474928 5.33850027,21.2169719 7.59076607,17.5727116 C8.64882247,15.861074 10.179782,14.3858879 11.6882447,13.0731012 C13.1887398,11.7675791 14.8108586,10.6148483 16.4676601,9.51742239 C17.3487879,8.93390956 18.2404611,8.3668007 19.1347121,7.80391 C20.0638802,7.21922546 20.9515696,6.57290883 21.8901113,6.0020505 C23.6460397,4.93368302 25.5053131,4.05466429 27.4836325,3.48708675 C29.472966,2.91622841 31.5185417,2.6900879 33.5830992,2.87873361 C35.5696206,3.06011471 37.385775,3.84633381 39.2869957,4.37875998 C42.4834274,5.273714 45.7124328,6.05126242 48.8971474,6.98956981 C50.4391211,7.44395992 51.971018,7.9367822 53.4747939,8.50600014 C54.8705378,9.03444249 56.1102097,9.5748363 57.5389959,10.3439484 C60.301191,11.8310859 62.5297882,13.5502225 64.4987339,16.0658893 C64.5163096,16.0881518 64.6142648,16.2175089 64.7302643,16.3761588 C64.8493103,16.5390268 64.9657785,16.7033009 65.0799033,16.8694497 C65.327369,17.2289311 65.5633519,17.5961458 65.788555,17.9696878 C66.231228,18.7045859 66.6305477,19.4657303 66.9883887,20.2453878 C67.3926295,21.1255783 67.5953357,22.2497193 68.3372641,22.9832113 C71.2794342,25.8911674 74.22137,28.7991236 77.1635402,31.7070797 C77.7058087,32.243021 78.2480773,32.7789623 78.7903458,33.3149036 C79.3991676,33.9166951 80.1003204,34.3366369 80.8253761,34.8013381 C82.5281087,35.8929055 84.2345909,37.0001738 85.7850009,38.3038211 C86.597232,38.9866952 87.3700935,39.7176095 88.0778079,40.5087498 C88.3845622,40.8518272 88.677256,41.2073248 88.9640913,41.5672749 C89.0634525,41.6921794 88.9530772,41.5532143 88.9385479,41.5337639 C88.9898689,41.6019575 89.0409556,41.6706199 89.0911049,41.7397509 C89.2181185,41.9145704 89.3413827,42.0924364 89.4604287,42.2728801 C89.8543584,42.8692818 90.2058722,43.4933359 90.5182507,44.135903 C90.5983959,44.3006458 90.6757289,44.466326 90.7507185,44.6334122 C90.7884476,44.7173068 90.8257081,44.8016701 90.8617968,44.8862677 C90.8376596,44.8295568 90.7748558,44.6720787 90.8798412,44.9343079 C91.0272427,45.3015226 91.1638643,45.6729555 91.2880659,46.0488409 C91.5238144,46.7612421 91.716444,47.4881725 91.8631424,48.2242423 C92.0253074,49.0367078 92.0740506,49.3795509 92.1211535,50.2784887 C92.1593513,51.0084656 92.1476342,51.7417233 92.0754567,52.4693568 C92.0665517,52.5588756 92.0564749,52.6483945 92.0461639,52.737679 C92.074988,52.4878698 92.0499133,52.7165881 92.04218,52.7634566 C92.0135902,52.9392135 91.9850005,53.114736 91.9503178,53.2895555 C91.8779059,53.6563016 91.7881528,54.0197668 91.6794178,54.3776078 C91.5847435,54.689049 91.4781176,54.9981467 91.351807,55.2981051 C91.4483561,55.0686838 91.2653346,55.473862 91.2269025,55.5514294 C91.1411331,55.7246085 91.0499739,55.8952098 90.9531904,56.0627647 C90.8671867,56.2115722 90.7771992,56.3578019 90.6827592,56.5012196 C90.6372967,56.5701163 90.4092815,56.8951493 90.45615,56.8323455 C90.5018468,56.7714165 90.2525063,57.0788738 90.1969672,57.1423806 C90.0671414,57.2897821 89.9323945,57.432731 89.792492,57.5705244 C89.6666501,57.6944916 89.5368243,57.8142406 89.4032491,57.9300058 C89.3357585,57.9883571 89.2673305,58.0455367 89.1979651,58.1017789 C89.2445992,58.0640497 89.3868451,57.9642198 89.1611733,58.1296656 C88.8136434,58.3848646 88.3667522,58.574682 88.06281,58.8783899 C87.5514746,59.3899596 87.2065225,60.2439037 87.0886482,60.9448221 C86.8468067,62.3813416 87.4094631,63.6493689 88.3641744,64.7025041 C89.2558477,65.686274 90.413031,66.4333579 91.5081135,67.168959 C92.066083,67.543907 92.6268646,67.9148712 93.1696018,68.311613 C93.2401389,68.3634027 93.5881375,68.6319592 93.353092,68.4458913 C93.4576088,68.5286142 93.5614225,68.6118058 93.6633615,68.6973408 C93.8993444,68.8951259 94.1280627,69.1020503 94.3408456,69.3246757 C94.43552,69.4235682 94.5215237,69.5290223 94.6138547,69.6297896 C94.7668803,69.7964071 94.4934026,69.4200531 94.6865008,69.7371185 C94.8695223,70.0375456 95.0886326,70.3117263 95.2838399,70.6046544 C95.762836,71.3229142 96.1581718,72.0929637 96.5260895,72.8728555 C97.2452866,74.3967848 97.8524681,75.9928916 98.7874946,77.4038678 C99.2744584,78.1385316 99.835943,78.8413247 100.513427,79.409371 C100.849709,79.691285 101.209893,79.9757768 101.594918,80.1904345 C102.014625,80.424777 102.537443,80.576631 102.810452,80.7088001 C103.114863,80.8562016 103.414587,81.0094616 103.69861,81.1941235 C103.759774,81.2337274 103.81836,81.2780181 103.879757,81.3171533 C104.047781,81.4242478 103.697673,81.1563943 103.83781,81.2829393 C103.939983,81.3752702 104.039813,81.4676012 104.138237,81.5639159 C104.383125,81.8036483 104.058092,81.4706476 104.165421,81.5936774 C104.309073,81.7584202 104.207368,81.9083994 104.184871,81.574227 C104.188152,81.6206268 104.227287,81.762404 104.249081,81.7963837 C104.191667,81.7061618 104.245332,81.4650234 104.224241,81.7717777 C104.212524,81.9426134 104.317743,81.4043287 104.221194,81.7150669 C104.125817,82.0225242 104.34938,81.5503241 104.242519,81.6951477 C104.188855,81.7675596 104.145502,81.8666865 104.100977,81.9461286 C103.935999,82.2416345 104.263142,81.7991958 104.065122,82.0040112 C103.915377,82.1591459 103.775475,82.3187331 103.61495,82.4635568 C103.522854,82.5469827 103.425836,82.6238471 103.33163,82.7044609 C103.146968,82.8621734 103.35483,82.6847761 103.385763,82.6629823 C103.303743,82.7210992 103.223833,82.7815596 103.141344,82.8392078 C102.150544,83.5309869 101.048665,84.0662252 99.9390537,84.537488 C100.213469,84.4210197 99.8052441,84.5909181 99.7241616,84.6232573 C99.5779319,84.6820773 99.4309992,84.7397255 99.2835977,84.7962021 C98.9770777,84.9140764 98.6689173,85.0270295 98.3588822,85.13553 C97.8067713,85.3286283 97.2492705,85.508369 96.6870828,85.6702996 C96.4651604,85.7342751 96.2425351,85.7954385 96.0189723,85.8530868 C95.9111748,85.8807392 95.8031429,85.9079229 95.6946423,85.9337006 C95.6241052,85.9505733 95.3016499,86.0161892 95.5383358,85.9768196 C94.4559078,86.1572633 93.4395644,86.3161476 92.4108008,86.7206227 C90.4784125,87.4803611 88.7316235,88.5939567 86.8735218,89.5057834 C86.1920538,89.8404245 86.0057515,90.808259 86.3692167,91.429501 C86.775801,92.1247952 87.6088886,92.2698532 88.2929343,91.9340404" id="Fill-11" fill="#986A5D" fill-rule="nonzero" mask="url(#mask-2)"></path>
                </g>
                <path d="M79.1213546,89.9697815 C79.369992,89.8732324 79.6226132,89.7886348 79.8808587,89.7216128 C80.009747,89.6881018 80.1398071,89.6583403 80.2705702,89.6325627 C80.3359518,89.6196738 80.4015677,89.6088941 80.4671836,89.5967083 C80.7338654,89.5474963 80.2590875,89.6140496 80.4397655,89.598583 C80.706213,89.5760861 80.9700826,89.5538236 81.2379361,89.554761 C81.371277,89.5552296 81.5043835,89.5594478 81.6374901,89.5676498 C81.7040433,89.571868 81.7705966,89.5767892 81.8369155,89.5828821 C82.0417309,89.6013951 81.9608827,89.6131122 81.8106692,89.5728053 C82.0661025,89.6414677 82.3365337,89.6634959 82.5938418,89.7316896 C82.7227302,89.7656692 82.8504469,89.803867 82.9769918,89.84558 C83.0402643,89.8664365 83.1030681,89.8884647 83.1656375,89.9111959 C83.2080535,89.9266625 83.4810625,90.0269611 83.2767159,89.9503311 C83.0817429,89.8769819 83.4590343,90.0370378 83.5047311,90.0595347 C83.6146378,90.1136678 83.7233727,90.1694413 83.8316389,90.2266209 C84.0683248,90.3517598 84.3019643,90.4825229 84.5356038,90.613286 C85.5795997,91.1970332 86.6350783,91.7578148 87.8374897,91.9049819 C88.3624169,91.9694261 88.9255419,91.9237293 89.423051,91.7376614 C90.0991292,91.4848058 90.6364765,91.072363 91.1447654,90.5666519 C91.2380337,90.4738523 91.3308334,90.3803496 91.4266795,90.2903621 C91.4740166,90.2460713 91.5215882,90.2024836 91.5703314,90.1598333 C91.6317291,90.1064032 91.6975794,89.9765775 91.6064202,90.1232759 C91.5194791,90.2627097 91.5733779,90.1478818 91.6474301,90.0953891 C91.6971107,90.0602377 91.74726,90.0260237 91.7981123,89.9925128 C91.9124715,89.9177575 92.0296427,89.8474547 92.1493917,89.7818388 C92.2560176,89.7234876 92.3645181,89.6686514 92.4744248,89.6170961 C92.4617703,89.6229546 92.6384645,89.5385913 92.6410423,89.5418721 C92.6469009,89.5500741 92.3530354,89.6527161 92.5592568,89.5788982 C92.8067225,89.4905511 93.0523134,89.402204 93.3047003,89.3290891 C94.3044054,89.0394418 95.3373871,88.8927434 96.3520902,88.6682433 C98.5727197,88.1772957 100.733826,87.3491293 102.73019,86.2617801 C103.699665,85.7335721 104.63188,85.1364674 105.515351,84.4742155 C106.113627,84.0259183 106.717293,83.6127724 107.017955,82.9006056 C107.347909,82.118839 107.215506,81.2864544 106.865398,80.5393705 C106.441941,79.6355115 105.551439,79.0222372 104.68531,78.5882348 C104.311299,78.4007608 103.92768,78.2336746 103.552264,78.0490127 C103.156225,77.8538054 102.814319,77.5957943 102.436559,77.3755124 C102.424139,77.3682478 102.680509,77.5768126 102.571775,77.4786231 C102.534748,77.4448778 102.493739,77.4148819 102.455306,77.3823083 C102.378676,77.3176298 102.303452,77.2508422 102.229869,77.1824142 C102.073797,77.0375905 101.924755,76.8852679 101.782509,76.7270867 C101.715487,76.6523314 101.649871,76.5764044 101.585896,76.4990714 C101.553791,76.4604049 101.522623,76.420801 101.490518,76.3821345 C101.348038,76.2098928 101.563164,76.4744655 101.571132,76.487823 C101.459819,76.3052702 101.316402,76.1379496 101.198527,75.9589119 C100.72375,75.2376057 100.33521,74.4633381 99.9705728,73.6818058 C99.2319252,72.0976505 98.5914671,70.4445985 97.5870752,69.0022204 C96.2499169,67.0820179 94.3803324,65.7619666 92.5241054,64.3870791 C92.3141345,64.2314757 92.1111939,64.0515007 91.8913806,63.9111295 C91.9234856,63.9315173 92.1367372,64.103759 91.9419986,63.9493273 C91.8920837,63.9097235 91.8419344,63.8705883 91.7922538,63.8309844 C91.6837532,63.744512 91.57619,63.6566336 91.4697985,63.5678177 C91.0758687,63.2385665 90.6959995,62.891974 90.3386272,62.5233532 C90.1656824,62.3450186 89.9983619,62.1610597 89.8376029,61.971711 C89.7586295,61.8791457 89.6880924,61.7715825 89.6027917,61.6851101 C89.6020887,61.684407 89.771284,61.912188 89.6824682,61.7865804 C89.6381775,61.7240109 89.5910746,61.6633162 89.5467839,61.6007468 C89.4061784,61.40179 89.2733062,61.197209 89.1514481,60.9863007 C89.0907534,60.8815496 89.0326364,60.7756268 88.9773316,60.6678293 C88.9499135,60.6141648 88.9229641,60.5602661 88.8969521,60.5058986 C88.8772674,60.4653573 88.8582856,60.4243474 88.8397726,60.3831031 C88.7959505,60.2860853 88.8132919,60.32897 88.8913279,60.5122258 C88.9107783,60.4662947 88.7992313,60.2760086 88.7786092,60.2176573 C88.7383023,60.1042355 88.7017448,59.9898764 88.6684682,59.8741112 C88.6354259,59.7581117 88.6058987,59.6411748 88.5801211,59.5230661 C88.5604363,59.4319069 88.4877901,58.9531452 88.5463757,59.4019111 C88.4957578,59.0140742 88.4228772,58.6960714 88.134636,58.4075958 C87.8906854,58.1638796 87.4906628,57.9801551 87.1403207,57.995856 C86.4602588,58.0263206 85.6320924,58.6208475 85.7342657,59.4019111 C85.88776,60.5778417 86.2484132,61.6710495 86.8888712,62.6780193 C87.4754305,63.5996883 88.2136094,64.4294951 89.0237314,65.1597064 C89.8540069,65.907962 90.7637245,66.5657614 91.6635997,67.2266072 C91.8766171,67.383148 92.0896344,67.5396888 92.30148,67.69787 C92.4071685,67.7768434 92.512857,67.8560512 92.6178424,67.935962 C92.6701008,67.9755659 92.7211874,68.0186849 92.7748519,68.0561797 C92.6426827,67.9638488 92.6197171,67.9357277 92.7631347,68.0486807 C93.187529,68.3837905 93.6018466,68.7322578 93.9934329,69.1053311 C94.3756455,69.4694993 94.7009129,69.8716311 95.0521923,70.2627487 C95.0393035,70.2486882 94.8431588,69.981069 94.9750936,70.1657309 C95.0055582,70.2083813 95.0371944,70.2503286 95.0678933,70.2929789 C95.129291,70.3782796 95.1892827,70.4645176 95.2481027,70.551693 C95.3659769,70.7267469 95.4791644,70.9050815 95.5878993,71.0859939 C96.0368995,71.8326091 96.4137223,72.6195313 96.7750784,73.4111403 C97.4769342,74.9488958 98.1180953,76.5478147 99.1428751,77.9070012 C99.7598989,78.7253252 100.441367,79.4292901 101.297186,80.0031949 C101.99951,80.473989 102.801196,80.7575434 103.54125,81.1594408 C103.717944,81.2552869 103.891592,81.3579289 104.056569,81.4725224 C104.095235,81.4994718 104.135073,81.5357948 104.175615,81.5582917 C104.159914,81.549621 103.905418,81.3262926 104.059849,81.4739284 C104.128277,81.53931 104.200221,81.6000047 104.265368,81.6689014 C104.501351,81.9184761 104.150774,81.4683042 104.265368,81.6546065 C104.314345,81.7340486 104.360745,81.813725 104.407145,81.8948076 C104.478151,82.0194778 104.364963,81.9885446 104.349497,81.7551394 C104.352075,81.7935716 104.384648,81.8598905 104.394022,81.8938702 C104.406676,81.9393326 104.413941,82.0274454 104.432688,82.0616594 C104.42308,82.0019021 104.413472,81.9423791 104.403864,81.8828561 C104.399177,82.0108071 104.404099,82.0133849 104.418393,81.8905894 L104.432688,81.8001332 C104.397303,81.9201165 104.401052,81.9250377 104.443234,81.8155998 C104.487759,81.5955522 104.34645,81.9301933 104.487056,81.7392041 C104.611492,81.5700088 104.40363,81.8022423 104.348559,81.8488764 C104.303097,81.8873086 104.255994,81.9233973 104.209594,81.9606578 C104.009231,82.1218854 104.224827,81.9360518 104.256228,81.9250377 C104.133667,81.9679224 104.000326,82.1176673 103.894404,82.195469 C103.448919,82.5214394 102.991482,82.8312402 102.523734,83.1244027 C101.616595,83.6926832 100.669382,84.1976913 99.6921739,84.6347401 C99.5707845,84.6891076 99.4491607,84.7507396 99.3242562,84.7954991 C99.6734265,84.6703602 99.2860583,84.809794 99.1963051,84.8458827 C98.9324355,84.9518055 98.6666911,85.0528071 98.3988376,85.1488876 C97.8952356,85.3298 97.3850719,85.4931367 96.8697528,85.638429 C94.8166781,86.2174894 92.5848001,86.3170849 90.6903753,87.3758444 C90.1806804,87.6608048 89.7119954,88.0301286 89.2965061,88.4390563 C89.1087978,88.6234839 88.918746,88.8029902 88.7258821,88.9817935 C88.612226,89.0870133 88.8081363,88.9086787 88.8170413,88.9112564 C88.8076676,88.9086787 88.6771389,89.00265 88.6522986,89.0169449 C88.6605005,89.0122581 88.4976325,89.0924032 88.4964608,89.0994335 C88.6893247,89.0230378 88.7357245,89.0033531 88.6358946,89.0403792 C88.5969937,89.0553771 88.5573898,89.0687346 88.5170829,89.0804517 C88.4477175,89.1015426 88.1404945,89.1523949 88.3839764,89.1242738 C88.6490178,89.0938093 88.2607122,89.1238051 88.2063448,89.1231021 C88.1564298,89.122399 87.7580476,89.1059951 88.0242606,89.1170092 C88.2485264,89.1259142 88.0694887,89.1193526 88.0045759,89.1055264 C87.9349762,89.0907628 87.8658451,89.0738901 87.7971828,89.0553771 C87.6846984,89.0246782 87.57362,88.9890582 87.4637134,88.9501573 C87.4074712,88.9302382 87.3521663,88.9084443 87.2963928,88.8878222 C87.0936866,88.8121296 87.3816935,88.9239109 87.3807561,88.9250827 C87.3566189,88.9548442 86.7599828,88.6253586 86.7086618,88.5981749 C85.7098941,88.073482 84.7589322,87.4672379 83.6769729,87.1187706 C82.4605009,86.7267156 81.1741949,86.6718795 79.9171817,86.8551353 C79.3868647,86.9324683 78.8736546,87.0641688 78.373802,87.2582044 C78.0220539,87.3945918 77.7305318,87.5675365 77.5334498,87.9042867 C77.3572242,88.2056512 77.282469,88.6499646 77.3916726,88.9876521 C77.606799,89.6524818 78.3871595,90.2545077 79.1213546,89.9697815" id="Fill-14" fill="#986A5D" fill-rule="nonzero"></path>
                <path d="M29.8409072,63.5006317 C30.3665374,61.4353713 30.8921676,59.3698764 31.4175635,57.304616 C31.5462176,56.7989048 31.6725282,56.2924907 31.8042287,55.7874826 C31.8567214,55.5854794 31.9117919,55.3839448 31.9757674,55.1852224 C32.0099814,55.0783622 32.0481792,54.9733767 32.0866114,54.8679226 C32.0997346,54.8320682 32.1597262,54.6750587 32.0884861,54.8597206 C32.0146682,55.0511784 32.0976255,54.85105 32.1170759,54.8123834 C32.1667565,54.7144283 32.2201866,54.6183478 32.2797096,54.5260169 C32.3050186,54.4866474 32.3336084,54.4491526 32.3589174,54.409783 C32.4402342,54.2823007 32.2911924,54.5082069 32.2836934,54.5091442 C32.3254064,54.5032857 32.4472645,54.340652 32.4814785,54.3059693 C32.5857609,54.2005152 32.596072,54.2958926 32.4151596,54.348854 C32.4648402,54.3343247 32.5250662,54.2726927 32.5698256,54.2445716 C32.6492677,54.1946566 32.7310533,54.1489598 32.8142448,54.1063095 C32.8592386,54.0831096 32.9513352,54.0552228 32.9841432,54.0247583 C32.9808624,54.0278047 32.7209765,54.1250569 32.8667376,54.0751419 C33.0781145,54.0029644 33.286445,53.9270375 33.5015714,53.8649367 C35.5401168,53.2769714 37.6049086,52.7677451 39.6549369,52.221024 L45.9219584,50.550162 C46.4173585,50.4179928 46.9113525,50.2776217 47.4093303,50.1562322 C47.6005538,50.1098324 47.7934177,50.0770245 47.9855785,50.0374206 C48.1362607,50.0060187 47.8384114,50.0571054 47.836068,50.0559336 C47.8573932,50.0664791 48.0040916,50.0395297 48.0148713,50.0385923 C48.117982,50.0310933 48.2210927,50.0275782 48.3242034,50.0289843 C48.3846638,50.0299216 48.6761859,50.0615579 48.4383282,50.0254691 C48.1871131,49.9872713 48.5233946,50.0538246 48.5812772,50.0667134 C48.8099954,50.1173314 48.354668,49.9237645 48.5529217,50.047966 C48.5810428,50.065776 48.6743111,50.1302202 48.6963393,50.132798 C48.6396284,50.1262364 48.4772291,49.9284513 48.6124447,50.0721033 C48.6415032,50.1030365 48.6724364,50.1393596 48.704307,50.167012 C48.8137449,50.2621551 48.6084609,50.0681195 48.6176002,50.0521842 C48.6227558,50.0432792 48.8109328,50.4449422 48.7087595,50.1857594 C48.6248649,49.9732107 48.7253978,50.2509066 48.7406301,50.3036337 C48.773438,50.4177585 48.798747,50.533758 48.8193691,50.6506949 C48.8271024,50.6942826 48.8299145,50.7416198 48.841163,50.7845045 C48.8421004,50.788957 48.8088237,50.4782188 48.8191348,50.6371031 C48.8261651,50.7437289 48.8397569,50.8505891 48.8481933,50.9572149 C48.8648316,51.1671858 48.8765487,51.377391 48.8967022,51.5871276 C48.9416959,52.0560469 49.0075462,52.5266067 49.1106569,52.986621 C49.2993026,53.828848 49.6219922,54.6483437 50.0140472,55.415581 C51.5604734,58.439771 54.5647443,60.7007075 57.8132001,61.598708 C61.6974271,62.6724653 65.862162,62.0165407 69.5225919,60.4717549 C70.0027597,60.2690486 70.477772,60.0576717 70.945754,59.8282504 C70.4726164,59.0188314 69.9994789,58.2094124 69.5263414,57.3999934 C68.0898219,58.4627366 66.7203243,59.6107805 65.4546404,60.8731836 C64.8612852,61.4651328 64.267227,62.0732516 63.741128,62.7268328 C63.0894215,63.5362518 62.5916781,64.4581552 62.7151766,65.5328499 C62.8232084,66.4718603 63.2548673,67.3021358 63.8137742,68.0520318 C64.2414493,68.6259366 64.6979485,69.1691426 65.2294373,69.6495447 C66.3008512,70.6178479 67.5159171,71.3330612 68.8481542,71.8757985 C71.3806936,72.9069055 74.2406095,73.064618 76.9076616,72.5333635 C79.7851532,71.9603961 82.4144761,70.3970973 84.5734735,68.4478363 C87.0439122,66.2168957 88.9610682,63.3705717 90.3741535,60.3714563 C90.6870008,59.7073296 90.5815466,58.8236241 89.8698485,58.4477387 C89.24556,58.1177844 88.2807719,58.2417516 87.9458965,58.9520438 C87.3591029,60.1978085 86.6916954,61.4053754 85.9293793,62.5527163 C85.7559658,62.8140082 85.5778655,63.0720193 85.394844,63.3265153 C85.3032161,63.4535289 85.2106508,63.5798395 85.1166795,63.7052128 C85.0613746,63.7787963 85.0086476,63.8615192 84.9465468,63.9294785 C85.1970589,63.6555321 84.9920093,63.8692525 84.9355327,63.940727 C84.509498,64.4773713 84.0595604,64.9952682 83.5845482,65.4892622 C83.1132854,65.9797411 82.6171823,66.4472544 82.0964733,66.8852405 C81.978599,66.9843674 81.859553,67.0818539 81.7393353,67.1781687 C81.715198,67.1971504 81.6910608,67.2163665 81.6669235,67.2355826 C81.5483462,67.3283822 81.5703744,67.3117439 81.7327737,67.1856676 C81.7044183,67.2229281 81.6186489,67.27214 81.5856066,67.2969803 C81.3027552,67.5085916 81.0131079,67.7112978 80.7173677,67.9046304 C80.1638507,68.2662209 79.5883055,68.5940661 78.9935442,68.8830104 C78.8548134,68.9502667 78.714911,69.0156482 78.5738368,69.0786864 C78.5457157,69.0911065 78.5173602,69.103761 78.4892391,69.1161812 C78.3493367,69.1768759 78.3758174,69.1660961 78.5689156,69.0843106 C78.502831,69.1328195 78.3865971,69.1593002 78.3104358,69.1895304 C78.0257097,69.3020148 77.7369997,69.4041881 77.4445403,69.4953473 C76.8771971,69.6720416 76.296965,69.8074915 75.7104057,69.9028689 C75.6419777,69.9141174 75.5733154,69.9239598 75.5048874,69.9347395 C75.2011795,69.9825454 75.8545264,69.8939639 75.5489437,69.9284123 C75.410916,69.9441132 75.2731226,69.9595798 75.1348605,69.9717656 C74.830684,69.998715 74.5258044,70.0148847 74.2204561,70.0207432 C73.6095252,70.0326947 73.0028124,69.9947312 72.3958654,69.9291153 C72.1034059,69.8974791 72.6794198,69.9717656 72.4821034,69.9415355 C72.4141441,69.93099 72.3457161,69.921382 72.2777567,69.9103679 C72.1416037,69.8888084 72.0061538,69.8649055 71.8709382,69.8386591 C71.5475455,69.7760896 71.2267306,69.7008657 70.9094309,69.6129873 C70.6464986,69.5398724 70.3861441,69.4580869 70.128836,69.367162 C70.0006506,69.3219339 69.8731683,69.2743623 69.7468577,69.2246817 C69.660854,69.1909364 69.3927662,69.0674379 69.7815404,69.2429604 C69.7077225,69.2096838 69.6327329,69.1785163 69.5586807,69.1450053 C69.0192242,68.9010547 68.4994526,68.6130478 68.0087394,68.2819218 C67.897661,68.2069322 67.7879887,68.1295992 67.6801912,68.0503914 C67.589735,67.9838382 67.436475,67.8029258 67.7090153,68.0754661 C67.6729266,68.0393774 67.623949,68.0077411 67.5836421,67.9749332 C67.334536,67.7717582 67.0955066,67.5559288 66.8684287,67.3281479 C66.6781426,67.1373931 66.4965272,66.9384363 66.3240511,66.7315118 C66.2743705,66.6717545 66.227502,66.5946558 66.1707911,66.5421631 C66.1869607,66.557161 66.3765438,66.8200933 66.2420312,66.6328536 C66.1464195,66.4997471 66.0501047,66.3675779 65.9596485,66.2307219 C65.8473985,66.0610579 65.7405383,65.8876445 65.6468013,65.7069664 C65.630866,65.6755645 65.6149307,65.6439283 65.5989954,65.6125264 C65.5331452,65.4698118 65.5380663,65.4852784 65.6142277,65.6586919 C65.5436906,65.5755003 65.5455653,65.4100545 65.5073675,65.3106932 C65.4391738,65.1330616 65.4977594,65.6455687 65.5052584,65.3285033 C65.5015089,65.2598409 65.5015089,65.1911786 65.5054927,65.1225162 C65.4733878,65.311865 65.4677636,65.3540466 65.4883857,65.2490612 C65.5108826,65.1731342 65.5310361,65.0934577 65.5509552,65.0168277 C65.6046196,64.8731758 65.5943085,64.8963757 65.5202563,65.0861931 C65.5488461,65.0280762 65.5793106,64.971131 65.6121186,64.9153574 C65.6446922,64.8588809 65.6798436,64.8035761 65.715698,64.7492086 C65.7520211,64.6943725 65.7897502,64.640708 65.8288854,64.5877466 C65.7084333,64.7407723 65.6960132,64.7574106 65.7918593,64.6381303 C65.9242628,64.4818238 66.0583067,64.3276264 66.1953971,64.1753038 C66.4892626,63.8488647 66.7894553,63.5280498 67.095741,63.2130935 C67.708781,62.5836495 68.3464269,61.9781085 69.0065697,61.3985795 C69.3367583,61.1086978 69.6728055,60.8253777 70.0140082,60.5488536 C70.1841408,60.4108258 70.3531018,60.2683456 70.5300304,60.1389885 C70.2499911,60.3438039 70.5492464,60.124928 70.5937715,60.0911827 C70.7104741,60.0028355 70.828114,59.9151914 70.945754,59.8282504 C71.2501649,59.6030472 71.4875538,59.36683 71.5918362,58.9878982 C71.6846359,58.6513823 71.6426886,58.2030851 71.450059,57.9045328 C71.0127759,57.2261112 70.2345245,57.0529321 69.5263414,57.3999934 C69.32012,57.5012293 69.1129612,57.6001219 68.9039277,57.6954993 C68.791209,57.7468203 68.6780215,57.7974382 68.5643654,57.8471189 C68.5158565,57.868444 68.466879,57.8890662 68.4181357,57.9103913 C68.2334738,57.9907708 68.6470883,57.8182947 68.4596143,57.8921126 C68.0131919,58.0681038 67.5674724,58.2424547 67.1121449,58.395246 C66.1878981,58.7052811 65.2413887,58.9506377 64.2808188,59.1179583 C64.1765364,59.136237 64.0720196,59.153344 63.9675029,59.1697479 C63.9150102,59.1777156 63.8627518,59.1854489 63.8104934,59.1934165 C63.6577021,59.2170851 63.696603,59.1435016 63.8700164,59.1863863 C63.7879965,59.1659985 63.6405951,59.214273 63.5552944,59.2236467 C63.415392,59.2386446 63.2754895,59.2522365 63.1353527,59.2637193 C62.6636212,59.3028545 62.190015,59.3213675 61.7166431,59.3173837 C61.2446773,59.3136342 60.7727115,59.2873879 60.3033235,59.2372386 C60.2020875,59.2262245 60.0926496,59.1988064 59.990945,59.2002125 C60.3438648,59.19576 60.0045368,59.1988064 59.8974423,59.1809964 C59.6553665,59.1409238 59.4144624,59.0940553 59.1749644,59.0403909 C58.7526792,58.9459509 58.3348465,58.831123 57.9254501,58.6912206 C57.7457094,58.6298228 57.5676091,58.5637382 57.3911492,58.4932011 C57.0958777,58.3753269 57.5898717,58.5848291 57.3625594,58.4824214 C57.2690568,58.4402397 57.1755541,58.3985268 57.0827545,58.3547047 C56.7244448,58.1855094 56.3750401,57.9982698 56.0359465,57.7936888 C55.6832611,57.5809058 55.3631492,57.3210199 55.016088,57.1030814 C55.0109324,57.0998006 55.2459779,57.2853999 55.1266976,57.1883821 C55.0927179,57.1607297 55.0578009,57.1340146 55.0235869,57.1063622 C54.9439105,57.0421524 54.864937,56.9767708 54.786901,56.9104519 C54.6312976,56.777814 54.4789749,56.640958 54.3306361,56.5003525 C54.0456756,56.2299212 53.7747757,55.9447264 53.5205141,55.645471 C53.4640376,55.5791521 53.4084984,55.5123645 53.3538966,55.4446395 C53.3175735,55.3998801 53.2833595,55.3520742 53.2458647,55.3087209 C53.2411778,55.303331 53.4225589,55.5458755 53.3339775,55.4209709 C53.2170406,55.2562281 53.0968228,55.0945318 52.9852758,54.9258052 C52.7717898,54.6021782 52.5768168,54.2663654 52.4036377,53.9195385 C52.358644,53.8297853 52.3155249,53.7395635 52.2735776,53.6484042 C52.2510808,53.5994266 52.1339095,53.3299328 52.2236627,53.5413097 C52.3173997,53.761826 52.1835901,53.4344495 52.1671861,53.3906275 C52.1318004,53.2968905 52.0982894,53.2024504 52.0661845,53.1077761 C51.9422173,52.7407957 51.8426218,52.3658477 51.7695069,51.9857442 C51.7505252,51.8866173 51.736699,51.786553 51.7179516,51.6874262 C51.6884244,51.5313541 51.7385737,51.8577932 51.7378707,51.8465447 C51.7345899,51.8034257 51.7273253,51.7600723 51.7224041,51.7169533 C51.6992042,51.5097945 51.6858466,51.3019327 51.6706144,51.0943053 C51.6340569,50.5949214 51.5960935,50.0826487 51.464393,49.5982627 C51.1611538,48.4832611 50.2922118,47.5231599 49.1251861,47.3070961 C48.0968912,47.1170443 47.1063254,47.3235001 46.1115415,47.5885414 C41.8750977,48.7180723 37.6384196,49.8478375 33.4017415,50.9773684 C32.3802425,51.2496744 31.3817091,51.5547883 30.5636194,52.2554724 C29.7710731,52.9348313 29.3778464,53.9650009 29.1167888,54.946896 C28.5656153,57.0217646 28.0566233,59.1090532 27.5270093,61.189546 C27.3946058,61.7107237 27.2619679,62.2319014 27.1293301,62.7530792 C26.9481833,63.4647773 27.3610948,64.3116912 28.1112251,64.4827612 C28.8423738,64.6491444 29.6468716,64.2631823 29.8409072,63.5006317" id="Fill-16" fill="#986A5D" fill-rule="nonzero"></path>
                <path d="M78.2764327,87.6480566 C79.0117995,87.6480566 79.7164674,87.0012713 79.6824877,86.2420016 C79.6482737,85.4801541 79.0647609,84.8359466 78.2764327,84.8359466 C77.5410659,84.8359466 76.836398,85.4827319 76.8703777,86.2420016 C76.9045917,87.0038491 77.4881045,87.6480566 78.2764327,87.6480566" id="Fill-18" fill="#986A5D" fill-rule="nonzero"></path>
                <path d="M78.9861155,85.02792 L77.0387293,83.6370972 C76.8775017,83.5344552 76.7031509,83.4786817 76.5161456,83.4702453 C76.3291402,83.428298 76.1423693,83.4367344 75.9553639,83.49532 C75.7723425,83.5389077 75.6129896,83.6228023 75.4773052,83.7470038 C75.3242796,83.8461307 75.2033589,83.9775969 75.1150117,84.1416366 C74.94277,84.4678414 74.8562976,84.8631772 74.9734689,85.225002 C75.0205717,85.3370177 75.0679089,85.4487991 75.1150117,85.5608148 C75.2401506,85.7721917 75.4081742,85.9402153 75.6195511,86.0653542 C76.2686799,86.5288837 76.9178086,86.9924132 77.566703,87.456177 C77.728165,87.558819 77.9025158,87.6143582 78.0895211,87.6230288 C78.2765264,87.6647418 78.4632974,87.6565398 78.6503027,87.5979542 C78.8333242,87.5543665 78.9926771,87.4704719 79.1283614,87.3462703 C79.2813871,87.2469091 79.4020735,87.115443 79.4904206,86.9516376 C79.6628967,86.6254328 79.7493691,86.230097 79.6321978,85.8682722 C79.585095,85.7562565 79.5377578,85.6442407 79.4904206,85.5324594 C79.3655161,85.3210824 79.1974925,85.1528245 78.9861155,85.02792" id="Fill-20" fill="#986A5D" fill-rule="nonzero"></path>
                <path d="M73.3589193,80.7317657 C68.8579029,77.0200148 64.1091864,73.6091597 59.1383132,70.5545051 C56.689434,69.0495576 54.1878278,67.6299107 51.6398218,66.2995483 C49.1436054,64.9963696 46.5965368,63.8127057 44.0332985,62.6491951 C42.8411981,62.1078639 41.6512069,61.5299753 40.5877606,60.7594572 C40.5425325,60.7266492 40.4977731,60.6931383 40.4530137,60.660096 C40.222655,60.4906663 40.6775138,60.8452265 40.4743389,60.6760313 C40.3475596,60.5703428 40.2198429,60.4660604 40.0970474,60.3554507 C39.8645797,60.1464172 39.6442977,59.9240262 39.4401854,59.6871059 C39.396129,59.6360192 39.3539473,59.5835265 39.3103596,59.5319712 C39.1294472,59.3177821 39.480961,59.7745156 39.3330909,59.5598579 C39.2409943,59.4262827 39.1479603,59.2945822 39.0633626,59.1558514 C38.9785307,59.016652 38.8997916,58.8737031 38.8271454,58.7274733 C38.8030081,58.6782614 38.7800426,58.6285808 38.756374,58.5791345 C38.6499825,58.3567435 38.8784664,58.8987777 38.739267,58.5310943 C38.5239062,59.060474 38.3085454,59.5896194 38.0931847,60.1189991 C38.3268242,59.9563654 38.5691343,59.8080266 38.8236303,59.6798413 C38.8833876,59.6498454 38.9454884,59.6238334 39.0045427,59.5926659 C39.174441,59.5026783 38.7648103,59.6821847 38.945254,59.6156314 C39.0867969,59.563373 39.2266994,59.5092399 39.37082,59.4642462 C39.6271907,59.384101 39.8875452,59.3269215 40.1514149,59.2781782 C40.3487313,59.2416208 40.1448533,59.3046589 40.0757223,59.2868489 C40.1347766,59.3020812 40.2599155,59.2688045 40.3257657,59.264352 C40.4759793,59.2540409 40.6264271,59.2507601 40.7771094,59.2512288 C41.5127105,59.2531036 42.2171441,58.6030375 42.1831644,57.8451738 C42.1489504,57.0816859 41.5654376,56.4409935 40.7771094,56.4390912 C39.3307474,56.435135 37.8639977,56.8623414 36.6737721,57.6907421 C36.1985255,58.0216337 35.7982685,58.6735746 36.0276899,59.2786469 C36.5043425,60.5365975 37.266893,61.6337891 38.2944849,62.5064805 C39.2536488,63.3210551 40.3234223,63.9697151 41.4482663,64.5274503 C42.5944355,65.0954965 43.7759904,65.5906622 44.9369231,66.1277752 C46.2731441,66.7462051 47.5981166,67.3883036 48.911372,68.054305 C54.0699535,70.6698016 59.0448105,73.6485292 63.7864967,76.9607261 C65.1084228,77.88427 66.4123045,78.8333571 67.6969701,79.8077532 C67.864525,79.9350012 68.0318455,80.0624835 68.1986974,80.1904345 C68.2682971,80.2438646 68.3376625,80.2972947 68.4072622,80.3507248 C68.4883447,80.4130599 68.4628014,80.3933751 68.3308666,80.2914361 C68.3861714,80.3343208 68.4417106,80.3772055 68.4970154,80.4200902 C68.8016607,80.6565418 69.1051342,80.8943994 69.407436,81.1336631 C70.0673445,81.6557782 70.7213944,82.1849236 71.3705232,82.7201619 C71.6660291,82.9638781 71.9678622,83.132136 72.3646041,83.132136 C72.7095562,83.132136 73.1215304,82.978876 73.3589193,82.7201619 C73.8334629,82.2032023 73.964929,81.2313839 73.3589193,80.7317657" id="Fill-22" fill="#986A5D" fill-rule="nonzero"></path>
                <path d="M55.6765354,66.010065 C60.9764255,69.7354078 66.3337294,73.3787307 71.74751,76.9367529 C73.0928703,77.8209272 74.4417457,78.6999459 75.793902,79.5735748 C77.1931611,80.4776681 78.8689443,81.5108842 80.5458992,80.6353806 C81.2836094,80.2501216 81.6751958,79.5562334 82.0449882,78.8506281 C82.1113072,78.7240832 82.1869998,78.6038655 82.2580056,78.4801326 C82.3231528,78.3669452 82.3939242,78.4004562 82.1809069,78.5703545 C82.2331653,78.5286415 82.2769873,78.4597448 82.3247932,78.4117046 C82.3580698,78.3781936 82.3927525,78.34562 82.4279039,78.3139838 C82.5392166,78.2143882 82.6732605,78.2003277 82.3655688,78.3549937 C82.4918794,78.2914869 82.6071759,78.191657 82.7306744,78.1211199 C83.6921817,77.5715868 84.8043712,77.2866263 85.5366915,76.39425 C86.2026929,75.5827219 86.4126638,74.6184025 86.3819649,73.5826087 C86.3561873,72.713198 86.3018198,71.8435529 86.2608099,70.9746109 C86.1734001,69.1233052 86.0859904,67.2719994 85.9985806,65.420928 C85.9641323,64.6872016 85.3766356,63.9797216 84.5925256,64.0148729 C83.8604396,64.0476809 83.1494445,64.6340058 83.1864706,65.420928 C83.2612258,67.0020368 83.3357467,68.58338 83.410502,70.1647233 C83.4468251,70.9359444 83.4831482,71.7074 83.5194713,72.4786211 C83.537047,72.8465389 83.5588408,73.2144566 83.5698549,73.5826087 C83.5747761,73.7466484 83.5768852,73.9113912 83.5686832,74.0751966 C83.5691519,74.067229 83.5656367,74.264311 83.5546226,74.2704039 C83.5867276,74.0576209 83.5893053,74.0290311 83.5625903,74.1844002 C83.5499358,74.247204 83.5349379,74.3097734 83.5173622,74.3714055 C83.5021299,74.4241326 83.4597139,74.503809 83.4559645,74.553724 C83.4742432,74.3196158 83.5511075,74.3718742 83.4660412,74.4878738 C83.4341706,74.5309928 83.392692,74.587235 83.3701951,74.6348065 C83.4981461,74.3650783 83.5468893,74.4248356 83.4597139,74.5115423 C83.3807405,74.5902814 83.282551,74.665271 83.2108422,74.7496343 C83.4280777,74.4939667 83.4013626,74.6087945 83.2720056,74.6966729 C83.21342,74.7365111 83.1536626,74.7744746 83.0929679,74.8107977 C82.6716201,75.0638876 82.2123088,75.2448 81.7698701,75.456177 C81.2411935,75.7085639 80.7207188,76.0244575 80.3115567,76.4488518 C79.8332637,76.9449549 79.6157939,77.5418253 79.253266,78.1075281 C79.2387368,78.1304936 79.167731,78.2118105 79.159529,78.2453214 C79.1984299,78.1935318 79.2370964,78.1417421 79.2759972,78.089718 C79.2394398,78.1311967 79.2010076,78.1705662 79.1604664,78.208061 C79.1503896,78.1534592 79.4737823,78.0519889 79.2410802,78.1438511 C78.9535419,78.2570386 79.5625981,78.0833908 79.2649831,78.1452572 C79.2188176,78.1548652 79.1407816,78.1689258 79.1014121,78.1855641 C79.3549706,78.0782352 79.3523929,78.1607238 79.1801511,78.1602551 C79.0468103,78.1600208 78.9277643,78.0929988 79.2509226,78.1857985 C79.1658562,78.1614268 79.073291,78.1522875 78.9872873,78.1295563 C78.8977684,78.1058877 78.8117647,78.0728454 78.7231833,78.0461303 C78.5612526,77.9971527 78.6706905,78.0878433 78.7967668,78.0824534 C78.6952965,78.0869059 78.4581419,77.9181793 78.3702634,77.8699048 C78.0553071,77.6967256 77.7565204,77.4961285 77.4549216,77.3013898 C76.1505713,76.4593972 74.8492673,75.6127178 73.5512442,74.7608828 C70.9392627,73.047136 68.34017,71.3134702 65.7544348,69.5603539 C62.8513999,67.5921113 59.9652376,65.5987939 57.095948,63.581808 C56.4922817,63.1576481 55.5066371,63.4533883 55.171996,64.0863474 C54.7911894,64.8074193 55.0323279,65.5573153 55.6765354,66.010065" id="Fill-24" fill="#986A5D" fill-rule="nonzero"></path>
                <path d="M55.1138088,9.34272005 C55.2567577,9.3270191 55.3994723,9.31741106 55.5433586,9.31952014 C55.6000695,9.32022317 55.6567804,9.3225666 55.7134912,9.32631608 L55.7978545,9.33311201 C55.9511145,9.34998467 55.9103389,9.34436045 55.6757621,9.31623935 C55.7528608,9.3677947 55.9126824,9.36427956 56.0057163,9.3898229 C56.0875019,9.41231978 56.1685844,9.43762877 56.2484952,9.46574987 C56.2752102,9.47535791 56.3016909,9.48496595 56.328406,9.49457399 C56.4678398,9.54964448 56.4345631,9.53488091 56.2288104,9.45075195 C56.2843496,9.52503852 56.4901023,9.57940598 56.5732939,9.62650882 C56.6864813,9.69071867 56.7966223,9.76008405 56.9039512,9.8336676 C56.933947,9.85428974 57.1535259,10.0337961 56.9730822,9.8788957 C56.789592,9.7211832 57.0115144,9.91381273 57.035886,9.93466922 C57.1476674,10.0305153 57.2554649,10.1310482 57.35881,10.2357993 C57.4626237,10.3410191 57.5624536,10.4504571 57.6575966,10.5636445 C57.6545502,10.5601294 57.7578952,10.7007349 57.7696124,10.7012035 C57.6882955,10.6974541 57.5861222,10.4537379 57.735164,10.6653491 C57.9188885,10.925938 58.0787101,11.2012904 58.2183783,11.4878913 C58.2486084,11.5502264 58.2769639,11.6130302 58.306491,11.6755997 C58.4163977,11.9087705 58.3069597,11.658727 58.2875093,11.625216 C58.3699979,11.7676963 58.4147573,11.9528269 58.4681874,12.1093676 C58.5802031,12.4365098 58.6741744,12.7695105 58.7568973,13.1050889 C59.0854455,14.4392008 59.2447984,15.8089327 59.5377266,17.1507779 C59.839794,18.5341017 60.2288026,19.8986781 60.7019401,21.2332587 C61.5865831,23.7299437 62.6891645,26.2575619 64.3101116,28.3720343 C65.1434336,29.4591492 66.0672117,30.4117515 67.1911184,31.2028918 C68.3408027,32.0120765 69.6833509,32.5198967 71.0355071,32.8768003 C72.6109918,33.2925239 74.2181127,33.6020903 75.8092983,33.952198 C77.47313,34.318241 79.1367275,34.684284 80.8003249,35.050327 C81.5169443,35.2080395 82.3554218,34.8352006 82.5300069,34.0681976 C82.6919376,33.3574368 82.3162866,32.5077108 81.5478775,32.3387499 C78.6038326,31.6910272 75.6532262,31.0669731 72.7148055,30.3927698 C72.0408365,30.2381037 71.3689765,30.0686741 70.7135205,29.8467517 C70.5462,29.7900408 70.3800512,29.7300492 70.2155427,29.6658393 C70.1693772,29.6480293 70.0470505,29.6166274 70.018695,29.5871002 C70.128836,29.701225 70.1991387,29.6686514 70.0629857,29.6032699 C69.7508415,29.453525 69.4426811,29.3023741 69.1457692,29.1238051 C68.8976005,28.9745289 68.6613832,28.8097861 68.425869,28.6415282 C68.2114456,28.4882682 68.4891415,28.6963644 68.4933597,28.6956613 C68.4640668,28.7005825 68.3443178,28.5759123 68.3164311,28.5527124 C68.1875427,28.4463209 68.0614664,28.336883 67.9382023,28.2243986 C67.4866243,27.8128931 67.071838,27.3617838 66.6896254,26.8858342 C66.6511932,26.8380283 66.6148702,26.7874103 66.5750319,26.7412449 C66.7955482,26.9959752 66.6739245,26.8708363 66.6263529,26.8056891 C66.535428,26.6810188 66.4430971,26.557286 66.3542813,26.4309754 C66.1759466,26.1776511 66.0053453,25.918937 65.8413055,25.6562391 C65.5122887,25.1299058 65.2106899,24.5869342 64.9292445,24.0338859 C64.6360821,23.4581064 64.3640104,22.8715471 64.1078741,22.2786606 C64.1036559,22.2690525 63.9646908,21.9388639 64.0506945,22.1457884 C64.1364638,22.3529471 63.9998422,22.0215869 63.9960927,22.0119788 C63.927196,21.8439552 63.8597053,21.675463 63.7936208,21.506502 C63.6614516,21.1683458 63.5346723,20.8280805 63.4135172,20.4857061 C62.9408484,19.1511255 62.5513711,17.7865491 62.249538,16.4032253 C61.9566099,15.0613802 61.797257,13.6916482 61.4684744,12.3575364 C61.0888396,10.8165001 60.4333836,9.31061513 59.2846366,8.18483374 C58.1993965,7.12162181 56.6646875,6.36141473 55.1138088,6.53061001 C54.7299558,6.57255732 54.4023449,6.65949839 54.1194935,6.94234979 C53.8757773,7.18630034 53.6920528,7.58632299 53.7077538,7.93666503 C53.7389213,8.6300845 54.3306361,9.42825507 55.1138088,9.34272005" id="Fill-26" fill="#986A5D" fill-rule="nonzero"></path>
                <path d="M65.4312062,26.0465834 C65.630163,23.4491311 64.1760677,20.8901109 62.1904837,19.3022061 C59.9970379,17.5479182 57.3035051,16.6972549 54.6151279,16.0258636 C53.1324429,15.6553681 51.6312448,15.3661895 50.1098933,15.2119921 C48.662594,15.065528 47.2068584,15.0945865 45.7595591,15.226287 C42.7398216,15.5014051 39.7437527,16.08773 36.753308,16.5779745 C33.8833153,17.0482999 31.0116823,17.5106577 28.1433301,17.9905911 C25.433862,18.4440439 22.7218163,18.9476459 20.0988206,19.7786244 C15.3522132,21.2824003 10.7480861,23.9712462 8.1068117,28.3267359 C5.71511211,32.2709546 5.35234991,37.759256 8.10259353,41.6402022 C8.46207493,42.1473194 8.85577034,42.6319397 9.29891201,43.0682855 C9.82360488,43.5847763 10.7708173,43.6307075 11.2873082,43.0682855 C11.7993465,42.5105503 11.8473867,41.6310629 11.2873082,41.079655 C11.1078018,40.9029607 10.934857,40.7199392 10.7710516,40.5280127 C10.72887,40.4783321 10.4664064,40.1577516 10.6189633,40.3459286 C10.7553507,40.5144209 10.6363047,40.3665507 10.6037311,40.3220257 C10.5547535,40.2550037 10.5067133,40.1872787 10.4596104,40.1186164 C10.1699631,39.6967999 9.91827925,39.2492057 9.70549626,38.7840358 C9.68253069,38.7338865 9.66237723,38.6816281 9.63777127,38.6321819 C9.80087365,38.9597927 9.71557298,38.8219993 9.68299937,38.738339 C9.63777127,38.6218708 9.59184014,38.5061056 9.54942415,38.3884657 C9.45990531,38.1398283 9.3804632,37.8874414 9.31109782,37.6324767 C9.24524758,37.3896979 9.18806801,37.1445757 9.13979345,36.897813 C9.11823394,36.787672 9.09854917,36.6772967 9.0805048,36.566687 C9.06925636,36.4973217 9.05964832,36.4277219 9.04886856,36.3583566 C9.02660602,36.2135329 9.09292495,36.7236965 9.05660186,36.3974918 C8.99871927,35.8781888 8.97762844,35.3546676 8.99215768,34.8323182 C8.99871927,34.5914141 9.01301416,34.3507443 9.03480801,34.1105433 C9.04629079,33.9832953 9.06035134,33.856516 9.07534926,33.7297367 C9.08589468,33.6381088 9.13112278,33.4731317 9.05894529,33.8501887 C9.07488058,33.7669972 9.08448862,33.6814621 9.09854917,33.5978019 C9.18314682,33.0944342 9.30055241,32.596222 9.45053161,32.1083209 C9.52528687,31.8650734 9.60824412,31.6244036 9.69940335,31.3867803 C9.71955681,31.3340533 9.74111632,31.2817949 9.76103543,31.2290678 C9.86578653,30.9534811 9.65300353,31.4718467 9.73338301,31.2918716 C9.79267167,31.1585308 9.85172598,31.0254242 9.91452977,30.8939581 C10.1535591,30.3931681 10.4251621,29.9083135 10.7253548,29.4415032 C10.8708815,29.2151284 11.0232042,28.993206 11.1816197,28.7757362 C11.2519224,28.6789527 11.3259747,28.5849814 11.3965118,28.4884323 C11.154436,28.8204956 11.4422085,28.4366426 11.512277,28.3520449 C12.2221004,27.4945857 13.0263639,26.7172716 13.8936655,26.020337 C13.9410027,25.9823735 13.9885742,25.9448787 14.0359114,25.9073839 C14.2240884,25.7574047 13.9923237,25.9427697 13.966546,25.960111 C14.0790304,25.884184 14.1847189,25.7953682 14.2943912,25.7154574 C14.5270933,25.5453248 14.7637792,25.3803476 15.0037459,25.2207604 C15.4593077,24.9177555 15.9272897,24.6334981 16.4051141,24.367285 C16.8955929,24.0940416 17.3963829,23.83978 17.9058435,23.6042658 C18.029342,23.5473206 18.1533092,23.4910784 18.277745,23.4362422 C18.3330499,23.4118706 18.388589,23.388202 18.4438939,23.3638304 C18.7686926,23.2208815 18.250327,23.4411634 18.4574857,23.3577375 C18.7754885,23.2295522 19.0930226,23.1013668 19.4145405,22.9818521 C21.8894317,22.0618235 24.4763386,21.4879187 27.0695727,21.0180619 C29.7757599,20.5278174 32.4957734,20.1099847 35.2096939,19.6649683 C38.0110242,19.2058914 40.809308,18.7147095 43.6171999,18.2982829 C43.7885043,18.2727395 43.9595743,18.2478992 44.131113,18.2239963 C44.20704,18.2134509 44.2832013,18.2017337 44.359597,18.19236 C44.0516709,18.2300892 44.2637509,18.2052489 44.3286637,18.1972812 C44.709939,18.1504127 45.0909799,18.1037786 45.4731925,18.0658151 C46.1595817,17.9973871 46.84808,17.9491125 47.5375156,17.9315368 C48.2255452,17.9139611 48.9145122,17.9270843 49.6009014,17.9791084 C49.940698,18.0046517 50.2790886,18.0407404 50.6174792,18.0817504 C50.8853326,18.1140896 50.6287276,18.0805787 50.5811561,18.0765948 C50.6748931,18.0847968 50.7690988,18.1035442 50.8621327,18.1178391 C51.0491381,18.1461946 51.2361434,18.1771278 51.4224457,18.2097014 C52.7518707,18.4426378 54.0667665,18.7672022 55.3650239,19.1346512 C55.9672842,19.3050182 56.5655606,19.4903832 57.1544633,19.7031662 C57.4195047,19.7987779 57.7046995,19.886422 57.9566177,20.01367 C57.6013544,19.834398 58.1028474,20.081395 58.1750249,20.1149059 C58.3273475,20.1852087 58.4784984,20.2583236 58.628009,20.3342505 C59.1655907,20.6070252 59.6848936,20.9172947 60.1725604,21.2723236 C60.2213036,21.3077093 60.2902003,21.3487192 60.3344911,21.3925413 C60.1001486,21.1605422 60.2363016,21.3173173 60.3089477,21.3770747 C60.4158079,21.4647188 60.5200903,21.5547063 60.622498,21.6472716 C60.827782,21.8333395 61.0239267,22.0294842 61.2097603,22.2350026 C61.3133397,22.3495961 61.4110605,22.4684077 61.5101874,22.5865163 C61.5729912,22.6612716 61.6081426,22.7796145 61.4607411,22.5206661 C61.4895653,22.5712841 61.535262,22.621199 61.5697104,22.6694736 C61.748045,22.918814 61.9118505,23.1784655 62.0580802,23.447725 C62.1164315,23.5548195 62.1719706,23.6633201 62.2244634,23.7732268 C62.2179018,23.7596349 62.3013277,23.9384382 62.300859,23.9386726 C62.2940631,23.9412503 62.1761888,23.6258253 62.2816429,23.8962566 C62.3854567,24.1629383 62.471929,24.4366504 62.5377793,24.7152836 C62.5654317,24.8322205 62.5851165,24.9505635 62.6097224,25.0682034 C62.6727606,25.3709739 62.5860538,24.8026934 62.6036295,25.006337 C62.6099568,25.0813266 62.6190961,25.1558475 62.624486,25.2308371 C62.6437021,25.5029088 62.6399526,25.7747461 62.6190961,26.0465834 C62.5628539,26.7817158 63.305954,27.4847433 64.0251511,27.4526384 C64.8350388,27.4163153 65.3709801,26.8339742 65.4312062,26.0465834" id="Fill-28" fill="#986A5D" fill-rule="nonzero"></path>
                <path d="M30.4737022,20.0844648 C31.2456264,20.4631623 32.1492511,20.2841247 32.5909867,19.5023581 C33.0282699,18.7283248 32.7660406,17.7183086 31.9826336,17.2850093 C31.0302657,16.7582074 30.0216555,17.3651544 29.1365439,17.7375247 C27.648469,18.3639222 26.1700022,19.0125822 24.7198907,19.7233431 C21.9448068,21.08417 19.2957992,22.6751212 16.8909764,24.6232105 C14.4160852,26.6282449 12.2931765,29.074312 10.6886334,31.8287737 C10.3000935,32.4961812 9.93967472,33.1813987 9.6181568,33.8834888 C9.21836849,34.7571177 8.86123052,35.6839423 8.94465645,36.6651343 C9.09088617,38.3861457 10.2208857,39.7762654 11.3480732,41.0011737 C12.3369985,42.0758684 13.430675,43.0493271 14.4095236,44.1336299 C14.6525368,44.4028894 14.8667259,44.7014418 15.1125511,44.9664832 C14.8428229,44.6756641 15.0345151,44.8664189 15.0933351,44.9463297 C15.1505146,45.0238971 15.2065225,45.1024018 15.2613586,45.1813752 C15.3630633,45.327605 15.4610184,45.4766468 15.5540524,45.6282664 C15.6398218,45.7679345 15.7216073,45.9099461 15.7989403,46.0543011 C15.8861157,46.2167004 15.9468104,46.4187037 16.0503898,46.5693859 C15.8919743,46.3385585 15.9611053,46.3469949 16.0042244,46.460651 C16.0431252,46.5637617 16.0834321,46.6661693 16.1192865,46.7702174 C16.182559,46.9548793 16.2366921,47.142119 16.284498,47.3314677 C16.4649417,48.0445719 17.3020131,48.5439558 18.01418,48.3135971 C18.7514215,48.0748021 19.189642,47.348106 18.9960751,46.5839151 C18.3596009,44.068717 16.5101698,42.1970235 14.7228396,40.4291436 C14.2937584,40.0047493 13.865146,39.579652 13.4531719,39.1383851 C13.2584333,38.9300546 13.0674441,38.7184433 12.8823135,38.5016765 C12.7902169,38.393879 12.6995264,38.2851441 12.6104762,38.1747687 C12.587745,38.1466476 12.4199558,37.9200384 12.5629047,38.1175892 C12.7114778,38.3233419 12.4844,38.0111977 12.4612001,37.9795614 C12.2690392,37.7147544 12.0892985,37.4396363 11.9402567,37.1481142 C11.9355698,37.1389749 11.8507378,36.9983694 11.854956,36.9723573 C11.8767499,37.0248501 11.8983094,37.0773428 11.9198689,37.1296012 C11.8959659,37.0698438 11.8734691,37.0091491 11.8526126,36.9482201 C11.8322248,36.887291 11.8130087,36.8256589 11.7959017,36.7637925 C11.7787947,36.7019261 11.7637968,36.639591 11.7506736,36.5767872 C11.7230212,36.4216525 11.7248959,36.4509453 11.7567665,36.6651343 C11.7192717,36.6501364 11.7321605,36.1882473 11.7553604,36.1559081 C11.7485645,36.1652818 11.6831829,36.4985168 11.7506736,36.2177745 C11.7752795,36.1151325 11.796136,36.0122561 11.8249602,35.9103171 C11.8734691,35.7394814 11.9360385,35.57427 11.9979049,35.4078868 C12.026026,35.3328972 12.0546158,35.1686231 11.9805636,35.4486624 C12.0145432,35.3195397 12.1000783,35.1859644 12.1572578,35.0655124 C12.7604554,33.7967821 13.4733253,32.5803102 14.2836817,31.4332036 C14.3924166,31.2792406 14.5030263,31.1266836 14.615042,30.9752983 C14.6661287,30.9064017 14.7181527,30.838208 14.7692394,30.7695456 C14.9712426,30.497474 14.6347268,30.9378035 14.7687707,30.7690769 C14.9923334,30.4869286 15.2175366,30.2068893 15.4511761,29.9331772 C15.9107217,29.3948925 16.3937016,28.8772299 16.897538,28.3801895 C17.3882512,27.8962722 17.8986492,27.4325084 18.4249824,26.9877263 C18.6752602,26.776115 18.9292875,26.5691906 19.1865956,26.36625 C19.2435408,26.3214906 19.4982711,26.1007399 19.2126076,26.3446905 C19.2618195,26.3027432 19.317593,26.264311 19.368914,26.2254101 C19.5256892,26.1065985 19.683636,25.9894272 19.8427546,25.8736621 C20.9598653,25.0600249 22.1285313,24.3185652 23.3288336,23.6342851 C24.6816929,22.8630639 26.0743904,22.1633172 27.4879444,21.5099703 C28.1806608,21.1898584 28.8785328,20.8807607 29.5796856,20.5798649 C29.6710792,20.5404954 29.7624727,20.5015945 29.8538663,20.4624593 C29.9326054,20.4289483 30.2243618,20.3031064 29.8840965,20.4493361 C30.066415,20.3710657 30.2501395,20.2956074 30.4333953,20.2194461 C30.6166512,20.1432848 30.799907,20.0678265 30.9831628,19.9923682 C31.0440919,19.9675279 31.1050209,19.9410472 31.1664187,19.9173786 C31.2189114,19.8955848 31.2721071,19.876603 31.3267089,19.8604334 C30.988084,19.9276897 30.6740651,19.8323123 30.3841834,19.5740669 L30.0225929,18.9535279 C29.9241691,18.4300068 30.1043784,18.0046751 30.5634554,17.678236 C30.799907,17.6142605 31.0365929,17.550285 31.2730445,17.4860752 C31.2582809,17.4863095 31.2437517,17.4865439 31.2289881,17.4867782 C31.4654397,17.5507537 31.7021256,17.6147292 31.9385772,17.6787047 C31.923345,17.6712058 31.908347,17.6637068 31.8931148,17.6562078 C31.233675,17.3328152 30.3415331,17.4560793 29.9693972,18.1607472 C29.6347561,18.7937063 29.7688,19.7385753 30.4737022,20.0844648" id="Fill-30" fill="#986A5D" fill-rule="nonzero"></path>
                <path d="M46.4469794,48.6922946 C48.0093408,48.6580806 49.2323744,47.4622308 49.5538923,45.9675943 C49.8819718,44.4431964 49.4275817,42.944576 48.2811781,41.8769116 C47.1572715,40.8301036 45.6898187,40.3089259 44.2446285,39.875861 C42.6018876,39.3837417 40.9523507,38.8995901 39.2711776,38.5555753 C37.5222795,38.1979686 35.7190139,37.9659696 33.9316836,38.0662682 C32.9779097,38.1196982 32.0346811,38.2729582 31.1017636,38.4730867 C30.6916642,38.5611995 30.2815648,38.6518901 29.8674816,38.7191464 C29.8196757,38.7268797 29.6884439,38.7641401 29.6518865,38.7521887 C29.7046136,38.7446897 29.7573406,38.7371907 29.8098333,38.7299261 C29.7378902,38.7383625 29.6659471,38.7456271 29.5935352,38.7519543 C29.3465382,38.7735138 29.0983695,38.7824188 28.8504351,38.7735138 C28.7252962,38.768827 28.514388,38.7064919 28.4016692,38.7390655 C28.4672851,38.7479705 28.532901,38.7568755 28.5987513,38.7657805 C28.5401657,38.7571099 28.4818144,38.7475018 28.4234631,38.7369564 C28.3362877,38.7212555 28.2498153,38.7034454 28.1635773,38.6837607 C28.0201597,38.651187 27.8779138,38.6132236 27.7373082,38.5705732 C27.6529449,38.5447955 27.5692847,38.5173775 27.4860931,38.488319 C27.4120409,38.4625413 27.2292537,38.3526347 27.1554358,38.3636488 C27.3093988,38.3406832 27.4075883,38.4740241 27.2065225,38.3823962 C27.1390318,38.3516973 27.0720099,38.3200611 27.0052223,38.2874875 C26.8444633,38.2087484 26.6860478,38.1246194 26.53021,38.0362723 C26.2136133,37.856766 25.907562,37.6592152 25.609947,37.4499474 C25.4843394,37.3616002 25.3608409,37.2699723 25.2373424,37.1785788 C24.9751132,36.9845432 25.4831677,37.3763638 25.2277344,37.1722515 C25.1548539,37.1141346 25.081739,37.0564863 25.0093272,36.9979007 C24.7185081,36.7626208 24.4342507,36.5191389 24.153274,36.2719076 C23.616864,35.8001761 23.0966237,35.3104003 22.5623227,34.8365598 C21.8084429,34.168215 20.9699654,33.5188519 19.9702603,33.2774791 C18.83698,33.0040014 17.7013562,33.2580287 16.5926818,33.521664 C14.6743541,33.9781632 12.781804,34.5373044 10.9215932,35.1913543 C10.2293455,35.4346018 9.69434155,36.163407 9.93946381,36.920802 C10.1606831,37.6046134 10.9260457,38.1642233 11.6691458,37.9029314 C13.2429901,37.3496488 14.8400342,36.8636224 16.4567632,36.4511796 C16.8424909,36.3527558 17.2293904,36.2585501 17.6172272,36.1683282 C17.8178244,36.1216941 18.018656,36.0750599 18.2206592,36.034753 C18.2937741,36.0199894 18.3680606,36.008741 18.4409411,35.99304 C18.6021688,35.9674967 18.5881082,35.9679654 18.3989938,35.9937431 C18.4728117,35.984838 18.5466296,35.9775734 18.6206818,35.9721835 C18.7371501,35.9637472 19.0687447,35.9110202 19.1732615,35.9719492 L19.0188298,35.9482806 C19.0874921,35.9592947 19.1554514,35.9728866 19.2227077,35.9892905 C19.2850428,36.0042885 19.3471436,36.0216298 19.408307,36.0410802 C19.4385372,36.051157 19.4690017,36.061468 19.4992319,36.0715448 C19.6426495,36.1263809 19.6194496,36.1151325 19.4298665,36.0382681 C19.4748603,36.027254 19.6461646,36.1467687 19.6867059,36.1692656 C19.8570729,36.2644086 20.0159571,36.374784 20.1757787,36.4858623 C20.3845779,36.6309203 20.1518758,36.4568038 20.124692,36.4443837 C20.2024937,36.4800037 20.286857,36.5765529 20.3520043,36.6318577 C20.4762058,36.7373118 20.5978295,36.8460467 20.7189846,36.955016 C20.9814482,37.1917019 21.2420371,37.4307313 21.5037977,37.6683546 C21.9999007,38.1182922 22.4999876,38.5647147 23.020931,38.9862968 C24.1992051,39.9403052 25.447782,40.7909684 26.9056267,41.255904 C27.6250582,41.4853253 28.4047157,41.6024965 29.1592986,41.5879673 C30.0479253,41.5708603 30.9299905,41.3822146 31.7956517,41.196381 C32.1532584,41.1195166 32.5110994,41.0433553 32.8722212,40.9840667 C32.9427583,40.9723495 33.2938033,40.8814246 32.9390088,40.9697718 C33.0064994,40.9528991 33.0887537,40.9510244 33.1592907,40.9430567 C33.3978514,40.9163417 33.6368808,40.8959539 33.8763788,40.881659 C34.6677534,40.8340875 35.4619402,40.8528349 36.2514401,40.9214972 C36.4726594,40.9407133 36.6936444,40.9639132 36.9139263,40.9903939 C36.9868069,40.9992989 37.0632025,41.0044545 37.134677,41.0182807 C36.769337,40.9475092 37.1374891,41.0208584 37.2021676,41.0307008 C37.6078145,41.0920986 38.0115866,41.1645104 38.4137184,41.2451242 C39.222903,41.4072892 40.0248231,41.6041369 40.8215876,41.818326 C41.6181177,42.0322807 42.409258,42.2642798 43.1996953,42.4990909 C43.4947325,42.586735 43.7900041,42.6741448 44.0829322,42.7683505 C44.2511901,42.8222493 44.418745,42.8782571 44.5853625,42.9375458 C44.717063,42.9844143 44.9464843,43.1322844 45.0805282,43.1254885 C44.9357046,43.1327531 44.8347029,43.0165192 44.9872599,43.0863533 C45.0931827,43.1348622 45.1995742,43.1821993 45.304091,43.2337547 C45.4589914,43.3103847 45.611314,43.3919359 45.7598872,43.4805174 C45.86581,43.5435555 46.0736718,43.7441527 46.1866248,43.7624314 L46.0366456,43.6454945 C46.080702,43.6804115 46.1242897,43.7162659 46.1669401,43.7528233 C46.2309156,43.8078938 46.2932507,43.8646047 46.3537111,43.9234247 C46.4144058,43.9822446 46.4732257,44.042705 46.5297023,44.1055088 C46.5582921,44.1369107 46.5859445,44.1687813 46.6128939,44.2013549 C46.6803845,44.2824374 46.651326,44.2430679 46.5257185,44.0830119 C46.5531365,44.203464 46.710849,44.3501624 46.7717781,44.467568 C46.8420808,44.6032523 46.8156001,44.72347 46.7385014,44.3747683 C46.7549054,44.4492893 46.7902911,44.5231071 46.8106789,44.5973937 C46.8256769,44.6512925 46.8390344,44.70566 46.8502828,44.7604961 C46.9250381,45.1183371 46.8388,44.4769417 46.8484081,44.7206579 C46.8540323,44.8563422 46.8617656,44.9903861 46.854501,45.1265391 C46.8519232,45.1717672 46.847002,45.2162923 46.8439556,45.2615204 C46.8282546,45.5057053 46.9191795,44.8626694 46.8423152,45.2198074 C46.8141941,45.3505705 46.7731841,45.4752407 46.7319399,45.60202 C46.6553099,45.8389403 46.8744201,45.3273706 46.786073,45.4766468 C46.7481095,45.5406223 46.719754,45.610925 46.6817906,45.6753692 C46.6721825,45.6917732 46.5967242,45.8356595 46.5796172,45.8344878 C46.6004737,45.8358939 46.8437212,45.5237496 46.6447644,45.7437972 C46.6037545,45.7892597 46.5578234,45.8293323 46.5156417,45.873623 C46.3576949,46.0402405 46.8076325,45.686852 46.6110191,45.8033202 C46.5594638,45.8337848 46.5076741,45.8649523 46.4565874,45.8961199 C46.2531781,46.0196184 46.7881821,45.7901971 46.5702435,45.8494857 C46.5109549,45.8658897 46.4514319,45.8820593 46.3919089,45.8979946 C46.1697522,45.9572833 46.8043517,45.8724513 46.4469794,45.8801846 C45.7120813,45.8963542 45.006476,46.5152528 45.0409243,47.2862396 C45.0744353,48.0342609 45.6591199,48.709636 46.4469794,48.6922946" id="Fill-32" fill="#986A5D" fill-rule="nonzero"></path>
                <path d="M35.0495677,37.4288565 C34.8576412,37.3294953 34.6713389,37.2212291 34.4925356,37.0998397 C34.4566811,37.0757024 34.4212954,37.0510964 34.3861441,37.0260218 C34.2666294,36.9376747 34.2926414,36.9589998 34.4641801,37.0902316 C34.4177803,37.0107895 34.2703789,36.93041 34.2005448,36.8673719 C34.0510343,36.7323906 33.9087884,36.5892074 33.7749788,36.4387595 C33.745686,36.4057172 33.653355,36.2517542 33.6074239,36.2412087 C33.737484,36.4129818 33.7581061,36.4394625 33.6688217,36.3206508 C33.6346076,36.274251 33.601331,36.2273825 33.5685231,36.179811 C33.4541639,36.0138965 33.3487098,35.8418891 33.2528637,35.6644918 C33.1980276,35.5630215 33.1499874,35.4587391 33.098432,35.3556284 C32.9777456,35.11449 33.2027144,35.6478535 33.1052279,35.3739071 C33.0375029,35.183621 32.9702467,34.9949753 32.9189256,34.799768 C32.8893985,34.6884553 32.8640895,34.5762053 32.8422956,34.4632522 C32.8312815,34.4067756 32.8214392,34.3500647 32.8122998,34.2933539 C32.8392492,34.510355 32.8465138,34.5637851 32.833625,34.4531754 C32.8137059,34.2307844 32.7973019,34.0102681 32.8010514,33.7867054 C32.8024574,33.6976552 32.8062069,33.6083707 32.8122998,33.5195549 C32.8200331,33.4040241 32.9130671,33.0337629 32.8104251,33.4504239 C32.8601057,33.248655 32.8847116,33.0412619 32.9390791,32.8397273 C32.961576,32.7567701 33.1638136,32.2887881 33.1356925,32.2468408 C33.0499231,32.4448602 33.0375029,32.4746217 33.0981977,32.3361253 C33.1164764,32.2953497 33.1354581,32.2550428 33.1549085,32.2147358 C33.2001366,32.1209988 33.2477082,32.0281992 33.2978575,31.93704 C33.3986247,31.7542528 33.5127495,31.5810737 33.6294521,31.4083633 C33.7180336,31.2876769 33.6981145,31.3111112 33.5696948,31.478666 C33.6064865,31.4320319 33.6439813,31.3858664 33.6824135,31.340404 C33.7398274,31.2722103 33.7988817,31.2054227 33.8595765,31.1402755 C34.0222101,30.9659246 34.1970297,30.8051657 34.3807542,30.6535461 C34.9504408,30.183455 34.904041,29.1453177 34.3807542,28.6651499 C33.7754475,28.1092895 33.0000081,28.163657 32.392358,28.6651499 C31.0106746,29.8054606 30.2251586,31.4971791 30.0247957,33.2533418 C29.8298228,34.9616987 30.4168507,36.6761484 31.4552224,38.0198683 C32.0392039,38.7756229 32.7797262,39.416081 33.6301551,39.8571136 C34.282799,40.1952698 35.1871267,40.0471653 35.5541071,39.3525742 C35.8950754,38.7071949 35.7467366,37.7902127 35.0495677,37.4288565" id="Fill-34" fill="#986A5D" fill-rule="nonzero"></path>
                <path d="M48.8181974,48.9828559 C49.1038609,48.1722652 49.3902275,47.3614401 49.7122141,46.5644413 C49.7506462,46.4692982 49.7862663,46.371343 49.829854,46.2783091 C49.6873738,46.5820169 49.7954057,46.3605633 49.829151,46.2827616 C49.9043749,46.1098168 49.981708,45.9378094 50.0613844,45.7669737 C50.2493271,45.3646076 50.451096,44.9683345 50.6711436,44.5823724 C50.8740842,44.2261718 51.0924914,43.8788762 51.3287087,43.5437664 C51.3683125,43.4877585 51.4081508,43.4322194 51.448692,43.3769145 C51.4667364,43.3527773 51.4845464,43.32864 51.5023565,43.3045027 C51.5928127,43.184988 51.5747683,43.2081879 51.4477547,43.3738681 C51.4254921,43.3269996 51.8128603,42.938694 51.8583227,42.8885448 C52.1025076,42.6183478 52.3619248,42.3617428 52.6363398,42.1222448 C52.7050022,42.0624874 52.7743676,42.0039018 52.8446703,41.9462535 C52.9229407,41.8820437 53.1624387,41.7564361 52.845842,41.9420354 C52.9998051,41.8518135 53.1401762,41.7287837 53.2903898,41.6312972 C53.5931603,41.4346839 53.9092883,41.2704098 54.2329153,41.1119942 C54.5178758,40.9725604 53.9280357,41.2230726 54.2256507,41.1143377 C54.309311,41.0838731 54.3917995,41.0510652 54.4761628,41.0217724 C54.6723075,40.9540474 54.8719673,40.8959304 55.0742049,40.8485933 C55.1745035,40.8249247 55.4297025,40.8195348 55.511488,40.7632926 C55.4458721,40.7719633 55.3804905,40.7803996 55.3148746,40.7888359 C55.3741633,40.7815713 55.4336863,40.7752441 55.4932093,40.7698542 C55.5892897,40.7611835 55.6856045,40.7550906 55.7821536,40.7513411 C56.0003265,40.7429048 56.2187337,40.7468886 56.4366722,40.7595431 C56.5454071,40.7658704 56.654142,40.774541 56.762877,40.7850864 C56.8369292,40.7921167 57.325299,40.8296115 56.9318379,40.800553 C57.3302202,40.8300802 57.7311802,40.9301445 58.1248756,40.9966977 C58.6737057,41.089263 59.226051,41.1745637 59.7809741,41.2216665 C60.6611645,41.2964218 61.5308095,41.2366644 62.403501,41.1131659 C64.261134,40.8499993 66.0822096,40.117679 67.5916097,39.001037 C67.896255,38.7755995 68.1334096,38.5396166 68.237692,38.1606847 C68.3304916,37.8241689 68.2885443,37.3758717 68.0961491,37.077085 C67.7197951,36.4935722 66.8046876,36.104798 66.1724315,36.5727799 C65.8570065,36.8061851 65.5308017,37.0234206 65.1912394,37.2202683 C65.0218098,37.3186921 64.8493337,37.4121948 64.6745142,37.5007763 C64.5871045,37.545067 64.4989917,37.5879517 64.4104102,37.6296646 C64.3361236,37.664816 63.9410222,37.8736152 64.2983945,37.6866099 C63.9595352,37.8640071 63.5548257,37.9703986 63.1890171,38.0765558 C62.7810268,38.1951331 62.3660062,38.2891044 61.9467675,38.3580011 L61.849984,38.3732334 C61.6932089,38.396199 61.7208613,38.3931525 61.9324726,38.3638597 C61.8560769,38.3959646 61.7229704,38.3884657 61.6404818,38.3966676 C61.4452745,38.4156494 61.2495985,38.4292413 61.0539225,38.4372089 C60.6295283,38.4543159 60.2041966,38.4454109 59.7809741,38.4095565 C59.6792694,38.4008858 59.5782678,38.3889343 59.4767975,38.379092 C59.1048959,38.3434719 59.7847235,38.4301786 59.4153998,38.3718273 C59.1979299,38.337379 58.9806944,38.3033993 58.7639276,38.2663732 C58.2066611,38.1714645 57.6500977,38.0784305 57.088613,38.0092995 C55.3373715,37.7944074 53.6161258,38.1501393 52.1001642,39.0598569 C50.6120893,39.9531706 49.4153021,41.2568179 48.5046472,42.7228646 C47.4451847,44.428878 46.770747,46.3504866 46.1066203,48.2353033 C45.8617324,48.9298945 46.3838475,49.8044607 47.0885154,49.9649853 C47.8752032,50.144023 48.5562025,49.7264247 48.8181974,48.9828559" id="Fill-36" fill="#986A5D" fill-rule="nonzero"></path>
                <path d="M71.7966985,59.9917511 C73.7862663,60.1253264 75.3176946,58.6881038 76.3731732,57.1707361 C76.8826338,56.4379471 77.2896867,55.6414169 77.7138467,54.8582443 C78.225885,53.9129066 78.7379234,52.9678033 79.2499618,52.0224656 C79.878234,50.8627046 80.7966223,49.5405442 80.3323898,48.1607355 C80.107421,47.492625 79.503989,47.057451 78.7897131,47.1535314 C78.166362,47.2371917 77.4860657,47.8396863 77.570429,48.5345118 C77.612142,48.8785266 77.653855,49.2225414 77.6955679,49.5665562 C77.7424364,49.9527526 77.8214099,50.2747392 78.1075421,50.5608714 C78.3512583,50.8045876 78.7515153,50.9883122 79.101623,50.9726112 C79.7875435,50.9419124 80.6025867,50.3485571 80.507678,49.5665562 C80.465965,49.2225414 80.4242521,48.8785266 80.3825391,48.5345118 L77.6205783,48.9082881 C77.6358106,48.9535162 77.645653,49.006712 77.6639317,49.0502997 C77.7218143,49.1885617 77.647059,48.9310193 77.645653,48.9169588 C77.6510429,48.9699202 77.6180006,49.1088853 77.6590105,48.9246921 C77.7040043,48.7219858 77.6636974,48.8963366 77.6533863,48.9328941 C77.646356,48.9577344 77.5629301,49.2227757 77.5645705,49.2239475 C77.5598836,49.220901 77.6796327,48.9797626 77.6067521,49.1266953 C77.5760533,49.1885617 77.5476978,49.2518342 77.5167646,49.3134663 C77.305622,49.732002 77.0724512,50.140461 76.8491228,50.5526695 C76.3921549,51.3965368 75.9349527,52.2404042 75.4777505,53.0845059 C75.0721036,53.8332302 74.6859072,54.5969524 74.2315171,55.3177899 C74.1391861,55.4644883 74.0438087,55.6090776 73.9449162,55.7513235 C73.8954699,55.8223293 73.8453206,55.8928664 73.7939996,55.9624661 C73.607463,56.2160247 73.9247627,55.8078001 73.7775956,55.9844943 C73.5537985,56.2535195 73.3213308,56.512468 73.0576955,56.7435297 C73.0272309,56.7702448 72.995829,56.7962568 72.9651302,56.8229718 C72.8228843,56.9467047 73.0145764,56.7779781 73.0598045,56.7524347 C72.9803624,56.7971941 72.9081849,56.860701 72.8310863,56.9096785 C72.7539876,56.9586561 72.6752485,57.0050559 72.5946347,57.0477063 C72.5402672,57.0765304 72.2574158,57.2077622 72.4821503,57.1072293 C72.7031353,57.0083367 72.4216899,57.1201181 72.3595891,57.1379281 C72.2733511,57.1625341 72.1817232,57.1726108 72.0964225,57.1986228 C71.9595665,57.2403358 72.2829591,57.1758916 72.2773349,57.1754229 C72.2269513,57.1719078 72.1707091,57.1845623 72.1198568,57.1866714 C72.0118249,57.1908895 71.904496,57.1869057 71.7966985,57.1796411 C71.0613317,57.1301948 70.3583042,57.8615778 70.3906434,58.5856961 C70.4267322,59.3897253 71.008839,59.9387897 71.7966985,59.9917511" id="Fill-38" fill="#986A5D" fill-rule="nonzero"></path>
                <path d="M36.1640069,9.14348206 C30.8538058,8.01488856 25.2159938,8.4153799 20.1401352,10.3590166 C18.6619027,10.9249538 17.2258518,11.5972824 15.8603381,12.3984994 C15.2259729,12.7706353 14.9440589,13.683165 15.356033,14.322217 C15.7680071,14.9615034 16.6008604,15.2249044 17.2797506,14.8265221 C17.8381888,14.4989113 18.4074067,14.1905165 18.9883418,13.9043844 C19.2711932,13.7649506 19.5566224,13.6306723 19.844395,13.5015496 C19.96555,13.4471821 20.0874081,13.3946894 20.2090319,13.3412593 C20.5125054,13.2076841 19.9962489,13.4274974 20.194034,13.3473522 C20.2863649,13.3098574 20.3782272,13.2714253 20.4705581,13.2343991 C21.6563312,12.7575121 22.8760839,12.3656915 24.1173962,12.0610462 C24.7302018,11.9105983 25.348163,11.78171 25.9696393,11.6739124 C26.2524907,11.6249348 26.5686188,11.5351816 26.855454,11.535416 C26.5095644,11.5351816 26.7228161,11.5527573 26.8273329,11.5396342 C26.9095871,11.5290887 26.9920757,11.519012 27.0745642,11.509404 C27.239307,11.4899535 27.4045185,11.4721435 27.5697299,11.4557395 C28.8415067,11.3298976 30.1224228,11.2928715 31.3993551,11.3474733 C32.112225,11.3779378 32.8239232,11.4367578 33.5321062,11.5244019 C33.5960817,11.5323695 33.6659158,11.536822 33.729657,11.5497109 C33.3315091,11.4688627 33.7097379,11.5483048 33.7997254,11.5616623 C33.9801691,11.5886117 34.1606128,11.6174359 34.3405879,11.6481347 C34.700538,11.7095325 35.059082,11.7791322 35.4164543,11.8550592 C36.1340111,12.0076161 36.9706138,11.6434479 37.1461363,10.8731641 C37.3068953,10.1666214 36.9333533,9.30705312 36.1640069,9.14348206" id="Fill-40" fill="#986A5D" fill-rule="nonzero"></path>
                <g id="Group-44" transform="translate(26.830094, 62.013185)">
                    <mask id="mask-4" fill="white">
                        <use xlink:href="#path-3"></use>
                    </mask>
                    <g id="Clip-43" fill-rule="nonzero"></g>
                    <path d="M1.40711369,2.8155364 C1.83267968,2.85045343 2.25801132,2.89005732 2.68263994,2.93598845 C2.87058263,2.95637624 3.05852531,2.97793575 3.246468,3.00043263 C3.340205,3.01168107 3.433942,3.0233982 3.52767901,3.03511532 C3.53564665,3.03628704 3.98113175,3.0967474 3.71515301,3.05948695 C4.55292746,3.17689254 5.3878898,3.31421725 6.21886831,3.47403883 C7.84872042,3.78735476 9.46263724,4.18362793 11.0547602,4.6520786 C12.6464145,5.1207636 14.2165093,5.6616261 15.7622324,6.26458936 C16.1549905,6.41784936 16.5463424,6.57509318 16.936054,6.73608648 C17.0227607,6.77194088 17.1094675,6.80802963 17.1959399,6.84411837 C17.0014356,6.76303587 17.2200771,6.8541951 17.2491356,6.86661525 C17.464965,6.95871186 17.6805601,7.05151149 17.8956866,7.14595152 C18.6715946,7.48598249 19.440941,7.8405427 20.2041946,8.20846043 C26.3730266,11.1820325 32.1045756,14.9891608 37.5949861,19.0620335 C38.2933267,19.5799304 38.9879179,20.1027485 39.6794626,20.6295505 C40.402878,21.1804897 40.8858579,21.5530943 41.5164735,22.0438075 C42.8627712,23.0917872 44.1999295,24.1517183 45.5319323,25.217508 C48.3325596,27.458291 51.1282656,29.7068073 53.8888203,31.9968023 C59.4293801,36.5929618 64.8253506,41.4213547 69.4517403,46.9565247 C70.0012735,47.6140897 70.6314205,48.3937472 71.097059,48.9992883 C71.5221563,49.5518679 72.0775481,50.3066851 72.551623,50.9389412 C73.6155379,52.3576507 74.7042932,53.7819844 76.0248132,54.9747878 C78.4978296,57.2087748 82.0532741,58.7069265 85.3874992,57.6301227 C86.2470675,57.3524268 86.9723576,56.9273295 87.6758538,56.370063 C88.1103248,56.0258139 88.2392131,55.1153933 87.895667,54.6661587 C84.3289741,50.0032115 80.4332644,45.6057745 76.1951802,41.5418068 C71.9615485,37.4818229 67.4075707,33.7515589 62.6044867,30.3842915 C59.9154065,28.4990061 57.1429003,26.7341727 54.2989197,25.0916661 C53.6615081,24.723514 52.730934,24.9224708 52.3752021,25.5959711 C52.0206419,26.2671281 52.1992109,27.1269307 52.8795072,27.5196888 C55.3679902,28.9569113 57.8018715,30.4874022 60.1729489,32.1111614 C61.3484109,32.9161279 62.5086406,33.7435913 63.6524664,34.5926142 C63.9240694,34.7941487 64.1945006,34.996855 64.4642288,35.200733 C64.5989758,35.302672 64.7334884,35.4050796 64.868001,35.5074873 C64.944631,35.5660729 65.0214953,35.6248929 65.0981253,35.6837129 C65.1234343,35.7031633 65.3638697,35.8887626 65.2150622,35.7734661 C65.7688135,36.2020785 66.3181124,36.6363152 66.8636617,37.075473 C71.3217935,40.6639598 75.5066819,44.5920088 79.368412,48.8155637 C80.4599794,50.0097731 81.5260035,51.2271824 82.5648438,52.4675573 C83.0764135,53.0782539 83.5816559,53.6945747 84.0801024,54.3162853 C84.3217095,54.6178841 84.5619106,54.9204203 84.8004713,55.2243625 C84.9345152,55.3954325 85.0683247,55.5667369 85.2014313,55.73851 C85.2991521,55.8648206 85.2227564,55.7661624 85.2030717,55.7406191 C85.2914188,55.8554469 85.3795316,55.970509 85.46741,56.0855712 C85.5407592,55.517525 85.6141084,54.9494788 85.6874576,54.3816669 C85.8927417,54.2190332 85.4842827,54.5121957 85.4132769,54.5550803 C85.2555644,54.6509264 85.092462,54.7324776 84.9277192,54.8154349 C84.8710083,54.8440246 84.6837687,54.8972204 84.9272505,54.8170752 C84.8501519,54.8423842 84.7749279,54.8737861 84.6980636,54.8995638 C84.5051997,54.9642423 84.3085863,55.0179068 84.1098639,55.0617288 C84.0083936,55.0842257 83.5811872,55.1442174 83.8783335,55.1125811 C83.6932029,55.1322659 83.508541,55.1470295 83.3224731,55.1528881 C83.1349991,55.158981 82.9475251,55.1573406 82.7602854,55.1486699 C82.6766251,55.1446861 82.5927305,55.1390618 82.5093046,55.1322659 C82.4739189,55.1294538 82.1313101,55.0938337 82.3192528,55.1163306 C82.5327389,55.1421083 82.1221708,55.0828196 82.1299041,55.0842257 C82.0462438,55.0692278 81.9628179,55.0528238 81.8796263,55.0352481 C81.7130088,55.0000967 81.5473286,54.9595555 81.3828202,54.9143274 C81.1974553,54.8632407 81.0139651,54.8058268 80.8321153,54.7425543 C80.7693115,54.7207605 80.2640691,54.5185229 80.5113004,54.6270235 C80.1609584,54.4732948 79.8204587,54.2970692 79.4928479,54.0995185 C79.3442748,54.0099997 79.1985137,53.9153253 79.0553304,53.8173701 C78.9775287,53.7641744 78.9001957,53.7098069 78.8235657,53.6547364 C78.8240344,53.6549708 78.4790822,53.3915698 78.6578856,53.533347 C77.9942276,53.0072481 77.3868118,52.4129555 76.8185313,51.785855 C76.5640353,51.5051126 76.3177413,51.2173401 76.0766029,50.925115 C75.9406842,50.7601378 75.806406,50.5935203 75.6735338,50.4257311 C75.6144795,50.3512102 75.5556595,50.2764549 75.4970739,50.201231 C75.4382539,50.1255383 75.4384882,50.1262414 75.4982456,50.2035744 C75.4546579,50.1468635 75.4110702,50.0899183 75.3677168,50.0332074 C74.2705252,48.5945788 73.2082506,47.1318129 72.0662996,45.7273982 C67.5479418,40.1709031 62.2344599,35.3251689 56.7541261,30.7388517 C51.3719818,26.2347888 45.8939915,21.8150892 40.2906279,17.5887221 C34.8602091,13.4928839 29.2146638,9.63115376 23.1461304,6.53572364 C17.0867362,3.44498036 10.6380992,1.16670255 3.87872408,0.268936416 C3.05711926,0.159732809 2.23317102,0.0713856857 1.40711369,0.00342635975 C0.672215603,-0.0570340061 -0.0310462489,0.693330689 0.001058674,1.40948138 C0.037381762,2.22288421 0.619957225,2.75085787 1.40711369,2.8155364" id="Fill-42" fill="#986A5D" fill-rule="nonzero" mask="url(#mask-4)"></path>
                </g>
            </g>
        </g>
    </g>
</svg>