<?xml version="1.0" encoding="UTF-8"?>
<svg width="120px" height="82px" viewBox="0 0 120 82" version="1.1" xmlns="http://www.w3.org/2000/svg" xmlns:xlink="http://www.w3.org/1999/xlink">
    <title>Treats@2x</title>
    <defs>
        <polygon id="path-1" points="0 0 59.5970855 0 59.5970855 72.3878437 0 72.3878437"></polygon>
        <polygon id="path-3" points="1.33263202e-14 0 68.2028071 0 68.2028071 67.3903745 1.33263202e-14 67.3903745"></polygon>
        <polygon id="path-5" points="-1.33263202e-14 1.33263202e-14 44.8736323 1.33263202e-14 44.8736323 43.3612768 -1.33263202e-14 43.3612768"></polygon>
    </defs>
    <g id="Tucker-Tub---UI" stroke="none" stroke-width="1" fill="none" fill-rule="evenodd">
        <g id="Home---Menu-Expanded" transform="translate(-1014.000000, -173.000000)">
            <g id="Treats" transform="translate(1014.000000, 173.000000)">
                <path d="M27.4090259,75.8738483 C33.8122612,63.7144297 44.2368304,51.8007033 56.7969054,46.2243348 C54.74064,42.8127769 57.5682101,38.6378854 58.1184386,34.6925097 C59.1724768,24.7745634 48.6292814,19.4183331 40.5073731,16.8842809 C31.5471105,15.740218 4.66960497,-2.10880319 1.40663051,11.1913961 C1.39238073,14.2116751 4.38851248,16.1887 6.55004103,18.2951354 C22.1292228,33.2837651 -0.990458328,71.0509671 27.4090259,75.8738483" id="Fill-1" fill="#D8B397" fill-rule="nonzero"></path>
                <g id="Group-5" transform="translate(0.000000, 4.879785)">
                    <mask id="mask-2" fill="white">
                        <use xlink:href="#path-1"></use>
                    </mask>
                    <g id="Clip-4" fill-rule="nonzero"></g>
                    <path d="M52.4625718,40.6741246 C50.1106787,41.6913558 47.8019224,42.8105681 45.5468527,44.027776 C42.9037862,45.4545723 40.3294104,47.0175779 37.886086,48.7660247 C35.3806353,50.559015 32.9734146,52.5306478 30.8948775,54.8124436 C28.9279334,56.9713933 27.2509905,59.3959626 26.2323526,62.146871 C25.2617747,64.7681346 25.0828977,67.6449369 25.7580823,70.3597417 C25.8427148,70.6996784 25.942117,71.0356297 26.0525378,71.3680643 C26.2316493,71.9070398 26.6487164,72.2985531 27.2221545,72.3756836 C27.7550346,72.4471875 28.3615285,72.200792 28.6236315,71.7040156 C29.8954636,69.2923405 31.2910796,66.9467772 32.804384,64.6788133 C33.5761575,63.5218564 34.378877,62.38553 35.2111359,61.271241 C35.4122846,61.0021049 35.6157778,60.7346099 35.8199742,60.4675837 C35.974704,60.2650283 35.8213808,60.4647704 35.7944203,60.4999363 C35.8481069,60.4296046 35.9029657,60.3599762 35.95759,60.2903478 C36.0773883,60.1365557 36.1976556,59.983467 36.3188606,59.8306127 C36.7591373,59.2747576 37.2076193,58.7249979 37.6636033,58.1818024 C39.4519048,56.0519232 41.3604736,54.0214461 43.391654,52.1215516 C44.4058375,51.1727765 45.4504982,50.2565885 46.5265737,49.3786141 C46.7703903,49.1795753 47.0158481,48.982412 47.2629469,48.7873587 C47.3984527,48.68022 47.5318486,48.5611249 47.6753253,48.464536 C47.4099402,48.6429442 47.6143711,48.5121271 47.6809518,48.4612539 C47.7777752,48.3871711 47.8750674,48.3133228 47.9723596,48.2399433 C48.4993787,47.8423346 49.033431,47.4541035 49.5745165,47.0757188 C52.0726996,45.3296163 54.7218614,43.7996667 57.5067636,42.559015 C58.2,42.2504931 58.3638729,41.2323241 58.011511,40.6345044 C57.951729,40.5332267 57.8938225,40.4310112 57.840136,40.3262169 C57.8101278,40.2676072 57.7845739,40.2064186 57.7533935,40.1485121 C57.6804829,40.0127719 57.7965303,40.2518997 57.7977025,40.2603395 C57.7653499,40.0221494 57.6221076,39.7694241 57.5653733,39.5307651 C57.5398195,39.4231575 57.5180166,39.3146122 57.4992615,39.2058325 C57.4418239,38.8726945 57.5112179,39.4104978 57.4929317,39.1573036 C57.4755832,38.9186446 57.4617513,38.6818611 57.4650334,38.4422643 C57.4683156,38.2157961 57.4823819,37.9895624 57.5051225,37.764032 C57.5116868,37.6988579 57.5201266,37.6336838 57.5269253,37.5685097 C57.5435705,37.4074501 57.5100457,37.6960446 57.5095768,37.6969824 C57.5522448,37.5804661 57.5527136,37.4252675 57.5752198,37.3019525 C57.6685266,36.7953296 57.793717,36.295271 57.9329739,35.7996667 C58.5148517,33.7295694 59.3642246,31.7094077 59.5503692,29.548348 C59.8450592,26.1316325 58.7298324,22.8159602 56.6496542,20.1236615 C54.5997187,17.4702798 51.7977025,15.465591 48.8543195,13.9070398 C47.3386707,13.1045548 45.7637088,12.412725 44.1650686,11.792868 C43.4317431,11.5082589 42.6911499,11.2419361 41.9451647,10.9922584 C41.539585,10.8562837 41.1185324,10.6799855 40.6944321,10.6230168 C40.6201149,10.6131704 40.5457977,10.603324 40.4714805,10.5932431 C40.4229516,10.5866788 40.915977,10.6586516 40.7361622,10.6284089 C40.6932599,10.6211413 40.6498886,10.6157492 40.6067518,10.6087161 C40.5115696,10.593712 40.4166217,10.5773012 40.3216739,10.5597183 C38.3702028,10.1975099 36.4834369,9.45644786 34.6456687,8.72640449 C34.086297,8.50415621 33.5290353,8.2762814 32.9729457,8.04559333 C32.6733326,7.92110616 32.3741883,7.79568124 32.0752784,7.66978744 C31.8624077,7.5802317 32.4011488,7.80763763 32.1381081,7.69627906 C32.0668386,7.66627085 31.9955691,7.63602821 31.9245341,7.60578557 C31.770742,7.54061149 31.6169499,7.47543742 31.4631579,7.40979447 C30.2086742,6.87574219 28.9570039,6.3344223 27.7032235,5.79872895 C25.0221779,4.65349392 22.3326925,3.52209081 19.5913961,2.52783456 C17.1689368,1.6491568 14.6939632,0.855814871 12.1545188,0.394673152 C9.93391162,-0.00856210734 7.57920525,-0.227997109 5.36867894,0.361851678 C3.38555855,0.891215176 1.65844567,2.18156801 0.746711992,4.04231118 C0.48273356,4.58128668 0.261657484,5.14769156 0.104583284,5.72722502 C-0.184011253,6.79157856 0.17116399,7.95650647 0.603704138,8.9327109 C1.36633454,10.6537284 2.87330911,11.9712761 4.24595006,13.2032536 C5.27748212,14.1290536 6.2269605,15.0740777 7.11103036,16.139369 C6.77625132,15.7358993 7.08641425,16.1102985 7.16729574,16.2209538 C7.2575548,16.3440343 7.34593834,16.468287 7.43244637,16.593712 C7.58928613,16.820649 7.74026492,17.0513371 7.88561716,17.2855417 C8.18101043,17.761922 8.45295979,18.2526031 8.70193412,18.7545372 C8.82900012,19.0107791 8.95020513,19.2698343 9.06554917,19.5314684 C9.08875864,19.5837483 9.11149924,19.6364971 9.13423983,19.6890114 C9.26107139,19.9799504 9.03624429,19.4470703 9.10423163,19.6175075 C9.1574493,19.7511378 9.21277693,19.8840648 9.26505685,20.018164 C9.47230102,20.5501063 9.65750791,21.0904884 9.82325636,21.6364971 C10.1634275,22.7578193 10.4208416,23.9032888 10.6170672,25.0581358 C10.6665338,25.3488403 10.712015,25.6402481 10.7539796,25.9318904 C10.7640605,26.0029254 10.7736725,26.073726 10.7837534,26.1447611 C10.8163404,26.3735736 10.7347556,25.7654386 10.7703903,26.0451244 C10.7898488,26.1984476 10.8093072,26.3515364 10.827359,26.5048595 C10.8993318,27.1151045 10.9572383,27.7269906 11.0036573,28.33958 C11.0986051,29.5957047 11.1452585,30.855346 11.1612003,32.1149873 C11.1940218,34.7020228 11.0993084,37.2888239 10.9926386,39.8732806 C10.8857344,42.4610194 10.7626539,45.0492271 10.7378033,47.6393104 C10.7143594,50.083338 10.7741414,52.5358055 11.071879,54.9636569 C11.354847,57.2717098 11.8019224,59.5689786 12.6897433,61.7276939 C13.570531,63.8692951 14.7837534,65.8472578 16.4621029,67.4616055 C18.3181573,69.2463904 20.5887,70.4964197 23.0095182,71.338525 C24.3186262,71.7938057 25.6699332,72.1168628 27.0350721,72.3503642 C27.7576134,72.474148 28.5851834,72.1590619 28.7654671,71.3680643 C28.9206658,70.686081 28.5584574,69.7703618 27.7829328,69.6376693 C26.3955222,69.4001825 25.0226468,69.0705611 23.693846,68.6035584 C23.382042,68.4938409 23.0730512,68.3768558 22.7673426,68.2518997 C22.5584574,68.1665639 22.750463,68.2415844 22.8648693,68.2945677 C22.7875044,68.2586985 22.7080295,68.2272836 22.6301958,68.1928211 C22.4857813,68.1290536 22.3423045,68.0636451 22.1997656,67.9961267 C21.6692299,67.7450424 21.1511194,67.4672321 20.6503575,67.1610546 C20.4100574,67.0140613 20.1739773,66.8607381 19.942117,66.7006162 C19.8323995,66.6246579 19.7233853,66.547293 19.6157778,66.4685215 C19.5623256,66.4293701 19.509108,66.3897499 19.4561247,66.3501297 C19.4336186,66.3330157 19.4111124,66.3156672 19.3883718,66.2987876 C19.2191068,66.1728938 19.6425038,66.4994674 19.5170789,66.3979553 C19.1009495,66.0613007 18.6958387,65.7157375 18.3148752,65.3389939 C17.9442269,64.9725655 17.5946782,64.5850377 17.2678701,64.1792236 C17.2289532,64.1306947 17.1907397,64.0814625 17.1515883,64.0326992 C17.0181925,63.8664818 17.3787598,64.3332501 17.2252022,64.1271781 C17.1454929,64.0202739 17.0660181,63.9136041 16.9886531,63.8050588 C16.8393154,63.5954702 16.6958387,63.3818962 16.5577541,63.1648056 C16.2764271,62.7221846 16.019013,62.2645594 15.784105,61.7954468 C15.6718087,61.571323 15.5649045,61.3446204 15.462689,61.1155734 C15.4333841,61.0499304 15.4052514,60.9838186 15.376181,60.9179412 C15.2889696,60.7214813 15.5147345,61.2541269 15.4336186,61.0548537 C15.3789943,60.9207545 15.3239011,60.7871242 15.2713867,60.6520873 C14.8819834,59.6507979 14.5800258,58.6169214 14.3434767,57.5694475 C14.2210995,57.0264865 14.1163052,56.4795401 14.0262806,55.9302493 C13.9803306,55.650329 13.9411792,55.3697054 13.8996835,55.0890818 C13.8776462,54.9392752 13.9381315,55.3603278 13.9301606,55.3167222 C13.9233619,55.2782741 13.9198453,55.2381851 13.914922,55.1992682 C13.9060134,55.1305775 13.8973391,55.0618868 13.8888993,54.9931962 C13.8706131,54.8452651 13.8532646,54.6970996 13.8366194,54.5491685 C13.7060368,53.3729875 13.6296097,52.19118 13.5878795,51.0086692 C13.499496,48.5025151 13.5642011,45.9935478 13.6579768,43.488566 C13.7545657,40.9111425 13.8865549,38.3348912 13.9477435,35.7562955 C14.0072911,33.2529547 14.0037745,30.7432841 13.8096589,28.2453354 C13.6195288,25.7947435 13.2674012,23.3319607 12.5612707,20.9728 C11.8980424,18.757116 10.9260579,16.5960563 9.54544602,14.7317966 C8.7281913,13.6282917 7.81364436,12.6452886 6.79852303,11.7218329 C6.11864963,11.1029137 5.42189661,10.5015774 4.76945258,9.85335326 C4.45108428,9.53732935 4.14326574,9.21005236 3.85771891,8.8637858 C3.79160708,8.78384207 3.62609307,8.51001719 3.82466299,8.82908881 C3.77003868,8.74140859 3.69947251,8.66029266 3.64039386,8.5754257 C3.51426562,8.39467315 3.39540499,8.20876294 3.28685969,8.01675732 C3.18698863,7.83975579 3.11079592,7.65197007 3.01537921,7.47332747 C3.01420701,7.47098308 3.11642246,7.75395108 3.07563006,7.60977103 C3.06015707,7.55491228 3.03530653,7.50192904 3.0165514,7.44777361 C2.97904114,7.33899386 2.94528191,7.22904193 2.91550815,7.11791779 C2.88948541,7.02015668 2.86627593,6.92145782 2.84681749,6.82205564 C2.83861212,6.77938772 2.8325167,6.73578205 2.82360802,6.69311413 C2.78539444,6.508845 2.85150627,6.99436838 2.83837768,6.80541046 C2.83134451,6.70296057 2.83181339,6.59418083 2.81610597,6.49337202 C2.80625952,6.4303079 2.83978432,6.29269214 2.79500645,6.51751924 C2.74647755,6.76086703 2.78656664,6.58199 2.80344625,6.52713125 C2.87776345,6.28495565 2.94270308,6.0418423 3.02991443,5.80365217 C3.05828156,5.72605283 3.21605908,5.33969718 3.0962607,5.62407182 C2.97669675,5.90868089 3.14924393,5.51599539 3.18651975,5.44074044 C3.28592193,5.23982612 3.39563943,5.04383503 3.51637557,4.85464268 C3.5728754,4.76649357 3.63148517,4.6797511 3.69267378,4.59464971 C3.70861564,4.57214355 3.78949713,4.49032431 3.78480835,4.4699281 C3.78410503,4.4668804 3.53981948,4.7744645 3.6460204,4.65068065 C3.66500996,4.62840894 3.6825929,4.60519947 3.70111359,4.58269331 C3.83380612,4.42210253 3.97611066,4.26924823 4.12662056,4.12506818 C4.19835893,4.05661196 4.27220724,3.98979682 4.34769664,3.92532607 C4.38544133,3.89320791 4.42412378,3.86249639 4.46186848,3.83061267 C4.66958153,3.65548666 4.21289415,4.00972414 4.34464893,3.92087172 C4.69091548,3.68807369 5.03225882,3.47684406 5.41111241,3.29937366 C5.66079006,3.18262298 5.12251788,3.41331106 5.27466885,3.35587348 C5.31546126,3.3404005 5.35578478,3.32328644 5.39657719,3.30757902 C5.50629469,3.26514555 5.61741883,3.22599422 5.72924628,3.18942172 C5.93672489,3.12166882 6.14748564,3.06352792 6.35988747,3.01406127 C6.57979135,2.9627191 6.80157074,2.9207545 7.02475677,2.88676083 C7.09344743,2.87621107 7.32507326,2.84479623 7.02686672,2.88511976 C6.72701911,2.92544328 6.96544368,2.89402844 7.03132106,2.88652639 C7.15299496,2.87292893 7.27490329,2.86144141 7.39704607,2.85182941 C7.89171258,2.81314695 8.38872348,2.80728598 8.88456218,2.82486891 C9.41767671,2.84409292 9.94961904,2.89051186 10.4789825,2.95685812 C10.5073497,2.96037471 10.5357168,2.96412574 10.5640839,2.96764232 C10.7722659,2.99272731 10.3458211,2.93950963 10.3610597,2.93997851 C10.4276404,2.94302622 10.4956277,2.95896808 10.5617395,2.96858008 C10.7068573,2.9896796 10.8515063,3.01242019 10.9961552,3.03609854 C11.2821709,3.08345524 11.5672489,3.13573516 11.8516235,3.19200055 C13.0768023,3.4351139 14.2860392,3.75488884 15.4814441,4.11592506 C18.0855937,4.90246825 20.6290236,5.88172039 23.1452585,6.91184582 C23.7894971,7.17558981 24.4318603,7.44355371 25.0735201,7.71362755 C25.2927207,7.80576212 24.7626539,7.58210722 25.0350721,7.69721682 C25.1119681,7.72980385 25.1888641,7.76239089 25.2659946,7.79497792 C25.4303364,7.86460634 25.5949127,7.93446919 25.7592545,8.00456648 C26.0752784,8.13890009 26.3913023,8.27393701 26.7068573,8.40920838 C27.9320361,8.93364865 29.1553394,9.46230883 30.3819247,9.98299808 C32.5980776,10.9238022 34.8219669,11.8742183 37.1136092,12.6180936 C37.9388348,12.8860575 38.7769546,13.1289364 39.6317196,13.2829629 C39.7196343,13.2989048 39.8077834,13.3139089 39.8961669,13.3275063 C39.9390693,13.3340706 39.9819716,13.3401661 40.024874,13.3464959 C40.155691,13.3650166 40.3073731,13.3685332 40.4351424,13.4015891 C40.5643184,13.4353483 40.2121908,13.3739253 40.2060954,13.3837717 C40.2337592,13.3406349 41.2101981,13.7091732 41.3086625,13.7424636 C42.0426914,13.9900313 42.7715625,14.2537753 43.4934005,14.5351022 C43.6713398,14.6044962 43.8490447,14.6750623 44.0262806,14.7468007 C44.1153675,14.7826699 44.2044543,14.8190079 44.2930723,14.8555804 C44.3514477,14.8794932 44.6911499,15.0220322 44.4681983,14.9275532 C44.2417302,14.8314332 44.5615051,14.9676423 44.6051108,14.9863975 C44.6941976,15.024611 44.7830501,15.0632935 44.8719025,15.1022104 C45.0625015,15.1859051 45.252866,15.2707721 45.4422928,15.3572801 C46.1791349,15.6934658 46.9058961,16.0514543 47.6195288,16.4349967 C48.3317548,16.8176013 49.0306177,17.2255253 49.71096,17.6627543 C50.0480835,17.8796104 50.3805181,18.1034998 50.7075607,18.3351256 C50.8644004,18.4462498 51.020068,18.5592494 51.1743289,18.6741246 C51.2509905,18.7313277 51.3271832,18.7892342 51.4036104,18.8469062 C51.476052,18.9015305 51.5766264,19.0161712 51.3135857,18.7772778 C51.3534404,18.8133814 51.3996249,18.8447962 51.4420584,18.878321 C52.0539444,19.3629067 52.64098,19.8796104 53.1921463,20.4324178 C53.472301,20.7132759 53.7430782,21.0032771 54.0028367,21.3028902 C54.1144297,21.4315973 54.2241472,21.5621799 54.3315203,21.6944035 C54.3887235,21.7649697 54.4419412,21.840928 54.5024264,21.9089153 C54.2189896,21.5903126 54.4536631,21.846789 54.5193061,21.9351725 C54.9729457,22.5477619 55.3787598,23.1966893 55.7215098,23.8779694 C55.8026257,24.039029 55.8802251,24.2019642 55.9543078,24.3665405 C55.9986168,24.4657082 56.0905169,24.7545372 55.9505568,24.3503642 C55.984316,24.4476564 56.028625,24.5423698 56.0656664,24.6387243 C56.2009378,24.9908518 56.3190951,25.3495436 56.419435,25.7131587 C56.521416,26.0828691 56.6046419,26.4577373 56.6691126,26.8356531 C56.6848201,26.9282566 56.696542,27.0215633 56.7129528,27.1139323 C56.7401477,27.2684277 56.6892744,26.9230989 56.6899777,26.9402129 C56.6923221,26.9931962 56.7033408,27.0487583 56.7094362,27.1017415 C56.7326456,27.3057035 56.7502286,27.5103689 56.7626539,27.7152686 C56.7875044,28.1227238 56.7912554,28.5315856 56.7753136,28.9392752 C56.7675771,29.1425339 56.7546829,29.3455582 56.7371,29.548348 C56.7326456,29.6006279 56.7150627,29.6749451 56.7209237,29.7244118 C56.7206893,29.7232396 56.768046,29.425033 56.7396788,29.5907815 C56.7162349,29.7260528 56.6953698,29.8617931 56.6700504,29.9965956 C56.2893213,32.0137096 55.4650334,33.9117286 54.998734,35.9068054 C54.5125073,37.9858114 54.4660884,40.1607029 55.582253,42.054502 C55.7505802,41.4128422 55.9186731,40.7714168 56.0870004,40.1299914 C50.9867776,42.4014719 46.3540265,45.6461091 42.2199273,49.3804896 C37.9697808,53.2196644 34.2379791,57.6285262 30.9952174,62.3437999 C29.2413785,64.893794 27.6382839,67.5467069 26.1943735,70.2840179 C27.0514828,70.3960798 27.9083578,70.5081417 28.7654671,70.6202036 C28.5551752,69.9874524 28.388489,69.3413383 28.276896,68.683971 C28.2628297,68.601214 28.25017,68.5182226 28.2372758,68.4354656 C28.1896847,68.1318669 28.269394,68.7207779 28.244309,68.4910276 C28.2264916,68.3266858 28.2077365,68.1625784 28.1943735,67.9977677 C28.1692885,67.6836193 28.1563943,67.3685332 28.1559254,67.0536815 C28.1554566,66.7418775 28.1671785,66.4300735 28.1906224,66.1194416 C28.20211,65.9703384 28.2161763,65.821704 28.2328215,65.6730696 C28.2457156,65.5600699 28.2972922,65.2651455 28.221334,65.7396503 C28.2339937,65.6604099 28.2440746,65.5804661 28.2564998,65.5012257 C28.3533232,64.8874641 28.4956277,64.2809702 28.677318,63.6869015 C28.7725003,63.3755664 28.8784668,63.0677478 28.9942797,62.7636803 C29.0484351,62.6216102 29.1105615,62.4818845 29.1630758,62.3393455 C29.1724534,62.314495 29.0285078,62.6504462 29.0899308,62.5128305 C29.1042316,62.4807123 29.1178291,62.4478908 29.1318954,62.4155382 C29.1696401,62.3290302 29.2080881,62.2427566 29.2474739,62.1567175 C29.51661,61.5678064 29.8202087,60.9948373 30.1514711,60.4385133 C30.49258,59.8655441 30.8627593,59.3101579 31.2554448,58.7714168 C31.3593014,58.6288778 31.4655023,58.4884488 31.5714688,58.3477853 C31.718931,58.1524976 31.3850897,58.5843344 31.5374751,58.3920943 C31.6005392,58.312385 31.6633689,58.2322069 31.7269019,58.1529664 C31.9435236,57.8826581 32.1657719,57.6165698 32.3927089,57.3547013 C33.3379674,56.2636217 34.3638729,55.2435771 35.4390107,54.2809702 C35.9873637,53.7902891 36.5488454,53.3141433 37.1208768,52.8513605 C37.2596648,52.7392986 37.399156,52.6277056 37.5391162,52.5170504 C37.6038214,52.4657082 37.668761,52.4148349 37.7337006,52.3639616 C37.7770719,52.329968 37.820912,52.2964432 37.8640488,52.2622151 C38.0049467,52.1508565 37.6324229,52.439451 37.7754308,52.3306713 C38.0717618,52.104672 38.3683273,51.8791416 38.6684093,51.6580655 C41.0578127,49.8974278 43.5836596,48.3245759 46.1793694,46.8874641 C48.4428789,45.6343871 50.7635916,44.4828223 53.1283789,43.4334728 C53.3792287,43.3223487 53.6305474,43.2121623 53.8825695,43.1033826 C54.5603329,42.8100992 54.7645294,41.764032 54.3870824,41.178872 C53.9334427,40.4753202 53.1879264,40.360445 52.4625718,40.6741246" id="Fill-3" fill="#986A5D" fill-rule="nonzero" mask="url(#mask-2)"></path>
                </g>
                <path d="M53.0927441,48.2842574 C53.8148166,46.8769195 53.7463603,45.1542609 53.5925683,43.6229047 C53.4136912,41.8411675 53.0782089,40.068339 52.5952643,38.3438049 C52.4161529,37.7040206 52.2173485,37.0670496 51.9660298,36.4514125 C51.8420115,36.1478139 51.718931,35.8343688 51.5574024,35.5471809 C51.3515649,35.1814559 51.108686,34.8424569 50.921838,34.4643066 C50.8613527,34.3423983 50.8142305,34.2078303 50.7471809,34.0894385 C50.9412964,34.4324229 50.7401477,34.0664635 50.698652,33.9569804 C50.5952643,33.6831556 50.5028953,33.4053452 50.4192006,33.124956 C50.2583753,32.5873872 50.1284961,32.0409096 50.0082288,31.4930254 C49.7594889,30.3590435 49.5543547,29.2126363 49.2160591,28.1002227 C48.862056,26.936467 48.3650451,25.7992029 47.6403939,24.8166686 C46.8740124,23.7776345 45.9838471,22.9186496 44.9509085,22.1466417 C42.9495018,20.6513891 40.5385301,19.7738835 38.1378736,19.1610597 C35.5161411,18.491736 32.8435353,18.0535693 30.228836,17.3500176 C27.5988981,16.6420115 25.0130348,15.7703669 22.4914078,14.7414137 C21.2774821,14.2460438 20.0762162,13.7689603 18.7511663,13.6873755 C17.4575314,13.6076662 16.0799672,14.0835775 15.2322354,15.0916657 C13.6647755,16.955691 14.1127887,19.5516352 15.1051694,21.5762513 C15.3098347,21.9933185 15.5510726,22.3904583 15.8248974,22.7655609 C16.0473801,23.0703317 16.288618,23.3082874 16.6653616,23.4121439 C17.0022506,23.5047474 17.4504982,23.4627828 17.749408,23.2703083 C18.3364436,22.8916891 18.717876,21.9813621 18.253921,21.3457977 C17.9800961,20.9704607 17.7393272,20.5733208 17.5344274,20.1562537 C17.487774,20.0615403 17.4441683,19.9654202 17.4005627,19.8693002 C17.3051459,19.6597116 17.4436994,19.9689368 17.449326,19.9862853 C17.4336186,19.9370531 17.4097058,19.8878209 17.3911851,19.8390576 C17.3020982,19.6062595 17.22403,19.3692416 17.1593248,19.1284726 C17.1023561,18.9167741 17.060626,18.7034345 17.0212402,18.4882194 C16.9783378,18.2523737 17.0575782,18.8544133 17.0249912,18.4886883 C17.0139726,18.3663111 17.0074083,18.243465 17.0060016,18.1206189 C17.004595,18.0242644 17.0064705,17.92791 17.0118626,17.8317899 C17.0144414,17.7844332 17.0195991,17.7370765 17.0219435,17.6897198 C17.0360098,17.4245692 16.9652092,18.0001172 17.0020162,17.8193647 C17.0437463,17.6151682 17.0885242,17.4194116 17.1548705,17.221545 C17.2509905,16.9336537 16.9982652,17.5305357 17.162607,17.2187317 C17.2045716,17.1392568 17.2505216,17.0618919 17.3002227,16.9871058 C17.4889462,16.7048412 17.1325988,17.1601219 17.2877974,17.0023444 C17.3696167,16.9191185 17.4519048,16.8380026 17.5363029,16.7573555 C17.6893916,16.6105966 17.4392451,16.8358926 17.4209589,16.8429258 C17.4584691,16.8281561 17.5065291,16.782675 17.5426328,16.759231 C17.6080413,16.7165631 17.6753253,16.6771774 17.7440159,16.6403704 C17.7576134,16.6331028 17.7712109,16.6258352 17.7848083,16.6185676 C17.8954636,16.5665221 17.8947603,16.5646466 17.7829328,16.612941 C17.7548001,16.624663 17.7266674,16.6361505 17.6985348,16.6478725 C17.7545657,16.6258352 17.8113,16.6056734 17.8687375,16.5873872 C17.9257062,16.5691009 17.9836127,16.5529246 18.0417536,16.538155 C18.0998945,16.5233853 18.1585043,16.5126011 18.2171141,16.499707 C18.4876568,16.4401594 17.9013246,16.5090845 18.2009378,16.5029891 C18.4492088,16.4980659 18.6888055,16.497597 18.9370765,16.5158832 C19.2134802,16.536045 18.841191,16.5090845 18.8440042,16.5020513 C18.8475208,16.4931427 19.0545305,16.5390927 19.0791466,16.5437815 C19.2216856,16.5719142 19.3632868,16.6047357 19.5037159,16.6413082 C20.0731684,16.7892392 20.6250381,16.9976556 21.1698746,17.2184972 C23.5623256,18.1886063 25.9800961,19.0686907 28.4635096,19.7799789 C30.9675536,20.4973626 33.5152034,20.9854648 36.0539444,21.5551518 C37.3206189,21.8395264 38.581198,22.1630524 39.8047357,22.5998124 C40.0680108,22.6938225 40.3296448,22.7927558 40.5887,22.898019 C40.6128473,22.9078654 40.7199859,22.9671785 40.7556207,22.9667096 C40.6988864,22.9430313 40.6423866,22.9193529 40.5858868,22.8956746 C40.6273825,22.913492 40.6688782,22.9315438 40.7101395,22.9500645 C40.8346267,23.0046888 40.9581761,23.0611886 41.0810222,23.1190951 C41.5738132,23.3511898 42.0546478,23.608135 42.5193061,23.8922752 C42.7382722,24.0259055 42.9534873,24.1661001 43.1644825,24.3121557 C43.2634158,24.3808463 43.3614113,24.4507092 43.4584691,24.5222131 C43.478162,24.5365139 43.6425038,24.6483413 43.6389872,24.6574845 C43.6441449,24.6443559 43.3675067,24.4429727 43.6019458,24.632165 C44.0086977,24.9601454 44.3938811,25.3153206 44.7488219,25.6986285 C44.9206658,25.8843043 45.0819599,26.0777166 45.2418474,26.2737077 C45.3585981,26.4169499 45.0775056,26.0500527 45.1846442,26.2010315 C45.2275466,26.2615168 45.2727933,26.3205955 45.3156957,26.3810808 C45.4015004,26.5025202 45.4842574,26.6260696 45.5639667,26.7514945 C45.6919705,26.9531122 45.8117688,27.1601219 45.9221897,27.3718204 C45.9791584,27.481069 46.0337827,27.5917243 46.0860626,27.7033173 C46.1188841,27.7734146 46.1495956,27.8449185 46.1819482,27.9152503 C46.2557965,28.0753722 46.0741062,27.6367366 46.1660063,27.87985 C46.9504396,29.9513539 47.1344743,32.1750088 47.8316962,34.2701911 C48.0293283,34.8637909 48.2675185,35.4515297 48.5547064,36.0073848 C48.731239,36.3494315 48.9588794,36.6579533 49.1431485,36.994139 C49.1872231,37.0743172 49.2275466,37.1568398 49.266229,37.2398312 C49.2908452,37.2930489 49.3138202,37.3469699 49.3379674,37.4001876 C49.3998593,37.5359278 49.1902708,37.038448 49.2451295,37.1795804 C49.2582581,37.2133396 49.2725589,37.2466299 49.2861564,37.2803892 C49.3979838,37.5591373 49.4976204,37.8425741 49.5911616,38.1278865 C50.0752784,39.6046185 50.4196694,41.1350369 50.658094,42.6696753 C50.6745047,42.7754073 50.6904466,42.8811394 50.7056851,42.9871058 C50.7122494,43.0339937 50.7185793,43.0808815 50.725378,43.1277693 C50.7523385,43.3141484 50.6754425,42.7346149 50.7077951,42.9990622 C50.733349,43.2070097 50.7584339,43.4147228 50.779299,43.6229047 C50.8182159,44.0104325 50.8470519,44.3988981 50.860415,44.7878326 C50.8726058,45.142539 50.8728402,45.4981831 50.8519751,45.852655 C50.842832,46.0090259 50.825718,46.1642246 50.8111827,46.3201266 C50.7959442,46.4823585 50.8676826,45.9431485 50.8407221,46.1023327 C50.8336889,46.1442973 50.8280624,46.1864963 50.8210292,46.2284609 C50.8088384,46.3013715 50.7950064,46.3738132 50.779299,46.4460204 C50.7521041,46.5730864 50.7195171,46.6989802 50.6789591,46.8222952 C50.6611417,46.8759817 50.6379322,46.9284961 50.6212871,46.9824171 C50.7675771,46.5067401 50.7314734,46.7320361 50.6634861,46.8642598 C50.3280038,47.5183449 50.4714805,48.420701 51.1682335,48.7890048 C51.8115344,49.1289415 52.7340523,48.9833548 53.0927441,48.2842574" id="Fill-6" fill="#986A5D" fill-rule="nonzero"></path>
                <path d="M30.3485875,36.6794514 C30.5804478,37.5682101 30.7703435,38.4670496 30.9154613,39.3740945 C30.9480483,39.5778221 31.02049,39.8178877 31.0118157,40.0241941 C31.0122846,40.0166921 30.9782909,39.7559958 30.9975149,39.9215098 C31.0038448,39.9756652 31.0111124,40.0300551 31.0179111,40.0842105 C31.0333841,40.2108076 31.0479194,40.3376392 31.0617513,40.4644708 C31.1112179,40.9171727 31.1506037,41.3708123 31.1803774,41.8253898 C31.299707,43.6488571 31.2638378,45.4805298 31.1135623,47.3009495 C31.0758176,47.7595124 31.0305709,48.2173719 30.9789943,48.6745282 C30.9541437,48.8946665 30.9276521,49.114336 30.8999883,49.3340054 C30.8931895,49.3867542 30.8495839,49.720361 30.8746689,49.531872 C30.8997538,49.3452585 30.8744344,49.5328098 30.8699801,49.5646935 C30.8596648,49.6380729 30.8493494,49.7112179 30.8390341,49.7845974 C30.7047005,50.7218849 30.5457508,51.6556558 30.3668738,52.5856758 C30.0140429,54.4215684 29.5845505,56.241988 29.1142656,58.0511546 C28.5839644,60.0898371 28.0011488,62.1142187 27.4120033,64.1364904 C27.2061657,64.842621 27.6612121,65.6999648 28.3945376,65.8668855 C29.1470871,66.0382605 29.9043254,65.6406517 30.1246982,64.8843512 C31.189755,61.22968 32.2365256,57.562818 32.9829797,53.8272653 C33.7308405,50.0842105 34.2069863,46.2476146 34.0271715,42.4253194 C33.9244872,40.2387059 33.6143242,38.0506857 33.0612824,35.9315907 C32.8756066,35.2195991 32.0470988,34.7174305 31.3311218,34.9490564 C30.5977963,35.1865432 30.1495487,35.9163521 30.3485875,36.6794514" id="Fill-8" fill="#986A5D" fill-rule="nonzero"></path>
                <path d="M57.5235494,64.1742351 C52.2812566,65.9887938 51.8006564,75.8300785 56.2929785,79.0857344 C60.7853007,82.3413902 67.5969288,80.6074786 71.1737663,76.3667096 C73.5652796,73.5314031 74.7623256,69.9135389 76.2350721,66.5092486 C81.1137499,55.2301489 89.7929199,45.3954284 100.977306,40.3034111 C105.939913,38.043887 111.499168,36.6107608 115.384527,32.7844801 C119.269652,28.9584339 119.437979,21.4383308 117.08046,18.6639784 C114.250311,15.3349431 107.65296,14.6604618 103.691642,16.7082874 L103.660462,16.7408745 C104.48475,15.2831321 105.13438,13.7210644 105.455797,11.8019458 C106.222647,7.2177236 104.123948,4.04177705 99.9514008,1.99418591 C95.0539679,-0.40881491 89.1334427,2.54629 86.036971,7.03720549 C82.9404994,11.5278865 82.2402298,13.6516704 80.4132458,18.7917477 C77.1521979,27.9700387 71.2206541,36.1817372 63.5331614,42.1625132 C60.8757942,44.4281327 58.5173368,44.1587622 55.2255773,45.3232212 C51.4602508,46.6553042 47.1824405,46.4014066 43.6618685,48.2872348 C38.9210409,50.8269136 36.8235142,57.356746 39.1995546,62.1819716 C41.5746571,67.0069628 49.3059899,69.5705544 54.2095182,67.3619036" id="Fill-10" fill="#FFF7F0" fill-rule="nonzero"></path>
                <path d="M62.5481421,41.2340171 C62.1517055,41.5687962 61.7344039,41.8768491 61.2892041,42.1438753 C61.2392685,42.1738835 61.1888641,42.2034228 61.1382253,42.2322588 C61.0983706,42.2552339 60.9298089,42.347134 61.0929785,42.2594538 C61.254976,42.1724768 61.0887586,42.2603915 61.0477318,42.2812566 C60.9977963,42.3068105 60.9476263,42.331661 60.8972219,42.3560427 C60.6871645,42.4580237 60.473356,42.5515649 60.2564998,42.6371352 C59.8448248,42.7996015 59.4228344,42.9339351 58.9963896,43.0513891 C58.8927676,43.0799906 58.788911,43.1076544 58.6848201,43.1346149 C58.3718439,43.2154964 58.9366077,43.0743641 58.6205838,43.1510257 C58.3931778,43.2063533 58.165303,43.2593365 57.9371938,43.3120853 C56.8873755,43.5554331 55.8352128,43.7997187 54.8123549,44.1419998 C54.2900246,44.3168913 53.7716798,44.4936584 53.2385652,44.6347908 C53.1740945,44.6519048 53.1096237,44.6680811 53.045153,44.6849607 C52.8627593,44.7325519 53.2671668,44.6336186 53.0831321,44.6748798 C52.9691947,44.7001993 52.8557262,44.728332 52.7417888,44.7538858 C52.4480366,44.8197632 52.1531122,44.8802485 51.8577189,44.9372172 C49.6183566,45.3697574 47.3412496,45.617325 45.1562771,46.2997773 C43.1937874,46.9126011 41.4554214,47.9394444 40.038237,49.4297738 C37.5191888,52.0794045 36.4227171,55.9242058 36.9459852,59.511593 C37.2097292,61.3193529 37.9606377,62.9916071 39.0979018,64.414418 C40.1608487,65.7446255 41.5843629,66.8164811 43.0936819,67.5917712 C46.3498066,69.2640253 50.2429024,69.9593717 53.8019224,68.8968937 C54.157801,68.7906928 54.5057086,68.6610479 54.844942,68.5098347 C55.4540148,68.2385887 55.7817606,67.5298793 55.3911851,66.9280741 C55.0172547,66.3522916 54.1774938,65.9818779 53.510749,66.2786778 C53.1715156,66.4296565 52.8238425,66.5595358 52.4679639,66.6657367 C52.3779393,66.6924628 52.2872113,66.7168444 52.1967179,66.7421639 C52.1116165,66.7658422 51.9714219,66.7738132 52.3202673,66.7121557 C52.2740828,66.720361 52.2271949,66.7341929 52.1817137,66.7442738 C51.9955691,66.7862384 51.8082523,66.8225765 51.6199977,66.8535224 C51.2369242,66.9165866 50.8505685,66.9578478 50.4630407,66.9796507 C50.3648107,66.9850428 50.2665807,66.9892627 50.1683507,66.9923104 C50.1116165,66.9939515 49.7974681,67.001688 50.049959,66.995827 C50.3099519,66.9897316 49.9428203,66.9927793 49.8931192,66.9918415 C49.7808229,66.9892627 49.6685266,66.9855117 49.5564647,66.9801196 C49.1534638,66.9604267 48.7516352,66.9217442 48.352151,66.8657133 C48.1631931,66.8389872 47.9749385,66.8085101 47.7871527,66.7740476 C47.6992381,66.7578713 47.6115578,66.7409917 47.5241121,66.7234087 C47.4739421,66.7130934 47.4240066,66.7023092 47.374071,66.6919939 C47.0885242,66.633853 47.7245575,66.7773297 47.4415895,66.7067636 C46.6562185,66.5103036 45.8874927,66.2697691 45.141273,65.9537452 C44.9647404,65.8789591 44.7924276,65.7957332 44.6168327,65.7190716 C45.0432775,65.9049818 44.7174071,65.7659594 44.6135506,65.7134451 C44.511804,65.6618685 44.4105263,65.6088852 44.3101864,65.5547298 C43.9559489,65.3638964 43.6101512,65.1573555 43.2753722,64.9344039 C43.1201735,64.8312507 42.9673192,64.7245809 42.8170437,64.6141601 C42.7375689,64.5557848 42.6595006,64.4955339 42.5807291,64.4359864 C42.5092252,64.3820654 42.3938811,64.2683624 42.6857578,64.5215567 C42.6395733,64.4814676 42.5905755,64.4441918 42.5436877,64.4050404 C42.2553276,64.1652092 41.9791584,63.9106084 41.7182276,63.6412378 C41.5855351,63.5043254 41.456828,63.3636619 41.3328098,63.2192475 C41.2711523,63.1475091 41.2118392,63.0738952 41.1511194,63.0014535 C41.1227523,62.9674599 41.0416364,62.8614934 41.1679991,63.024663 C41.3086625,63.2063533 41.1750322,63.0326339 41.1438518,62.9906693 C40.9223069,62.6924628 40.7195171,62.3799555 40.5404056,62.0543195 C40.4473333,61.8852889 40.3612941,61.7125073 40.2804126,61.5371469 C40.2642363,61.501981 40.2494667,61.4658774 40.2323526,61.430946 C40.1601454,61.2832493 40.3273004,61.6693705 40.2700973,61.515344 C40.2295393,61.4065643 40.1826515,61.2998945 40.142328,61.1911148 C39.9986168,60.805228 39.8804595,60.4099637 39.7876216,60.0088384 C39.7442504,59.8210526 39.7062712,59.6320947 39.6739186,59.442199 C39.6659477,59.3957801 39.6350018,59.0551401 39.6425038,59.25582 C39.6493025,59.4400891 39.6441449,59.2698863 39.6389872,59.2213574 C39.6321885,59.15759 39.6246864,59.0938225 39.6183566,59.0298207 C39.5785019,58.6197867 39.5627945,58.2074083 39.5707654,57.7957332 C39.5785019,57.3826515 39.6099168,56.9702731 39.6638378,56.560708 C39.6757942,56.4709178 39.6896261,56.3815965 39.7027547,56.2920408 C39.7470637,55.9903177 39.6539913,56.52226 39.7140077,56.2233501 C39.7548001,56.0200914 39.7972336,55.8177705 39.8474036,55.6166217 C40.0471457,54.8122612 40.3333959,54.029469 40.7009964,53.2867659 C40.7192826,53.2497245 40.8847966,52.932294 40.7858633,53.1167976 C40.6944321,53.2872348 40.8322823,53.0349783 40.860415,52.9857461 C40.9691947,52.7951471 41.0833665,52.6075958 41.2031649,52.4237956 C41.4282265,52.0784668 41.6729809,51.7460321 41.9360216,51.428836 C42.0593365,51.2804361 42.186637,51.1355527 42.3179229,50.9944203 C42.3877857,50.918931 42.4602274,50.8460204 42.531028,50.7717032 C42.6130817,50.685664 42.6407455,50.7386473 42.4691361,50.8298441 C42.5087563,50.808979 42.5479076,50.7545891 42.5807291,50.7236432 C42.8810456,50.4423163 43.1987106,50.17951 43.532083,49.9385066 C43.6992381,49.8177705 43.8706131,49.7024264 44.0455046,49.5929434 C44.1331849,49.5378502 44.2218028,49.4843981 44.3113586,49.432587 C44.3448834,49.4128942 44.378877,49.394139 44.4126363,49.3746806 C44.6327746,49.247849 44.3828625,49.3735084 44.3852069,49.3887469 C44.3777048,49.3425624 45.035541,49.0743641 45.1014184,49.0455281 C45.3428906,48.9400305 45.5878795,48.8425038 45.8354472,48.7522448 C46.3315203,48.5710233 46.8372055,48.4235611 47.3471105,48.2875864 C47.4092369,48.2709413 47.5834252,48.2130348 47.3063181,48.2971985 C47.3689134,48.2782089 47.4366663,48.2660181 47.4997304,48.2512484 C47.61273,48.2247568 47.7261986,48.1992029 47.8394327,48.1743524 C48.1158364,48.1141015 48.3931778,48.0580706 48.6709882,48.0048529 C49.7240886,47.8039386 50.7849256,47.6468644 51.8406049,47.4600164 C52.954425,47.2628531 54.065432,47.0288829 55.1494784,46.7034814 C55.6561013,46.551096 56.1512367,46.3640136 56.6576251,46.2102215 C56.88128,46.1422342 57.1063416,46.0782323 57.3321064,46.0175126 C57.4486227,45.9863322 57.5653733,45.9565584 57.682124,45.9260814 C57.7585512,45.906154 57.8989802,45.8414488 57.6108545,45.9436643 C57.6786074,45.9195171 57.7536279,45.9087329 57.8234908,45.8918532 C58.7633572,45.6660884 59.7121322,45.4703317 60.6391044,45.1941625 C61.5522448,44.9222131 62.4182628,44.5382019 63.2331731,44.0433009 C63.6643066,43.7814324 64.069183,43.4813504 64.4543664,43.1559489 C64.9790411,42.712859 65.020068,41.9443676 64.505943,41.4609542 C64.0269839,41.0108311 63.1110304,40.7585746 62.5481421,41.2340171" id="Fill-12" fill="#986A5D" fill-rule="nonzero"></path>
                <g id="Group-16" transform="translate(51.797193, 14.515146)">
                    <mask id="mask-4" fill="white">
                        <use xlink:href="#path-3"></use>
                    </mask>
                    <g id="Clip-15" fill-rule="nonzero"></g>
                    <path d="M5.22728253,48.6910904 C1.61551369,49.9659702 0.0604791088,53.772558 0.00163489358,57.3590074 C-0.0269666772,59.1044065 0.319065441,60.9191996 1.09037009,62.4920516 C1.46641042,63.258433 1.95756034,63.9969162 2.5556145,64.6083334 C3.31918266,65.3890156 4.24638932,65.9577648 5.231268,66.4135145 C9.54494752,68.4097634 14.7888814,67.1534043 18.4543368,64.3907739 C20.4402705,62.8936458 21.8818365,60.7986979 22.9949534,58.5998936 C23.6152792,57.3744804 24.1514415,56.107337 24.6768195,54.8390214 C24.9351714,54.2156479 25.1897723,53.5908676 25.4509374,52.9686663 C25.5728458,52.6779618 25.6961607,52.3879606 25.8215857,52.0986627 C25.7287478,52.3124712 25.8663635,51.9980884 25.8984817,51.9261156 C25.9638902,51.7791223 26.0297676,51.6323634 26.0965827,51.4858389 C28.0808753,47.1278504 30.6243052,43.0200084 33.670138,39.3238415 C33.7146814,39.2696861 33.9938984,38.9365481 33.8112703,39.152701 C33.9048115,39.0420457 33.9983527,38.9313904 34.0925973,38.8212041 C34.2914016,38.5886405 34.4923159,38.3579524 34.6951058,38.1291398 C35.1006854,37.6717491 35.514236,37.2213916 35.9357575,36.7787706 C36.7553566,35.9181446 37.6049639,35.0858858 38.4838761,34.2857452 C39.3611473,33.4870111 40.2672544,32.7199264 41.2012598,31.9882419 C41.654665,31.6328322 42.1120557,31.279767 42.5821061,30.9463946 C42.3010136,31.1456678 42.7276928,30.8437102 42.782786,30.8047933 C42.8873458,30.730945 42.9923745,30.6573311 43.0976377,30.5841861 C43.3606784,30.4015581 43.6255946,30.2217433 43.8923863,30.0447418 C45.8726934,28.7311795 47.9566226,27.5746914 50.1237777,26.5991902 C50.2154434,26.5581634 50.9499411,26.2998115 50.9532232,26.2348719 C50.9527543,26.2421395 50.6463424,26.3649856 50.9068043,26.2550336 C50.9689306,26.2290109 51.0308226,26.2027537 51.0927145,26.1764965 C51.2636206,26.1047582 51.4347611,26.0334887 51.6061361,25.9626881 C52.1837941,25.7242635 52.7637964,25.4914655 53.3440332,25.2593708 C54.5821061,24.7640009 55.8190068,24.2667556 57.0416068,23.7341099 C59.3663049,22.7215674 61.6178581,21.5275691 63.5796445,19.9043127 C64.4726231,19.1653607 65.2877678,18.3347429 65.9441973,17.375887 C66.5572556,16.4803296 67.0261338,15.4806813 67.3862322,14.4587612 C68.0590725,12.5494891 68.3190654,10.4465704 68.1554269,8.42945633 C68.0154668,6.7044534 67.5491674,4.87676614 66.4109656,3.52827241 C65.0629407,1.93127323 63.0137085,0.941940208 61.0137085,0.457354579 C58.697919,-0.103892637 56.3228165,-0.152187092 53.9892096,0.332398537 C52.9750261,0.543159291 51.9934295,0.892473557 51.0709116,1.36416504 C50.5305295,1.64056874 50.2276342,2.40062032 50.7035456,2.87864165 C51.2188427,3.39628319 52.0351597,3.40425412 52.6554856,3.08705801 C52.7565288,3.03548141 52.8580409,2.985077 52.9609597,2.93701699 C53.0172251,2.91075981 53.0814614,2.89012917 53.1346791,2.85801101 C53.1192061,2.86738857 52.8144353,2.98882803 53.0223828,2.90677434 C53.2404111,2.82050075 53.4586739,2.73680599 53.6816255,2.66319211 C53.9090314,2.5881716 54.1390162,2.52112202 54.3708765,2.46157448 C54.4754363,2.43461399 54.580465,2.40906012 54.6854938,2.38514733 C54.738477,2.37319094 54.7916947,2.3621723 54.8446779,2.34998147 C55.1396023,2.28246301 54.497708,2.41093564 54.7970868,2.35865572 C55.2901122,2.272851 55.7845443,2.2062703 56.2838996,2.17204219 C56.5230275,2.15586589 56.7623898,2.14578501 57.0017521,2.14179954 C57.1217849,2.13968959 57.5341633,2.18118531 57.0929489,2.13757964 C57.2329091,2.15141155 57.3773236,2.14437837 57.5182215,2.15094267 C58.0278921,2.17438658 58.5363905,2.22572874 59.0404346,2.30450028 C59.2772181,2.34154166 59.5114227,2.38842948 59.7465651,2.43461399 C59.92216,2.46907653 59.4743813,2.36990879 59.6481007,2.41187339 C59.7158536,2.42828413 59.7840754,2.44375711 59.8518283,2.46063673 C59.9866308,2.49439596 60.1209644,2.53026514 60.2545947,2.56824428 C60.7274584,2.70304676 61.1925855,2.8657475 61.6443497,3.06033196 C61.7357809,3.09971773 61.8405752,3.1702839 61.9373986,3.19185229 C61.7062416,3.14027569 61.7552394,3.10276543 61.8541727,3.15434204 C61.9010605,3.1787237 61.9486517,3.20193317 61.9955395,3.2260804 C62.2161467,3.34048669 62.4320651,3.46333278 62.6425914,3.59532199 C62.8273294,3.71113491 63.0076131,3.833981 63.1825047,3.9640947 C63.2282203,3.99808837 63.5184559,4.22221216 63.3613817,4.09983494 C63.1979776,3.97230007 63.3923277,4.12843652 63.4141305,4.14742608 C63.4610183,4.18868737 63.5072028,4.23065197 63.5529184,4.27308544 C63.8464362,4.5450348 64.0998649,4.84183471 64.3415716,5.15926526 C64.424563,5.26827944 64.2025492,4.93631367 64.270771,5.05611205 C64.2942149,5.09737333 64.3221131,5.13652466 64.3467293,5.17708263 C64.3870528,5.2434289 64.4257352,5.31071292 64.4632455,5.37870026 C64.5553801,5.54632422 64.6390748,5.71863696 64.715502,5.89399741 C64.7870059,6.05857366 64.85218,6.22596318 64.9114931,6.39546266 C64.9403291,6.47775078 64.9679929,6.56050779 64.9940156,6.64349923 C65.0106608,6.69624803 65.0261338,6.7494657 65.0423101,6.80244894 C65.09459,6.97147954 65.0409034,6.83855256 65.0296504,6.74852795 C65.0821647,7.16278184 65.2193116,7.57305028 65.2774525,7.989883 C65.3395789,8.43461399 65.3759169,8.88262711 65.3902177,9.33134356 C65.4049874,9.80092509 65.3904521,10.2691 65.3627883,10.7379782 C65.3508319,10.9384236 65.3672427,10.7166442 65.367946,10.6864016 C65.3663049,10.7525134 65.3559896,10.819563 65.3494253,10.8854404 C65.3372345,11.0054732 65.3238714,11.1252716 65.3088673,11.2448355 C65.2786247,11.4856045 65.2425211,11.7259046 65.2000876,11.9650325 C65.0291815,12.9304527 64.7602798,13.8806344 64.3833018,14.7862726 C64.3626711,14.8362082 64.3432127,14.8882537 64.3195343,14.9367825 C64.4351128,14.6981235 64.3629056,14.838787 64.3378206,14.8910669 C64.2853062,15.0014877 64.2346674,15.1126119 64.1802775,15.2220949 C64.0661056,15.4525486 63.9444318,15.6792512 63.8145525,15.901265 C63.5700325,16.3188011 63.2969109,16.7199264 62.9942501,17.0973733 C62.9642419,17.1348836 62.9283727,17.1930245 62.8927379,17.2218605 C62.9114931,17.206622 63.0788826,17.0103964 62.9356403,17.1677051 C62.8636675,17.246711 62.7933357,17.3271237 62.7197219,17.4051919 C62.5206831,17.6164215 62.3103912,17.8173358 62.0965827,18.0135614 C61.6577127,18.4165622 61.1961021,18.7947125 60.7176119,19.1496533 C60.6580644,19.1937278 60.4822351,19.3414244 60.7054211,19.1594997 C60.6552511,19.2002921 60.5964069,19.2368646 60.5436581,19.2734371 C60.4355817,19.3491609 60.3265675,19.4234781 60.21685,19.4968576 C59.9561537,19.6710458 59.691472,19.8393731 59.4232736,20.0023083 C58.9133686,20.3122368 58.3915071,20.6020035 57.8616747,20.8765317 C57.3426266,21.1451989 56.8160763,21.398862 56.2848373,21.6419754 C56.0100747,21.7678692 55.7339054,21.8907153 55.4570329,22.011217 C55.3953754,22.0381775 55.3334834,22.0649035 55.271826,22.0916296 C55.0120674,22.2039259 55.3173071,22.0782665 55.317776,22.0719367 C55.314025,22.1150735 54.8993022,22.2484693 54.8519455,22.2683967 C53.7289822,22.7370404 52.5957036,23.1803648 51.4675826,23.6365833 C49.1996187,24.5537091 46.9693995,25.5442143 44.8432713,26.7586088 C40.7968523,29.0697095 37.0992788,32.0072315 33.8816021,35.3740115 C30.636496,38.769393 27.8333076,42.5895782 25.5569039,46.6969513 C24.3847084,48.8118265 23.3759169,51.0033633 22.4515235,53.2363957 C22.2070035,53.8274167 21.9652968,54.4196099 21.718198,55.0094587 C21.5946486,55.3043831 21.4696926,55.5986041 21.342861,55.8918875 C21.4281968,55.6944897 21.2633862,56.0721711 21.2465065,56.1096814 C21.1745337,56.2716788 21.1016232,56.4329729 21.0277749,56.5940326 C20.4986458,57.7444253 19.9148924,58.8732496 19.2176705,59.9317421 C19.0535632,60.1807164 18.8833604,60.4257053 18.7063588,60.6657709 C18.6125832,60.7930714 18.516932,60.9189652 18.4191709,61.0434523 C18.3757997,61.0990144 18.3319596,61.1541076 18.2876506,61.2089663 C18.2639723,61.2382712 18.0316431,61.5034219 18.2288064,61.2821113 C17.8825398,61.6708114 17.527599,62.0461484 17.1393679,62.3935871 C16.9560365,62.557929 16.7675474,62.7164098 16.5746041,62.8692641 C16.4721542,62.95038 16.3678288,63.0286827 16.2639723,63.1076887 C16.1847318,63.1681739 16.1573025,63.2478832 16.3204721,63.0675996 C16.2665511,63.1271471 16.1716032,63.1723938 16.1059603,63.2169373 C15.6853765,63.5034219 15.2476787,63.7648215 14.7963835,63.9999639 C14.5771829,64.1141357 14.3549346,64.2222122 14.1296386,64.3237243 C14.1000993,64.3370873 13.8433885,64.4662633 14.0525082,64.3591246 C14.2349018,64.2655834 14.0639957,64.3532636 14.0138257,64.3736598 C13.8797266,64.4282841 13.7444552,64.4807985 13.6084805,64.5309685 C13.1208472,64.7107833 12.6224296,64.8612932 12.1165101,64.9801538 C11.9922573,65.0092242 11.8597992,65.0265727 11.7378909,65.0629108 C11.7608659,65.0558776 12.0916595,64.9996122 11.8532349,65.0385291 C11.7969696,65.0476722 11.7407042,65.058222 11.6842043,65.0675996 C11.4169438,65.1116741 11.1482766,65.1466055 10.8786716,65.171925 C10.6388404,65.1946656 10.3983059,65.2099041 10.1575369,65.2169373 C10.0468816,65.2204539 9.92825545,65.208263 9.81877239,65.2218605 C10.182153,65.1763793 10.0192178,65.2249082 9.89895057,65.2216261 C9.82885327,65.2195161 9.75852154,65.2169373 9.68842425,65.2134207 C9.18320798,65.189039 8.68830703,65.118004 8.19106169,65.0289171 C7.90645262,64.9780438 8.43675387,65.0901057 8.24990591,65.0439212 C8.19598491,65.0305582 8.14159504,65.0181329 8.08767404,65.0045354 C7.96623459,64.9738239 7.84526401,64.9405336 7.72523119,64.9051333 C7.48493111,64.8338638 7.24720986,64.7527479 7.01370851,64.661551 C6.89672339,64.6158354 6.78067604,64.567541 6.66556644,64.5169021 C6.61000437,64.4925204 6.45175797,64.4632156 6.62407072,64.5004914 C6.81302863,64.5415182 6.59265588,64.4845495 6.54647137,64.4611056 C6.31976876,64.3466993 6.09775493,64.2219777 5.88230539,64.0876441 C5.67764005,63.9601092 5.47719462,63.8250723 5.28518899,63.6792512 C5.25236752,63.6544006 5.22071824,63.6276746 5.18742788,63.6035274 C5.04887437,63.5017808 5.29995865,63.6619027 5.28307904,63.6827678 C5.2816724,63.6841744 5.07114609,63.4942787 5.05215652,63.4762269 C4.77880052,63.2190472 4.53006063,62.9360792 4.30593685,62.6352939 C4.25576688,62.5680098 4.21169233,62.4934582 4.15824022,62.4294563 C4.38845942,62.7056256 4.17887086,62.4568857 4.1305764,62.3792864 C4.02249997,62.2060359 3.92145672,62.0280966 3.8272122,61.8468752 C3.64505302,61.4961543 3.48797882,61.1325392 3.35411409,60.7607188 C3.28964333,60.5818417 3.23056468,60.4010892 3.17664369,60.2186956 C3.16374953,60.1755588 3.15226202,60.1319531 3.13913343,60.0888163 C3.09318336,59.9383064 3.20923072,60.3699088 3.15366865,60.1406273 C3.12694259,60.0302065 3.0988099,59.9202546 3.0741938,59.8095993 C2.89602008,59.0122719 2.80763653,58.1950172 2.80177556,57.3782314 C2.80036892,57.1817714 2.80388551,56.9853114 2.81232532,56.7888515 C2.81677966,56.6849949 2.82334395,56.5813729 2.82967381,56.4777508 C2.83248708,56.4341451 2.8385825,56.2770709 2.83108045,56.4503214 C2.82287508,56.6437337 2.83764474,56.394056 2.84186464,56.3549047 C2.884767,55.9465118 2.94900331,55.5402288 3.0364491,55.1388691 C3.11990942,54.7567333 3.22376595,54.3788175 3.3505975,54.0086381 C3.41459938,53.8217902 3.48704106,53.6386932 3.56018606,53.4553618 C3.62559457,53.29102 3.45468846,53.6837055 3.57284577,53.4272292 C3.61785808,53.3297025 3.66451146,53.2328791 3.7132748,53.137228 C3.88488422,52.7998701 4.08017199,52.4742342 4.30124807,52.1666501 C4.3554035,52.0913951 4.41120001,52.0170779 4.46840315,51.9439329 C4.49372257,51.9118148 4.52068307,51.8806344 4.54529918,51.8478129 C4.63907482,51.722388 4.33149071,52.0864719 4.48457945,51.9209579 C4.60883217,51.7868587 4.73027163,51.6515874 4.86296416,51.5254591 C4.99425006,51.4002687 5.13256913,51.2844557 5.2732326,51.1700495 C5.29714538,51.1508255 5.3548174,51.119645 5.36888375,51.0969045 C5.36513273,51.1027654 5.08568131,51.2891445 5.24720986,51.185288 C5.31449388,51.1419168 5.37990239,51.0952634 5.44788973,51.052361 C5.6012129,50.9560066 5.75969374,50.8673886 5.92239448,50.7879137 C5.95873254,50.7700963 5.99647723,50.7543889 6.03211198,50.7358682 C6.2091135,50.6434992 5.87925768,50.8005734 5.87527222,50.8012767 C5.9692823,50.7843971 6.07266994,50.7236774 6.16269456,50.6920281 C6.70378001,50.5009603 7.35505184,49.9186135 7.01933505,49.2818769 C6.69791903,48.6721008 5.84971835,48.4714209 5.22728253,48.6910904" id="Fill-14" fill="#986A5D" fill-rule="nonzero" mask="url(#mask-4)"></path>
                </g>
                <g id="Group-19" transform="translate(62.111258, 0.000000)">
                    <mask id="mask-6" fill="white">
                        <use xlink:href="#path-5"></use>
                    </mask>
                    <g id="Clip-18" fill-rule="nonzero"></g>
                    <path d="M38.6322421,23.4448013 C40.2576084,21.0371117 42.1936065,18.7904818 43.4227708,16.1380377 C44.5832443,13.634697 45.2921882,10.6387997 44.601765,7.90430196 C43.9619807,5.37048412 42.2801146,3.33766264 40.0857645,1.95751963 C38.8202623,1.16159887 37.485366,0.491806353 36.0074619,0.197819716 C34.5644892,-0.0891337475 33.0776764,-0.0546711992 31.6393925,0.240487633 C28.9095836,0.800797093 26.3645126,2.33660767 24.4235913,4.31292932 C23.3660365,5.38994256 22.5086927,6.62473333 21.6912035,7.88812566 C20.9906995,8.97076544 20.3354422,10.0834134 19.7620041,11.2389638 C18.5722257,13.6370414 17.7359814,16.1914899 16.8319842,18.7053804 C16.7138269,19.0338296 16.5923875,19.3608721 16.4674314,19.6867425 C16.4334377,19.7755949 16.3987408,19.8644473 16.3645126,19.9530653 C16.2482308,20.2536162 16.4601638,19.7172196 16.3394277,20.0161294 C16.2681582,20.1924276 16.197592,20.3691947 16.1251503,20.5452585 C15.8353836,21.2492791 15.529675,21.9467354 15.2084934,22.6369242 C14.5930908,23.9600985 13.9211883,25.2567812 13.1958337,26.5229868 C12.4545373,27.8166217 11.6574443,29.078373 10.8076025,30.3035518 C10.3917076,30.903247 9.96338733,31.4940335 9.52264182,32.0756769 C9.2928915,32.3792756 9.05962459,32.680061 8.82307553,32.9785019 C8.72461111,33.1027547 8.62544337,33.2265385 8.52580675,33.3500879 C8.46602477,33.4239362 8.4062428,33.498019 8.34575751,33.5716329 C8.54338968,33.3310983 8.2761291,33.6546243 8.24049436,33.6975267 C6.35325956,35.9650217 4.27308139,38.0721604 2.02527926,39.9830735 C1.46942414,40.4557027 0.902784826,40.9159067 0.327236824,41.3643887 C-0.220647363,41.7915367 -0.0199674893,42.658727 0.483373268,43.0251553 C1.08400625,43.4621498 1.86445403,43.4841871 2.45266175,43.0256242 C7.08635064,39.4140898 11.0940871,34.9928027 14.2808179,30.0587973 C15.8468711,27.6339937 17.2115411,25.0786074 18.3502119,22.425929 C18.9649112,20.9937405 19.4989635,19.5329504 20.0208249,18.0651272 C20.2491686,17.422764 20.4779812,16.7806353 20.7135925,16.140851 C20.8134635,15.8700738 20.9142723,15.5995311 21.0171911,15.3296917 C21.0422761,15.2640488 21.1301908,14.9079358 21.1888005,14.8854296 C21.1695765,14.9341929 21.1503525,14.9827218 21.131363,15.0312507 C21.1503525,14.9831907 21.1693421,14.9351307 21.1885661,14.8870707 C21.2169332,14.8155668 21.2457692,14.7442973 21.2746052,14.6727933 C22.2125961,12.3555972 23.4312106,10.1996952 24.8312809,8.13123901 C25.0263342,7.84311335 25.221622,7.55475325 25.4286317,7.2750674 C25.5224074,7.14800141 25.6185274,7.02281092 25.716523,6.89902708 C25.7343403,6.87652092 25.7523921,6.85424921 25.7702095,6.83174305 C25.8536698,6.72858985 25.8424168,6.74218732 25.7366847,6.87253546 C25.7931845,6.83244637 25.8585931,6.72741765 25.9043087,6.67466885 C26.3377866,6.17179698 26.805727,5.69822998 27.3032068,5.25842222 C27.5409281,5.04813035 27.7854481,4.84534052 28.0360635,4.65099051 C28.1612539,4.55393272 28.2880855,4.45898488 28.4163237,4.36614699 C28.4728235,4.32512015 28.5302611,4.27401243 28.5916841,4.24119095 C28.2815212,4.40717384 28.6177069,4.22548353 28.6828809,4.18281561 C29.2293585,3.82388934 29.800921,3.50317665 30.394052,3.22794514 C30.5215868,3.16886649 30.6500595,3.11189778 30.7794699,3.05703903 C30.8755899,3.01648107 31.1909105,2.95036924 31.2474103,2.87042551 C31.1930204,2.94732153 31.0033592,2.95623022 31.1662944,2.90207479 C31.2453004,2.87558317 31.3238375,2.84768491 31.4033123,2.82166217 C31.5742184,2.76586567 31.7465312,2.71405462 31.9200161,2.66646349 C32.2114239,2.58628531 32.5058794,2.51853241 32.8031482,2.46343922 C32.9508448,2.43624429 33.0992448,2.41444145 33.2476447,2.39146642 C33.5418658,2.34621967 32.9224777,2.42358457 33.2183399,2.39521744 C33.2994558,2.38748095 33.3805717,2.37927558 33.4616877,2.37271129 C33.758722,2.34903294 34.0569285,2.33965537 34.3546662,2.34481303 C34.5168981,2.3476263 34.6791299,2.35489392 34.8411273,2.36661587 C34.884733,2.36966358 35.1571513,2.39967179 34.8966894,2.36872582 C34.6259122,2.33637323 34.9836663,2.38091666 35.0324297,2.38771539 C35.3292296,2.42897667 35.6239195,2.48617981 35.914624,2.55885594 C36.0749803,2.59894502 36.2327579,2.64653616 36.3910043,2.69342398 C36.4946263,2.72413551 36.5794933,2.80243817 36.2709714,2.65192826 C36.3694359,2.69998828 36.4829044,2.72812097 36.5848854,2.7684445 C36.8767621,2.88331966 37.1599645,3.01694995 37.4391815,3.15948892 C37.7334026,3.30976439 38.0255137,3.53177822 38.3300501,3.65227992 C38.0273892,3.53248154 38.1708659,3.55358106 38.2726125,3.61781737 C38.3302845,3.65392099 38.3877221,3.69049349 38.4446908,3.72776931 C38.5794933,3.81544954 38.7128892,3.90570859 38.844175,3.99878092 C39.0990104,4.17953347 39.3472814,4.36989802 39.5861748,4.57128121 C39.6832326,4.65286602 39.7786493,4.73632634 39.8726594,4.82166217 C39.9282215,4.87230102 39.9833147,4.92364318 40.037939,4.97545423 C40.0648995,5.00124253 40.2484653,5.17519634 40.0782625,5.01296448 C39.9089975,4.85190482 40.0876401,5.02515532 40.1141317,5.05281913 C40.1647705,5.10603681 40.2149405,5.1599578 40.2646416,5.21434767 C40.3626371,5.3224241 40.4578194,5.43261048 40.5504229,5.54537569 C40.7173435,5.74910327 40.8748866,5.96056734 41.0211766,6.17976791 C41.0607968,6.23884656 41.0997137,6.29862853 41.1374584,6.35887938 C41.1941926,6.44866956 41.2497547,6.63856523 41.1194066,6.32558903 C41.1726242,6.45335834 41.2596011,6.57573555 41.3221964,6.6995194 C41.4398848,6.93161411 41.5456169,7.17003868 41.6384547,7.41315203 C41.689328,7.54678232 41.7366847,7.68181925 41.780056,7.81826281 C41.7945912,7.86397843 41.8086575,7.90969406 41.822255,7.95564412 C41.918375,8.27893565 41.7894335,7.79458446 41.8374935,8.0034697 C41.9671384,8.56659243 42.0505987,9.13346618 42.0714638,9.71159301 C42.0761525,9.84287891 42.0780281,9.97416481 42.0773247,10.1054507 C42.0768559,10.1853944 42.0754492,10.2655726 42.0731048,10.3455164 C42.0721671,10.3724768 42.0712293,10.3994373 42.0702916,10.4261634 C42.0644306,10.5572149 42.0658372,10.5342398 42.0745115,10.3577072 C42.0977209,10.4711757 42.0522398,10.6561482 42.0407522,10.7712578 C42.0208249,10.9693588 41.9955055,11.166991 41.9654973,11.3636854 C41.8574209,12.0702848 41.6958923,12.7698511 41.4834905,13.4523034 C41.427694,13.6311804 41.3686153,13.8088852 41.3057856,13.9851834 C41.2748397,14.0723948 41.2420182,14.1586684 41.2106034,14.2456453 C41.1909105,14.3002696 41.1353484,14.464377 41.2256075,14.2107139 C41.1051058,14.5494784 40.9440461,14.8790998 40.7874408,15.2023913 C40.4899376,15.8168562 40.1528141,16.4116282 39.7917779,16.9909272 C39.0441516,18.1898488 38.197592,19.3231274 37.3721319,20.4685969 C36.9442805,21.0621967 36.5215868,21.6595475 36.1120217,22.2660415 C35.7183985,22.8490915 36.2006397,23.6295393 36.7691545,23.871246 C37.4190197,24.1474153 38.2151749,24.0625484 38.6322421,23.4448013" id="Fill-17" fill="#986A5D" fill-rule="nonzero" mask="url(#mask-6)"></path>
                </g>
                <path d="M32.7717032,54.8393389 C33.5753605,51.4252022 32.1947486,47.8385183 29.8688782,45.3243934 C28.8957215,44.2724651 27.654132,43.3344743 26.2575782,42.9401477 C25.586848,42.7507209 24.8131989,42.6860157 24.1319189,42.8681749 C23.7467354,42.9708592 23.4902591,43.2479662 23.2030712,43.499285 C23.1451647,43.5501582 22.9981714,43.6261165 22.9719142,43.6926972 C22.9794162,43.6734732 23.2487868,43.4889696 23.0516235,43.6298675 C23.0047357,43.6633923 22.9587856,43.697386 22.9116633,43.7302075 C22.5571914,43.9780096 22.1806822,44.1831438 21.7903411,44.367413 C21.7511898,44.3859337 21.6074786,44.4445434 21.800422,44.3655375 C22.0182159,44.2759817 21.7769781,44.3735084 21.7289181,44.3920291 C21.621545,44.4332904 21.5132341,44.4719728 21.4039855,44.5080764 C21.1854882,44.5805181 20.9637088,44.6428789 20.739585,44.69469 C20.6132224,44.7239948 20.4863908,44.7497831 20.3588559,44.7725237 C20.3164225,44.7800258 20.2737545,44.7865901 20.2310866,44.7940921 C19.9764858,44.8386356 20.4856875,44.7676005 20.3058727,44.7854179 C20.0765913,44.807924 19.8482476,44.8290236 19.6175595,44.8348845 C19.3735084,44.84098 19.1289884,44.835119 18.8854062,44.8168327 C18.7747509,44.8083929 18.6523737,44.7760403 18.5426562,44.7826046 C18.5672723,44.781198 18.8992381,44.8391044 18.6610479,44.7964365 C18.6045481,44.7863556 18.5478139,44.777447 18.491314,44.7668972 C18.0104794,44.677107 17.5427734,44.5336303 17.091947,44.3444379 C16.7803774,44.2136209 16.2847732,44.3242762 16.008135,44.4862736 C15.7162584,44.6569453 15.4379791,44.9914899 15.361552,45.3267378 C15.2794983,45.6868362 15.2973157,46.0910093 15.5033876,46.4107842 C15.7157895,46.7401711 15.9860978,46.9068573 16.3440863,47.0571328 C19.3878092,48.3352948 23.136256,47.5035049 25.4771305,45.2242879 C25.2701207,45.3447896 25.0633454,45.4655257 24.8563357,45.5860274 C25.0279451,45.5478139 25.2295628,45.6000938 24.7670144,45.5888407 C24.8314852,45.5904818 24.897597,45.5780565 24.9623022,45.5766499 C25.0370883,45.5747744 25.1118743,45.5764154 25.1866604,45.5808698 C25.2288595,45.5834486 25.2710585,45.5883718 25.3132575,45.5911851 C25.5296448,45.6061892 24.9196343,45.5175712 25.1444614,45.5693823 C25.2935646,45.6038448 25.442199,45.6315086 25.5889579,45.6762865 C25.669605,45.701137 25.7483765,45.7302075 25.8280858,45.7574024 C26.1361388,45.8629 25.5155785,45.6129879 25.813785,45.7494315 C26.1743524,45.9144766 26.5156957,46.120783 26.8380495,46.3514711 C26.8739186,46.3772594 26.9090845,46.4039855 26.9449537,46.4297738 C27.1186731,46.5537921 26.8235142,46.3348259 26.8204665,46.3320127 C26.8971281,46.3992967 26.9805884,46.4600164 27.0584222,46.5258938 C27.228625,46.6698394 27.3929668,46.8201149 27.5519165,46.9760169 C27.7075841,47.1286367 27.8578596,47.2868831 28.0032118,47.4495839 C28.0772946,47.5325753 28.1499707,47.6169734 28.2212402,47.7023092 C28.2941507,47.7892861 28.5642246,48.1850193 28.3063416,47.7998359 C28.564459,48.1852538 28.8415661,48.5509788 29.0743641,48.9539796 C29.1920525,49.1577072 29.3029422,49.3651858 29.4070332,49.576181 C29.4595475,49.6821475 29.5099519,49.7890517 29.5587153,49.8966592 C29.5854413,49.9562068 29.6079475,50.0197398 29.6381901,50.0771774 C29.5915367,49.9890282 29.5181573,49.7857695 29.6020865,49.9967647 C29.7823702,50.4499355 29.9303013,50.9162349 30.039081,51.391443 C30.0686203,51.5199156 30.0951119,51.6488571 30.1187903,51.7782675 C30.1305122,51.8429727 30.1412964,51.9079123 30.1516118,51.972852 C30.2017817,52.2905169 30.1293401,51.7611534 30.1445786,51.9114289 C30.1727113,52.186426 30.1959208,52.4602508 30.1994373,52.7366546 C30.2027195,52.9996952 30.1921697,53.2629703 30.1666159,53.5248388 C30.1616927,53.5747744 30.1499707,53.6315086 30.1495018,53.6821475 C30.1537217,53.2657836 30.1743524,53.5042082 30.1546595,53.6223655 C30.1284023,53.7799086 30.0955808,53.936045 30.0590083,54.0914781 C29.890681,54.806283 30.2817255,55.6488571 31.0413082,55.8218732 C31.7615051,55.9857461 32.5914195,55.6054859 32.7717032,54.8393389" id="Fill-20" fill="#986A5D" fill-rule="nonzero"></path>
                <path d="M34.0649396,44.0999179 C34.0775993,43.4915485 34.1050287,42.8829446 34.1411323,42.2755128 C34.1720783,41.7517759 34.2107608,41.2282734 34.2667917,40.7064119 C34.2778103,40.6034931 34.2895323,40.5008088 34.302192,40.3981245 C34.3162584,40.2839526 34.3697105,40.0471691 34.282968,40.5348025 C34.2930489,40.4785371 34.2991443,40.4208651 34.3078185,40.3641308 C34.3408745,40.1475091 34.3786192,39.9308874 34.4323057,39.7182511 C34.4489509,39.6521393 34.4667683,39.5860274 34.4878678,39.5210878 C34.4991209,39.4870941 34.5134216,39.4535693 34.5235025,39.4193412 C34.5769546,39.2385887 34.3397023,39.7949127 34.4316024,39.6408862 C34.6444731,39.2845387 34.8097527,38.8963076 35.0153558,38.5348025 C35.1897785,38.2281561 35.3824874,37.9367483 35.5805884,37.645575 C35.7662642,37.3729223 35.3775642,37.8781386 35.5923104,37.6286953 C35.6539679,37.556957 35.7135154,37.4833431 35.7770484,37.4130114 C35.9261517,37.2474974 36.0888524,37.1012074 36.2513187,36.9497597 C36.4820068,36.7350135 36.061423,37.0763568 36.2283437,36.963826 C36.2937522,36.9197515 36.3565819,36.8723948 36.4224593,36.829258 C36.5800023,36.7256359 36.7434064,36.6313914 36.910327,36.54418 C37.0439573,36.4743172 37.2718321,36.3097409 37.4225765,36.3010667 C37.3688899,36.3238073 37.3149689,36.3463134 37.2612824,36.3688196 C37.3198922,36.3446724 37.3787364,36.320994 37.437815,36.2975501 C37.5559723,36.2504279 37.674833,36.2051811 37.793928,36.1606377 C38.5893799,35.8626656 39.4064002,35.5944672 40.1589497,35.1961552 C41.9088032,34.2696519 43.3939749,32.244098 42.7570039,30.1927558 C42.5392099,29.4908452 41.7657953,28.9710937 41.0266088,29.2102215 C40.3207127,29.4387997 39.8105732,30.188067 40.044309,30.9406166 C40.0583753,30.9858633 40.079006,31.1598171 40.1099519,31.1898253 C40.1015121,31.1204314 40.0930723,31.0510374 40.0846325,30.9818779 C40.0904935,31.036971 40.0942445,31.0920642 40.0954167,31.1473919 C40.0968234,31.2177236 40.069394,31.32791 40.0855703,31.3942562 C40.0947134,31.3239245 40.1038565,31.2535928 40.1132341,31.1834955 C40.1033876,31.2376509 40.0916657,31.2915719 40.0780682,31.345024 C40.0668151,31.389333 39.9922635,31.5442973 40.003751,31.5839175 L40.0822881,31.4043371 C40.0593131,31.4563826 40.034697,31.5077248 40.0086742,31.5583636 C39.9737428,31.626351 39.7186731,31.9719142 39.7327394,32.0014535 C39.7697808,31.9533935 39.8068222,31.9053335 39.844098,31.8572735 C39.8063533,31.9036924 39.7679053,31.9491736 39.7280506,31.993717 C39.6682687,32.0612355 39.6061423,32.126644 39.541906,32.190177 C39.4774352,32.2539444 39.4108545,32.3156019 39.3426328,32.3753839 C39.3196577,32.3950768 39.2966827,32.4147697 39.2737077,32.434697 C39.156957,32.5294104 39.1806353,32.5125308 39.3447427,32.3838237 C39.3731098,32.4806471 38.4817724,32.8949009 38.4037041,32.9307701 C38.3082874,32.9743758 38.0935412,33.137311 38.3896378,32.940851 C38.3167272,32.9893799 38.2051342,33.0156371 38.1235494,33.0475208 C37.9449068,33.1171492 37.765092,33.1834955 37.5852772,33.2496073 C37.2265854,33.3811277 36.8671902,33.5110069 36.5134216,33.6561247 C35.632165,34.0176298 34.8273356,34.4339937 34.1200328,35.0864377 C33.4983003,35.6598757 33.0024616,36.3831204 32.5860978,37.1148048 C32.2747626,37.6622201 31.9299027,38.2410503 31.7524323,38.8480131 C31.46501,39.8312507 31.4178877,40.9115461 31.3496659,41.9292463 C31.301137,42.6517876 31.2666745,43.37597 31.2516704,44.0999179 C31.2364318,44.8360567 31.9095065,45.5400774 32.658305,45.5065526 C33.4335951,45.4718556 34.0485289,44.8885711 34.0649396,44.0999179" id="Fill-22" fill="#986A5D" fill-rule="nonzero"></path>
            </g>
        </g>
    </g>
</svg>