<svg xmlns="http://www.w3.org/2000/svg" width="22" height="22" viewBox="0 0 22 22"><path fill="#014032" d="M1390.28654,78.392308 L1399,87.106 L1407.71346,78.392308 C1408.20167,77.9041025 1408.97298,77.8715554 1409.49894,78.2946669 L1409.60769,78.392308 C1410.13077,78.9153854 1410.13077,79.7634614 1409.60769,80.2865387 L1409.60769,80.2865387 L1400.894,89 L1409.60769,97.7134613 C1410.13077,98.2365386 1410.13077,99.0846146 1409.60769,99.607692 C1409.08461,100.130769 1408.23654,100.130769 1407.71346,99.607692 L1399,90.894 L1390.28654,99.607692 C1389.79833,100.095898 1389.02702,100.128445 1388.50106,99.7053331 L1388.39231,99.607692 C1387.86923,99.0846146 1387.86923,98.2365386 1388.39231,97.7134613 L1388.39231,97.7134613 L1397.106,89 L1388.39231,80.2865387 C1387.86923,79.7634614 1387.86923,78.9153854 1388.39231,78.392308 C1388.91539,77.8692307 1389.76346,77.8692307 1390.28654,78.392308 Z" transform="translate(-1388 -78)"/></svg>