<svg xmlns="http://www.w3.org/2000/svg" width="20" height="20" viewBox="0 0 20 20"><path fill="#FFFFFF" d="M19.9891667,9.6 C19.9876789,9.04902161 19.7408105,8.52495685 19.3108333,8.16 L9.995,0.2888 C9.49482068,-0.104275364 8.7601943,-0.0463790848 8.33348927,0.419744507 C7.90678424,0.885868098 7.94134988,1.59270344 8.41166667,2.0184 L15.6091667,8.0984 C15.6737866,8.15344253 15.6963165,8.24106055 15.6658008,8.31864817 C15.6352851,8.39623579 15.5580556,8.44769389 15.4716667,8.448 L1.21,8.448 C0.5472583,8.448 0.01,8.96376797 0.01,9.6 C0.01,10.236232 0.5472583,10.752 1.21,10.752 L15.4691667,10.752 C15.5555023,10.7527974 15.6324558,10.8044383 15.6628929,10.8820031 C15.69333,10.9595679 15.6709954,11.0471158 15.6066667,11.1024 L8.40916667,17.1824 C8.06634144,17.4482267 7.90287418,17.8730588 7.98336797,18.2890004 C8.06386175,18.704942 8.3753642,19.0450633 8.79476798,19.1749467 C9.21417176,19.3048301 9.67398991,19.2035758 9.9925,18.9112 L19.31,11.04 C19.7404625,10.6753137 19.9876817,10.1511485 19.9891667,9.6 Z"/></svg>