<svg xmlns="http://www.w3.org/2000/svg" width="33" height="23" viewBox="0 0 33 23"><g fill="none" fill-rule="evenodd" stroke="#412234" stroke-linecap="round" stroke-linejoin="round" stroke-width="2" transform="matrix(-1 0 0 1 31.95 1.5)"><path d="M30 12 30 2C30 .8954305 29.1045695 0 28 0L12 0C10.8954305 0 10 .8954305 10 2L10 10M10 10 10 2 6 2C2.6862915 2 0 4.6862915 0 8L0 16C0 17.1045695.8954305 18 2 18L3 18"/><path d="M0,10 L4,10 C5.1045695,10 6,9.1045695 6,8 L6,2"/><circle cx="9" cy="17" r="3"/><circle cx="25" cy="17" r="3"/><line x1="15" x2="19" y1="18" y2="18"/></g></svg>