<svg xmlns="http://www.w3.org/2000/svg"
  xmlns:xlink="http://www.w3.org/1999/xlink" width="190" height="40" viewBox="0 0 190 40">
  <defs>
    <polygon id="a" points="0 0 15.948 0 15.948 28.931 0 28.931"/>
  </defs>
  <g fill="none" fill-rule="evenodd">
    <path fill="#014032" d="M38.7604052 1.15416479 38.7604052 17.3944236C38.7604052 21.2063847 37.6615927 24.3134591 35.5811322 26.3761867 33.8654647 28.0601881 31.5500419 28.9937037 29.1459542 28.9690042L29.0661557 28.9690042C24.7640039 28.9329049 20.167991 25.815064 20.167991 17.1733944L20.167991 1.15479811C20.1692577.601275268 20.6176492.152250447 21.171172.151617126L23.1268683.151617126C23.6803911.152250447 24.1294159.601275268 24.1300492 1.15479811L24.1300492 17.1733944C24.1300492 22.052502 25.986314 24.9797131 29.0952884 25.0069459L29.1465875 25.0069459C30.5050617 25.0278456 31.8160369 24.5091554 32.791985 23.5629733 34.1048601 22.2602314 34.798347 20.1278384 34.798347 17.3944236L34.798347 1.15416479C34.7989803.600641947 35.2480051.152250447 35.801528.151617126L37.7572242.151617126C38.3107471.152250447 38.7597719.600641947 38.7604052 1.15416479M61.5089907 17.7203307C61.665421 17.9229936 61.7331864 18.180122 61.6977204 18.4340839 60.7832044 25.1384235 57.3537694 28.9839506 52.2890988 28.9839506 50.0047087 29.01435 47.8108837 28.0935008 46.2326469 26.4417987 43.7208945 23.8933137 42.2642555 19.4252318 42.3364541 14.490392 42.4384188 7.51245759 45.1712004.0550989555 52.5373607.0550989555 57.2005057.0550989555 60.3563458 2.93544435 61.1961299 7.9583158 61.2385624 8.21101101 61.1771303 8.47067276 61.0257665 8.67713551 60.873136 8.8848649 60.644507 9.0241956 60.3899119 9.06156156L58.3632836 9.35858926C57.8477601 9.43458782 57.3651692 9.08309448 57.2822041 8.56820424 56.7546474 5.46239645 55.247976 4.01525722 52.5386274 4.01525722 50.5069326 4.01525722 48.9907613 5.01590491 47.9027153 7.07356591 46.9115674 8.94756372 46.3422115 11.6011801 46.2991456 14.5473909 46.2554465 17.5556672 46.9565332 21.5297585 49.0559934 23.6602515 49.8938775 24.5494346 51.0693219 25.0427919 52.2903654 25.0206257 56.0193614 25.0206257 57.3278032 21.1611655 57.7698615 17.9236269 57.8407935 17.4049367 58.3151512 17.038877 58.835108 17.1015758L60.8674361 17.3536377C61.1220313 17.3840371 61.3531936 17.5164013 61.5089907 17.7196974L61.5089907 17.7203307ZM91.0239178 4.18574732 91.0239178 15.3296694 97.3989303 15.3296694C98.0550512 15.3315694 98.5870411 15.862926 98.5876744 16.5190469L98.5876744 18.1029835C98.5870411 18.7584711 98.0550512 19.2910943 97.3989303 19.2917276L91.0239178 19.2917276 91.0239178 25.0498851 101.222924 25.0498851C101.879045 25.0505185 102.410402 25.5825084 102.412302 26.2379959L102.412302 27.8225659C102.412302 28.4793201 101.879679 29.01131 101.222924 29.01131L88.2404706 29.01131C87.5837164 29.01131 87.0517264 28.4793201 87.0517264 27.8225659L87.0517264 1.41306655C87.0523598.756945651 87.5843497.224955736 88.2404706.224322414L101.222924.224322414C101.879045.224955736 102.411035.756945651 102.412302 1.41306655L102.412302 2.99636987C102.410402 3.65312408 101.879045 4.18448068 101.222924 4.18574732L91.0239178 4.18574732ZM114.963717 5.38633456C113.161285 4.12222519 110.997226 3.9860611 110.150475 3.9860611 110.015578 3.9860611 109.88258 3.98922771 109.751483 3.99556092L109.747683 18.7829806C112.268302 18.8437794 114.089101 18.3447222 115.304444 17.2509763 116.705984 15.9887669 117.416571 13.7879753 117.416571 10.7113003 117.416571 8.31861231 116.591353 6.52757959 114.963717 5.38633456M121.706056 27.7026782 120.834606 29.4557116C120.711742 29.7020736 120.493879 29.8870034 120.231684 29.9699685 120.135419 29.9997346 120.035355 30.0149343 119.934023 30.0149343 119.766193 30.0149343 119.600896 29.9725018 119.454599 29.8908034 116.677485 28.3505659 114.392461 25.0813612 112.930123 22.526543 111.881342 22.7038729 110.817363 22.7786049 109.753383 22.7475721L109.74895 28.013639C109.748316 28.5671618 109.299291 29.0161866 108.745769 29.0168199L106.790072 29.0168199C106.235916 29.0161866 105.787525 28.5671618 105.786891 28.013639L105.786891 1.6579719C105.787525 1.23554658 106.05162.859353709 106.448712.714956447L107.0928.481260877C109.159327-.267958254 113.814239-.257825112 117.238608 2.14436268 119.127172 3.46990422 121.378629 6.02978903 121.378629 10.7125669 121.378629 14.9589864 120.227251 18.1496593 117.956161 20.1952872 117.567935 20.5436139 117.149309 20.8571079 116.705984 21.1313361 117.686999 22.7545386 119.449532 25.3258232 121.312764 26.3891697 121.770655 26.6545314 121.942918 27.2302205 121.706056 27.7026782"/>
    <path fill="#014032" d="M96.9729584 39.9391429C91.4586296 39.492018 85.9829334 36.6034394 80.7206665 31.0378116 76.3754488 26.4417987 73.1683096 21.0883336 71.8408681 18.8349763 71.0650495 19.4011655 70.2613647 19.9261889 69.4310805 20.4087798L69.4310805 27.8724716C69.4298138 28.4829934 68.9351899 28.9782507 68.3253014 28.978884L66.5767013 28.978884C65.9661795 28.9782507 65.4721889 28.4829934 65.4702889 27.8724716L65.4702889 1.10577904C65.4721889.4958906 65.9661795.00126664266 66.5767013 0L68.3253014 0C68.9351899.00126664266 69.4298138.4958906 69.4310805 1.10577904L69.4310805 15.612004C73.6344341 12.4156313 78.0486838 7.01846695 78.2405801 1.10261243 78.2557799.502857134 78.7466039.0240662104 79.3463592.0246995318L81.0930594.0246995318C81.393887.0234328891 81.6826816.146297227 81.8910443.363526442 82.1006736.581388979 82.2127715.875883396 82.1994718 1.17797767 82.0500079 4.9443396 80.0461792 11.1236558 74.9023434 16.2250591 76.3108501 18.6266136 79.1329299 23.3879233 83.0322893 27.6742421 87.7891658 32.9016763 92.2274817 36.1309817 98.9571541 35.942252 101.416341 35.87322 102.851447 34.8668724 103.859694 34.1550192 104.320119 33.8206255 104.958507 33.8928242 105.333433 34.3203161L106.496844 35.6350911C106.702041 35.8662534 106.800205 36.1734143 106.769173 36.4818418 106.73814 36.7871026 106.581076 37.065764 106.335348 37.2513272 104.892642 38.3115071 102.421422 40.3805678 96.9729584 39.9391429M17.8830943 1.34188123 17.8830943 2.85678584C17.882461 3.5325397 17.3346381 4.07972933 16.6595175 4.08036265L10.9228929 4.08036265 10.9228929 27.7786134C10.9216263 28.4537339 10.37507 29.0009236 9.69931613 29.0021902L8.1837782 29.0021902C7.50929098 29.0009236 6.96146803 28.4537339 6.96083471 27.7786134L6.96083471 4.08036265 1.22294348 4.08036265C.547822948 4.07972933.000633321328 3.53190638-9.00003737e-15 2.85678584L-9.00003737e-15 1.34188123C.000633321328.666760694.547822948.119571067 1.22294348.118304424L16.6601508.118304424C17.3346381.119571067 17.882461.666760694 17.8830943 1.34188123M169.533533 1.15416479 169.533533 17.3944236C169.533533 21.2063847 168.43472 24.3134591 166.35426 26.3761867 164.638592 28.0601881 162.32317 28.9937037 159.919082 28.9690042L159.839283 28.9690042C155.537132 28.9329049 150.941119 25.815064 150.941119 17.1733944L150.941119 1.15479811C150.942385.601275268 151.390777.152250447 151.9443.151617126L153.899996.151617126C154.453519.152250447 154.902544.601275268 154.903177 1.15479811L154.903177 17.1733944C154.903177 22.052502 156.759442 24.9797131 159.868416 25.0069459L159.919715 25.0069459C161.278189 25.0278456 162.589164 24.5091554 163.565113 23.5629733 164.877988 22.2602314 165.571475 20.1278384 165.571475 17.3944236L165.571475 1.15416479C165.572108.600641947 166.021133.152250447 166.574656.151617126L168.530352.151617126C169.083875.152250447 169.5329.600641947 169.533533 1.15416479"/>
    <g transform="translate(174.048 .067)">
      <mask id="b" fill="#fff">
        <use xlink:href="#a"/>
      </mask>
      <path fill="#014032" d="M11.9837257,20.0793503 C12.019825,18.848807 11.7082309,17.9260578 11.0286771,17.2598038 C9.82979988,16.0830928 7.45294493,15.5308366 3.96144445,15.6195015 L3.96144445,24.9628911 C5.79870963,25.0008904 8.80191936,24.8083607 10.5669859,23.3238555 C11.4783353,22.5556367 11.9425598,21.4948235 11.9837257,20.0793503 M8.11223243,5.04240205 C7.36174666,4.3311822 5.96590646,3.96828908 3.96144445,3.96448915 L3.96144445,11.583978 C8.29779558,11.3179831 8.95581644,9.80181182 9.00901543,8.19570894 C9.0584145,6.69473739 8.76582004,5.66432359 8.11223243,5.04240205 M15.943884,20.1952481 C15.8678854,22.770966 14.9147368,24.84446 13.1104044,26.3599979 C10.580919,28.484791 6.9500878,28.9309021 4.34903711,28.9309021 C3.46238725,28.9350825 2.57700403,28.8812501 1.69732071,28.7672523 L0.818904026,28.6399547 C0.349612923,28.569656 0.00191951366,28.167497 2.66453526e-15,27.6931393 L2.66453526e-15,1.12974289 C-0.00314705696,0.631952322 0.378745704,0.21586021 0.875902946,0.176594288 L1.81385183,0.0974291218 C6.09763729,-0.268630606 8.96594958,0.391290218 10.8399474,2.17092315 C12.3409189,3.59589614 13.0572054,5.66685688 12.9691737,8.32680645 C12.9653738,9.96204212 12.3719517,11.5409122 11.2991054,12.7739888 C12.2281877,13.170448 13.0768383,13.732204 13.8045245,14.4332907 C15.293463,15.8949963 16.012916,17.8335929 15.943884,20.1952481" mask="url(#b)"/>
    </g>
    <path fill="#014032" d="M148.656222,1.34188123 L148.656222,2.85678584 C148.655589,3.5325397 148.107766,4.07972933 147.432645,4.08036265 L141.696021,4.08036265 L141.696021,27.7786134 C141.694754,28.4537339 141.148198,29.0009236 140.472444,29.0021902 L138.956906,29.0021902 C138.282419,29.0009236 137.734596,28.4537339 137.733962,27.7786134 L137.733962,4.08036265 L131.996071,4.08036265 C131.320951,4.07972933 130.773761,3.53190638 130.773128,2.85678584 L130.773128,1.34188123 C130.773761,0.666760694 131.320951,0.119571067 131.996071,0.118304424 L147.433278,0.118304424 C148.107766,0.119571067 148.655589,0.666760694 148.656222,1.34188123"/>
  </g>
</svg>
