<?xml version="1.0" encoding="UTF-8"?>
<svg width="87px" height="16px" viewBox="0 0 87 16" version="1.1" xmlns="http://www.w3.org/2000/svg" xmlns:xlink="http://www.w3.org/1999/xlink">
    <title>Group 69@2x</title>
    <defs>
        <polygon id="path-1" points="0 0 2.11964466 0 2.11964466 1.71227993 0 1.71227993"></polygon>
        <polygon id="path-3" points="0 0 1.59740428 0 1.59740428 2.77548785 0 2.77548785"></polygon>
    </defs>
    <g id="Symbols" stroke="none" stroke-width="1" fill="none" fill-rule="evenodd">
        <g id="Footer" transform="translate(-1324.000000, -312.000000)">
            <g id="Group-69" transform="translate(1324.000000, 312.000000)">
                <path d="M2.25635932,12.9193646 C2.08302616,12.9193646 2.05369286,12.3700318 2.32835924,12.3549207 C2.5168035,12.3406985 2.8785809,12.1531431 2.95058083,11.8055879 L2.95058083,4.13981799 L2.27058152,4.13981799 C1.2296937,4.13981799 0.607472112,5.71670527 0.52036109,5.93359394 C0.448361163,6.1069271 -0.0147494751,6.06337159 0.000361620594,5.93359394 C0.028806036,5.65892755 0.115917058,4.01004035 0.144361474,3.41715207 C0.159472569,3.22870781 0.361250141,3.40204097 1.11413826,3.40204097 L7.37635409,3.40204097 C8.12835332,3.40204097 8.33101978,3.22870781 8.34524199,3.41715207 C8.37457529,4.01004035 8.46079743,5.65892755 8.49013073,5.93359394 C8.50435294,6.06337159 8.0412423,6.1069271 7.96924237,5.93359394 C7.88213135,5.71670527 7.26079865,4.13981799 6.21902194,4.13981799 L5.7852446,4.13981799 L5.7852446,11.6606992 C5.7852446,12.1095876 6.20479973,12.3406985 6.4216884,12.3549207 C6.69635478,12.3700318 6.66791037,12.9193646 6.49368832,12.9193646 L2.25635932,12.9193646 Z" id="Fill-1" fill="#FFF7F0"></path>
                <path d="M10.6295063,3.43137427 C11.5699498,3.43137427 12.1192826,3.79315168 12.1192826,4.40026217 C12.1192826,5.00826155 11.5699498,5.36915007 10.6295063,5.36915007 C9.68906284,5.36915007 9.12550786,5.00826155 9.12550786,4.40026217 C9.12550786,3.79315168 9.68906284,3.43137427 10.6295063,3.43137427 L10.6295063,3.43137427 Z M9.42950755,7.03314837 C9.38595204,6.80114861 9.2703966,6.58425994 9.11128565,6.52648222 C8.85084147,6.4393712 8.90861919,6.02070496 9.11128565,6.02070496 C9.50150747,6.02070496 9.97884032,5.96203836 10.4561732,5.87581622 L11.9601716,5.49981661 L11.9601716,11.6606992 C11.9601716,12.1095876 12.0899493,12.2686986 12.3068379,12.3549207 C12.5246155,12.4420317 12.5530599,12.9193646 12.3797268,12.9193646 L9.00995242,12.9193646 C8.83573038,12.9193646 8.86506368,12.4420317 9.08195235,12.3549207 C9.29884101,12.2686986 9.42950755,12.1095876 9.42950755,11.6606992 L9.42950755,7.03314837 Z" id="Fill-3" fill="#FFF7F0"></path>
                <path d="M16.6796335,9.89652323 C17.2005218,9.83874551 17.460966,9.1587462 17.373855,8.04496956 C17.2725218,6.96052623 16.8965221,6.35341573 16.3614116,6.41119345 C15.8405232,6.45386008 15.5951901,7.11963717 15.6814123,8.1898583 C15.7827455,9.30363494 16.1445229,9.94007874 16.6796335,9.89652323 M16.5205225,15.3205177 C17.5036326,15.3205177 18.270743,14.9587403 18.3285207,14.4814074 C18.5018538,13.7000749 17.7934101,13.1942976 16.6654113,13.1365199 C15.913412,13.0929644 15.1898572,13.1800754 14.6111911,13.0929644 C14.5391912,13.381853 14.524969,13.7000749 14.5676356,14.0476301 C14.6405244,14.770296 15.4796347,15.3205177 16.5205225,15.3205177 M12.8325263,14.0476301 C12.8183041,13.4254085 13.0929705,12.8467424 13.54097,12.4858539 C12.977415,11.7329658 13.0636372,10.4609671 13.8156364,9.8245233 C13.3969702,9.38985708 13.1791926,8.81207989 13.1791926,8.11785838 C13.1791926,6.49741559 14.4236358,5.5427499 16.5205225,5.5427499 C16.9978554,5.5427499 17.4316327,5.58630541 17.8076323,5.68763864 C17.86541,4.9063061 18.5747427,4.14008466 19.4858528,4.24141789 C20.150741,4.31341782 20.4982962,4.86363948 20.309852,5.42719446 C20.1365188,5.94808281 19.4707417,6.12141597 19.1525198,5.87608289 C18.7187425,5.55786099 18.2849652,5.34097232 18.270743,5.81741628 C19.3267419,6.2227492 19.9045191,7.01830394 19.9045191,8.11785838 C19.9045191,9.76674558 18.6467426,10.7498557 16.5205225,10.7498557 C15.6814123,10.7498557 14.9729686,10.5765225 14.4236358,10.2867451 C14.0760806,10.7063002 14.191636,11.1978552 14.8574131,11.3569662 C15.3925237,11.4876327 16.564078,11.4147439 16.9542999,11.3862995 C19.1525198,11.2556329 20.6138517,12.2831875 20.2085188,14.0476301 C19.9631857,15.1614067 18.3720762,15.9996281 16.5205225,15.9996281 C14.437858,15.9996281 12.8609707,15.1614067 12.8325263,14.0476301" id="Fill-5" fill="#FFF7F0"></path>
                <path d="M23.8421151,7.8137698 L23.7123374,7.8137698 L23.8421151,7.8137698 Z M24.001226,7.79954759 C24.3194479,7.77021429 24.7532252,7.65465885 24.7532252,7.22088151 C24.7532252,6.72932646 24.4927811,6.36754905 24.1310036,6.36754905 C23.5381154,6.36754905 23.2776712,6.87332631 23.191449,7.8137698 L24.001226,7.79954759 Z M20.5301184,9.21643503 C20.6598961,7.11954828 22.1932278,5.54266101 24.1310036,5.54266101 C25.8376686,5.54266101 27.183445,6.4973267 27.2847782,7.77021429 C27.2847782,7.90088082 27.3567781,8.59510233 26.7203343,8.59510233 L23.1336713,8.62354675 L23.1336713,9.21643503 C23.1336713,10.3444339 23.7123374,11.3284329 24.4785588,11.501766 C25.4038912,11.7044325 26.1852238,11.5888771 26.6625566,11.1977663 C26.8074454,11.0822109 26.9665563,11.0679887 27.0963339,11.1693219 C27.2261116,11.2706552 27.2412227,11.4875438 27.1398895,11.5888771 C26.4305569,12.6013205 25.2012248,13.04932 24.1896703,13.04932 C21.962117,13.04932 20.3994519,11.4439883 20.5301184,9.21643503 L20.5301184,9.21643503 Z" id="Fill-7" fill="#FFF7F0"></path>
                <path d="M30.7150858,8.65270227 L30.7150858,11.8055879 C30.7150858,12.2544764 30.8448635,12.2544764 31.062641,12.3549207 C31.3221963,12.471365 31.3079741,12.9193646 31.1346409,12.9193646 L27.7790888,12.9193646 C27.6057557,12.9193646 27.5906446,12.471365 27.8510887,12.3549207 C28.0253108,12.2686986 28.1408662,12.2544764 28.1844217,12.0224766 L28.1844217,7.03314837 C28.1408662,6.80114861 28.0253108,6.58425994 27.8661998,6.52648222 C27.6057557,6.4393712 27.6635334,6.02070496 27.8661998,6.02070496 C28.7195323,6.02070496 30.0644198,5.71670527 30.7150858,5.49981661 L30.7150858,6.71492648 C31.1781964,5.74514969 31.9737512,5.21003912 33.10175,5.55759432 C33.8679715,5.7887052 34.0564157,6.71492648 33.5497496,7.32203697 C33.2030833,7.77003651 32.363973,7.81359202 32.1613066,7.37981469 C31.6404182,6.20826033 30.8306412,6.67137096 30.7150858,8.65270227" id="Fill-9" fill="#FFF7F0"></path>
                <path d="M34.4423709,4.92115053 C34.4423709,4.61715084 34.3125932,4.22692902 34.0948157,4.15492909 C33.8352604,4.06781807 33.8930381,3.64826294 34.0948157,3.64826294 C34.8761482,3.64826294 36.0477026,3.46070758 36.7419241,3.25804112 L36.9445906,3.2002634 L36.9445906,6.30959356 C37.2050347,5.87581622 37.5810344,5.61537204 38.1019227,5.54337212 C39.8085876,5.28292794 41.0956974,6.36737128 41.0956974,8.0740362 L41.0956974,11.3718106 C41.0956974,12.1095876 41.4859193,12.2544764 41.7605856,12.3122541 C41.9054744,12.3406985 41.9196966,12.5726983 41.8041412,12.6882537 C41.6592524,12.8322536 41.3410305,12.9193646 40.6761423,12.9193646 C39.6201434,12.9193646 38.5499223,12.7166981 38.5499223,11.2846996 L38.5499223,7.72736989 C38.4921445,7.01803728 38.2317004,6.68559317 37.8121452,6.68559317 C37.147257,6.68559317 36.9445906,7.29359255 36.9445906,8.08825841 L36.9445906,11.6606992 C36.9445906,12.1095876 37.0743682,12.2686986 37.2912569,12.3549207 C37.5081455,12.4420317 37.5374788,12.9193646 37.3641457,12.9193646 L34.0228158,12.9193646 C33.8494826,12.9193646 33.877927,12.4420317 34.0948157,12.3549207 C34.3125932,12.2686986 34.4423709,12.1095876 34.4423709,11.6606992 L34.4423709,4.92115053 Z" id="Fill-11" fill="#FFF7F0"></path>
                <path d="M45.3508042,7.8137698 L45.2210266,7.8137698 L45.3508042,7.8137698 Z M45.5099151,7.79954759 C45.828137,7.77021429 46.2619144,7.65465885 46.2619144,7.22088151 C46.2619144,6.72932646 46.0014702,6.36754905 45.6396928,6.36754905 C45.0468045,6.36754905 44.7863603,6.87332631 44.7001382,7.8137698 L45.5099151,7.79954759 Z M42.0388076,9.21643503 C42.1685852,7.11954828 43.701917,5.54266101 45.6396928,5.54266101 C47.3463577,5.54266101 48.6921341,6.4973267 48.7934673,7.77021429 C48.7934673,7.90088082 48.8654673,8.59510233 48.2290235,8.59510233 L44.6423605,8.62354675 L44.6423605,9.21643503 C44.6423605,10.3444339 45.2210266,11.3284329 45.987248,11.501766 C46.9125804,11.7044325 47.6939129,11.5888771 48.1712458,11.1977663 C48.3161345,11.0822109 48.4752455,11.0679887 48.6050231,11.1693219 C48.7348007,11.2706552 48.7499118,11.4875438 48.6485786,11.5888771 C47.939246,12.6013205 46.7099139,13.04932 45.6983594,13.04932 C43.4708061,13.04932 41.908141,11.4439883 42.0388076,9.21643503 L42.0388076,9.21643503 Z" id="Fill-13" fill="#FFF7F0"></path>
                <path d="M52.3453748,11.6030993 C52.8227077,11.4155439 53.1987073,10.8511 53.2707072,10.200434 L53.2707072,8.97110195 C52.4173748,8.98532416 51.62182,9.95421206 51.62182,11.010211 C51.62182,11.4155439 51.8244865,11.7915435 52.3453748,11.6030993 L52.3453748,11.6030993 Z M53.2707072,11.2555441 C53.1844851,11.907099 52.7213744,12.644876 52.1720417,12.8759869 C51.4778202,13.1648754 50.4653768,13.0208756 49.9444884,12.644876 C49.178267,12.152432 48.932045,10.9382111 49.4378222,10.1426563 C50.1755993,8.94176865 51.1595983,8.4644358 53.2707072,8.29110264 L53.2707072,7.53910341 C53.2707072,6.72932646 52.9818186,6.25199362 52.4751525,6.25199362 C51.4778202,6.25199362 51.4049313,7.19154821 51.3035981,7.92932524 C51.2315982,8.4644358 50.2484881,8.52221352 49.7995997,8.17554721 C49.2938224,7.78443649 49.4529333,6.93110403 50.1035993,6.36754905 C50.6680432,5.8608829 51.5498201,5.57199431 52.4751525,5.57199431 C54.5729281,5.57199431 55.8022602,6.59865993 55.8022602,8.34888036 L55.8022602,10.7791001 L55.8164824,11.4004328 L55.8164824,11.3719884 C55.8164824,12.1097654 56.2067042,12.2537653 56.4822595,12.311543 C56.6262593,12.3408763 56.6413704,12.5719943 56.5249261,12.6875426 C56.3809263,12.8324313 56.0627044,12.9195424 55.3969273,12.9195424 C54.3409283,12.9195424 53.2707072,12.7168759 53.2707072,11.2848774 L53.2707072,11.2555441 Z" id="Fill-15" fill="#FFF7F0"></path>
                <path d="M60.0878558,8.65270227 L60.0878558,11.8055879 C60.0878558,12.2544764 60.2176335,12.2544764 60.435411,12.3549207 C60.6949663,12.471365 60.6807441,12.9193646 60.5074109,12.9193646 L57.1518588,12.9193646 C56.9785257,12.9193646 56.9634146,12.471365 57.2238587,12.3549207 C57.3980808,12.2686986 57.5136362,12.2544764 57.5571917,12.0224766 L57.5571917,7.03314837 C57.5136362,6.80114861 57.3980808,6.58425994 57.2389698,6.52648222 C56.9785257,6.4393712 57.0363034,6.02070496 57.2389698,6.02070496 C58.0923023,6.02070496 59.4371898,5.71670527 60.0878558,5.49981661 L60.0878558,6.71492648 C60.5509665,5.74514969 61.3465212,5.21003912 62.47452,5.55759432 C63.2407415,5.7887052 63.4291857,6.71492648 62.9225196,7.32203697 C62.5758533,7.77003651 61.736743,7.81359202 61.5340766,7.37981469 C61.0131882,6.20826033 60.2034113,6.67137096 60.0878558,8.65270227" id="Fill-17" fill="#FFF7F0"></path>
                <path d="M64.7321177,11.0101221 L64.7321177,6.42523788 L63.8210076,6.42523788 C63.4885635,6.42523788 63.4885635,5.68746086 63.8210076,5.68746086 L63.9943407,5.68746086 C65.7303389,5.68746086 66.5401159,5.12390588 66.5401159,4.13990688 C66.5401159,3.83590719 67.2636707,3.83590719 67.2636707,4.13990688 L67.2636707,5.68746086 L68.348114,5.68746086 C68.6805581,5.68746086 68.6805581,6.42523788 68.348114,6.42523788 L67.2636707,6.42523788 L67.2636707,10.6634558 C67.2636707,11.4874549 67.1330042,11.9354545 67.7401147,12.1381209 C67.9863366,12.225232 68.3045585,12.153232 68.4778917,11.9647878 C68.5792249,11.8492323 68.7098915,11.7914546 68.8254469,11.8341212 C68.9267801,11.8776768 68.9703356,11.97901 68.9410023,12.1238987 C68.8254469,12.6447871 67.7987813,13.0350089 67.118782,13.0350089 C65.5276725,13.0350089 64.7321177,12.2830097 64.7321177,11.0101221" id="Fill-19" fill="#FFF7F0"></path>
                <path d="M83.8185871,10.0623008 C83.8363649,10.037412 83.8070316,10.0063009 83.780365,10.021412 C83.5439207,10.1600785 83.3999209,10.3751894 83.3696987,10.6187447 C83.3314765,10.9263 83.4568097,11.2249663 83.6576984,11.4605216 C81.7688114,10.9911888 81.2034787,11.1111887 80.5705905,11.4516327 C80.5430349,11.4667438 80.5554794,11.5085216 80.5874793,11.5058549 C82.2532554,11.3405218 82.5865884,11.9298545 83.827476,12.0347433 C83.8496982,12.036521 83.8505871,12.068521 83.8283649,12.0720766 C83.3368098,12.1538543 82.9492547,12.1680765 82.4959218,12.0978543 C82.0132556,12.0240766 81.4141451,11.8205213 80.8550346,12.0311877 C80.8257013,12.0427433 80.8328124,12.0854099 80.8639235,12.0871877 C81.709256,12.1254098 81.7705892,12.4045207 82.9528102,12.5405205 C83.1910322,12.5680761 83.5136986,12.5485205 83.7519205,12.5298539 C83.7741427,12.5280761 83.780365,12.5600761 83.7590316,12.5662983 C83.0603657,12.798298 82.5794773,12.8116314 81.7732559,12.8080758 C81.7448115,12.8080758 81.7350337,12.846298 81.7599226,12.8605202 C82.4345885,13.2294087 83.113699,13.1014088 83.5474763,12.9742979 C83.5652541,12.9689645 83.5785874,12.9885201 83.5688096,13.0036312 C83.470143,13.1414088 83.3563654,13.2125198 83.3163654,13.4009641 C83.3101432,13.4267418 83.3403654,13.4454085 83.3616987,13.4294085 C83.8923648,13.0071867 84.1270313,13.0169645 84.5208086,12.8071869 C84.6603641,12.7325203 84.8816972,12.5191872 84.9874748,12.4000762 C85.192808,12.1680765 85.1812524,11.775188 84.962586,11.5547438 C84.8283639,11.4205217 84.6416974,11.3556328 84.4665865,11.2800774 C84.1883645,11.1600775 83.9119204,10.9902999 83.7768094,10.7191891 C83.6754762,10.5174115 83.6941428,10.235634 83.8185871,10.0623008" id="Fill-21" fill="#FFF7F0"></path>
                <path d="M86.5146733,12.2718097 C86.4400067,12.1269209 86.4284511,12.0824765 86.3093401,11.9802544 C86.2942291,11.9669211 86.2728957,11.9820322 86.279118,12.0006989 C86.3440068,12.1793653 86.4844511,12.4344762 86.4346734,12.7518092 C86.4302289,12.7802536 86.3911178,12.7855869 86.3795623,12.7589203 C86.2755624,12.5206983 86.2000069,12.4638095 86.1057848,12.3873651 C86.0915626,12.3758096 86.0702293,12.3900318 86.0755626,12.4078096 C86.1253403,12.5900316 86.1013404,12.8922535 86.0782293,13.0584756 C86.0746737,13.0824755 86.0444515,13.0913644 86.0293404,13.0726978 C85.953785,12.9855867 85.9155628,12.7811425 85.786674,12.6931426 C85.7715629,12.6833648 85.7520074,12.697587 85.7564518,12.7153648 C85.8124518,12.9446979 85.715563,13.1971421 85.6728964,13.3678086 C85.6666741,13.3926974 85.6337853,13.3980308 85.620452,13.3758086 C85.5111187,13.1926976 85.4186744,13.0291422 85.3475634,12.8211425 C85.2915634,12.658476 85.2488968,12.475365 85.31823,12.3180319 C85.3866744,12.1651431 85.5111187,12.0104766 85.6426742,11.9064767 C85.8035629,11.7793657 86.1688958,11.4344772 86.3777845,11.214033 C86.2853402,11.5918104 86.7093397,11.8380324 86.5653399,12.2682541 C86.5582288,12.2913652 86.5262288,12.2940319 86.5146733,12.2718097" id="Fill-23" fill="#FFF7F0"></path>
                <path d="M81.821167,6.37732682 C81.6211672,6.00577164 81.4585007,5.46088331 81.4513896,5.11866144 C81.4433896,4.77732845 81.526945,4.25999565 81.3598341,3.96132929 C81.2025009,3.68044069 80.9865011,3.4208854 80.6753903,3.4093067 C80.6531681,3.40844096 80.6389459,3.43332983 80.6522793,3.45199647 C80.8985012,3.80221834 80.5260572,4.18621795 80.916279,5.1808836 C80.5740571,4.78088401 80.439835,4.54266203 80.4016128,4.28844006 C80.3633907,4.03510699 80.4753905,3.64666294 80.2487241,3.61555186 C80.0211688,3.58444078 79.7740579,3.72666286 79.6833914,3.88844047 C79.6060581,4.02532922 79.5678359,4.18355128 79.6522803,4.3151067 C79.7011691,4.39155107 79.9447244,4.53821759 80.0185021,4.59066198 C80.1607242,4.69199521 80.3029463,4.79421733 80.4460572,4.89555056 C80.241613,4.76310625 79.9029467,4.68843966 79.6602803,4.71155074 C79.4176139,4.73466183 79.1233919,4.88399501 78.8798366,4.88043946 C78.6016147,4.87688391 78.4362815,4.85288393 78.2256151,4.71155074 C78.2042818,4.69732854 78.1767262,4.71777296 78.1838373,4.74177294 C78.2745039,5.03599486 78.4727259,5.26443907 78.6638368,5.3879945 C79.1598363,5.70977195 79.622947,5.21732801 80.2460574,5.38266117 C80.6167237,5.48132774 80.797168,5.73377192 80.892279,5.90888285 C81.2540564,6.57199329 81.9136113,6.54977109 81.821167,6.37732682" id="Fill-25" fill="#FFF7F0"></path>
                <path d="M83.7813427,3.57288524 C83.7786761,3.54710749 83.8097871,3.53199639 83.8284538,3.55066304 C84.1688979,3.89110714 84.3733421,4.49199541 84.644453,4.86621725 C84.7688973,5.03688375 84.9546749,5.35510564 84.9128971,5.4839944 C84.6720085,5.39332783 84.3493421,5.52221658 84.128009,5.68577197 C84.128009,5.03866152 84.1822312,4.78977289 84.0088981,4.42710659 C83.8400093,4.07332917 83.7324539,4.00044036 83.3973431,3.64666294 C83.3751209,3.62177408 82.6026773,2.93110812 82.4248997,2.74888608 C82.4035664,2.72755277 82.4266774,2.69110836 82.4560107,2.70266391 C82.5511218,2.74088609 82.6808994,2.80488602 82.8000104,2.86710818 C82.8195659,2.87688595 82.8382326,2.85288598 82.8231215,2.83688599 C82.6693439,2.67155283 82.5280107,2.52844186 82.351122,2.37910868 C82.3235664,2.35599759 82.3555664,2.31421986 82.3848997,2.33377539 C82.7937882,2.60844178 83.0631212,2.89733037 83.1626767,3.00488582 C83.3395654,3.19777451 83.5422319,3.40044097 83.7244539,3.71688509 C83.7306761,3.72844064 83.747565,3.72932952 83.755565,3.71866287 C83.7848983,3.68132957 83.7866761,3.62177408 83.7813427,3.57288524" id="Fill-27" fill="#FFF7F0"></path>
                <path d="M84.5709419,5.79181631 C84.9664971,6.03270495 84.745164,6.65937098 84.7362751,6.66914874 C84.7184973,6.6869265 84.6998307,6.73759312 84.6758307,6.71448203 C84.6429418,6.68337095 84.5611642,6.51892668 84.5611642,6.51892668 C84.5647197,6.46381562 84.6616085,6.05048271 84.5709419,5.79181631" id="Fill-29" fill="#FFF7F0"></path>
                <g id="Group-33" transform="translate(84.558228, 10.336385)">
                    <mask id="mask-2" fill="white">
                        <use xlink:href="#path-1"></use>
                    </mask>
                    <g id="Clip-32"></g>
                    <path d="M2.09813357,0.0442267679 C1.98791146,-0.055328686 1.96035593,0.324226482 1.64124515,0.334893138 C1.33724546,0.343782018 0.985245815,0.165115533 0.771023812,0.0771156232 C0.557690696,-0.0108842869 0.245691015,-0.05355091 0.123024473,0.116226694 C-0.337419501,0.756226041 0.625246183,0.196226613 0.869690378,0.815781536 C0.958579176,1.03978131 0.735468292,1.13133677 0.669690582,1.34644766 C0.606579535,1.55355856 0.654579486,1.79266943 0.795023787,1.68600287 C1.18791227,1.38644762 2.33457777,0.49667075 2.08480025,0.0122268006" id="Fill-31" fill="#FFF7F0" mask="url(#mask-2)"></path>
                </g>
                <path d="M85.4892521,8.07154731 C85.2376968,7.69732547 84.752364,7.04577058 84.5283642,6.6226599 C84.3034755,6.19954922 84.1683646,6.07243824 84.1283646,5.68577197 L84.124809,5.89999397 C84.1345868,5.98266056 84.0572536,6.27243804 84.3034755,6.84577079 C84.6696974,7.69821436 85.0350303,8.13021392 85.4048077,8.66799115 C85.6421408,9.01465746 86.4679178,10.0075453 86.1861403,10.2377673 C86.0279182,10.367545 85.6910297,10.3071006 85.4252522,10.2431007 C85.3914744,10.2351007 85.3754744,10.2831006 85.4074744,10.2964339 C85.6750297,10.4075449 85.9150294,10.5293226 86.148807,10.5293226 C86.2928068,10.5293226 86.5443621,10.3533228 86.5203622,9.96754538 C86.4830289,9.36132377 86.0128071,8.85021318 85.4892521,8.07154731" id="Fill-34" fill="#FFF7F0"></path>
                <g id="Group-38" transform="translate(82.138803, 0.000000)">
                    <mask id="mask-4" fill="white">
                        <use xlink:href="#path-3"></use>
                    </mask>
                    <g id="Clip-37"></g>
                    <path d="M1.14005167,0.218666443 C1.14982943,0.238221979 1.12405168,0.255999739 1.10894059,0.239999755 C1.02449623,0.151999845 0.899163023,0.0302221914 0.860940839,0.0595554947 C0.807607561,0.0995554539 0.777385369,0.161777613 0.747163178,0.221333107 C0.547163382,0.618666035 0.297385859,0.991110099 0.00671948955,1.32888753 C-0.012836046,1.35199862 0.0138305934,1.38577636 0.0413861208,1.37244304 C0.231608149,1.27555425 0.4422746,1.14222106 0.639607732,1.11910997 C0.660052156,1.1164433 0.669829923,1.14310994 0.652941052,1.15466549 C0.492941215,1.25599872 0.404941305,1.39822079 0.2573859,1.52977622 C0.243163693,1.54222065 0.245830356,1.56444285 0.260941452,1.5751095 C0.748052066,1.89066474 0.91338523,2.25777547 1.1302739,2.75910829 C1.13916278,2.77955272 1.16849608,2.78133049 1.17916274,2.76177496 C1.32849592,2.50755299 1.55516235,1.92799803 1.58182899,1.60799836 C1.63516227,0.958221244 1.55071791,0.615999371 1.34094035,0.279999714 C1.28938485,0.19822202 1.14449611,0.0391110712 1.06182952,0.00266666394 C1.03516288,-0.00977776779 1.01027402,0.0239999755 1.02894067,0.046222175 C1.07782951,0.104888782 1.1151628,0.167999828 1.14005167,0.218666443" id="Fill-36" fill="#FFF7F0" mask="url(#mask-4)"></path>
                </g>
                <path d="M80.9768123,15.3159844 C81.3492563,14.9159848 82.3590331,14.4164297 83.2194766,14.3328743 C83.2416988,14.3310965 83.2425877,14.2999854 83.2212544,14.295541 C82.9261436,14.2422077 82.7661438,14.2359855 82.6523661,14.2457632 C82.6185884,14.2493188 82.6088106,14.2013188 82.6399217,14.1906522 C83.18481,14.0030968 83.7412539,13.9177636 84.1670312,13.9150969 C85.5368076,13.906208 85.2665857,15.4102065 84.494142,15.8039839 C83.684365,16.2173168 83.1510323,15.8955393 82.3305887,15.5817619 C82.1643666,15.5186508 81.375923,15.3604288 80.9990345,15.3657621 C80.9723678,15.3657621 80.9590345,15.334651 80.9768123,15.3159844" id="Fill-39" fill="#FFF7F0"></path>
                <path d="M80.7434792,7.88132528 C79.8385912,8.49554688 77.3594826,9.37999042 76.7470388,7.17554823 C76.7390388,7.1479927 76.6999277,7.1479927 76.6919277,7.17554823 C75.8297064,10.4137671 79.6385914,9.47154588 80.7817013,7.92132524 C80.8012569,7.89554749 80.7701458,7.86354753 80.7434792,7.88132528" id="Fill-41" fill="#FFF7F0"></path>
                <path d="M81.0870344,8.158125 C79.9101467,9.22745724 77.7954822,10.4141227 76.5421501,9.42656815 C76.5261501,9.41323483 76.5021502,9.42123482 76.4968168,9.44167925 C76.2861504,10.2834562 77.1652606,10.8745667 77.8985932,10.8061223 C79.2070363,10.6852335 80.3705907,9.38745708 81.129701,8.19456941 C81.1474788,8.16612499 81.1110343,8.1359028 81.0870344,8.158125" id="Fill-43" fill="#FFF7F0"></path>
                <path d="M81.1930787,10.048612 C81.2197453,10.0317231 81.2037454,9.99172313 81.1735232,9.99616757 C79.9237467,10.2015007 78.738859,10.9579444 78.4544148,11.4139439 C78.1601929,11.8859434 77.9299709,12.9197201 78.5068592,12.7979425 C79.0704142,12.6779426 79.4535249,11.1312775 81.1930787,10.048612" id="Fill-45" fill="#FFF7F0"></path>
                <path d="M75.0897072,5.38586117 C76.7981499,7.06674834 73.972375,10.7929668 77.4585936,11.7227436 C77.4861492,11.7298547 77.4861492,11.7707435 77.4585936,11.7778546 C76.1554838,12.1111876 74.0372638,11.0169665 74.7537075,8.47563579 C74.9803739,7.67208105 75.3341514,6.11919375 75.043485,5.41697225 C75.0319294,5.38852783 75.067485,5.36452785 75.0897072,5.38586117" id="Fill-47" fill="#FFF7F0"></path>
                <path d="M77.3869493,6.39617125 C76.6847278,8.15616945 79.1069475,8.67172448 80.1451687,7.72683655 C80.166502,7.70816991 80.1496131,7.67350327 80.1211687,7.6788366 C78.8278367,7.91172525 77.9096154,7.46372571 77.4420603,6.39528236 C77.4313937,6.37128238 77.396727,6.37128238 77.3869493,6.39617125" id="Fill-49" fill="#FFF7F0"></path>
                <path d="M80.4271239,3.3033744 C79.7409024,3.16648566 79.0795698,3.72204064 79.3240139,4.42692881 C79.3329028,4.45092879 79.3071251,4.47315099 79.2849029,4.46159544 C77.926682,3.77537392 79.4413472,2.1131534 80.4537906,3.25626334 C80.4724572,3.27670776 80.4537906,3.30870773 80.4271239,3.3033744" id="Fill-51" fill="#FFF7F0"></path>
                <path d="M79.2403696,2.56035294 C78.4030371,2.99679694 78.2457039,3.68390735 78.4777037,4.31146226 C78.4865926,4.33635113 78.4599259,4.35857333 78.4368149,4.34524001 C77.4305937,3.74879617 77.9648153,2.61279733 79.2252585,2.50701966 C79.2554807,2.50524189 79.2679251,2.54613073 79.2403696,2.56035294" id="Fill-53" fill="#FFF7F0"></path>
                <path d="M73.8185085,6.62061546 C74.5340633,7.84461421 72.33851,11.3148329 75.790062,12.337943 C75.8193953,12.3468318 75.8176175,12.3886096 75.7882842,12.3948318 C74.4762856,12.6872759 72.3953988,11.5326104 73.1838424,9.01616857 C73.44162,8.19394719 73.8345084,7.51750343 73.7660641,6.63750433 C73.7633974,6.60728214 73.8033974,6.59483771 73.8185085,6.62061546" id="Fill-55" fill="#FFF7F0"></path>
                <path d="M80.2329019,5.72986082 C80.2329019,5.78141632 80.1911242,5.82408294 80.1386798,5.82408294 C80.0871243,5.82408294 80.0444577,5.78141632 80.0444577,5.72986082 C80.0444577,5.67830531 80.0871243,5.63563869 80.1386798,5.63563869 C80.1911242,5.63563869 80.2329019,5.67830531 80.2329019,5.72986082" id="Fill-57" fill="#FFF7F0"></path>
                <path d="M80.1722797,5.64337201 C80.257613,5.6887053 80.3153907,5.77848299 80.3153907,5.88248288 C80.3153907,6.03181606 80.1945019,6.15270483 80.0451688,6.15270483 C79.8949467,6.15270483 79.7740579,6.03181606 79.7740579,5.88248288 C79.7740579,5.7331497 79.8949467,5.61137205 80.0451688,5.61137205 C80.0629465,5.61137205 80.0762798,5.61314982 80.0976132,5.61670538 C80.0869465,5.61314982 80.0602799,5.60603872 80.0602799,5.60603872 C80.0451688,5.60337206 80.0291688,5.5998165 80.0122799,5.59626095 C79.8327245,5.5633721 79.7029469,5.57314986 79.5616137,5.59181651 C79.4967249,5.65314978 79.4522805,5.74292747 79.4425027,5.87003845 C79.4220583,6.14381595 79.646947,6.40426013 79.9758355,6.43448232 C80.2549463,6.46026007 80.4825017,6.29581579 80.5073905,6.02203829 C80.5136127,5.95803836 80.5073905,5.8958162 80.4896128,5.83714959 C80.4078351,5.76337189 80.3073907,5.67448309 80.1740575,5.63892757 C80.1660575,5.63626091 80.154502,5.63537202 80.138502,5.63626091 C80.1589464,5.63892757 80.1722797,5.64337201 80.1722797,5.64337201" id="Fill-59" fill="#FFF7F0"></path>
                <path d="M80.9367234,7.06479279 C81.4007229,7.20345931 81.6673893,7.46123682 81.2247231,6.97590399 C81.1189454,6.85945966 80.9962789,6.76168198 80.868279,6.64257099 C80.8345013,6.61145991 80.7873902,6.59634882 80.7411681,6.60434881 C79.8700578,6.75012644 79.5145026,6.47723783 79.2380585,6.16790481 C79.1438364,6.06212714 79.051392,5.9101273 78.9447254,5.81768295 C78.8825033,5.76434967 78.8025034,5.73057193 78.7393923,5.71190528 C78.7189479,5.70568306 78.6985035,5.72257193 78.702059,5.74390525 C78.7385034,5.94923837 78.8700589,6.33679353 79.4105027,6.66479319 C79.9785022,7.00968173 80.6265015,6.97234844 80.9367234,7.06479279" id="Fill-61" fill="#FFF7F0"></path>
                <path d="M84.5512975,5.88808288 C84.5424086,5.62497203 84.4721865,5.56274987 84.4721865,5.56274987 C84.4721865,5.56274987 84.4081865,5.57608319 84.3308533,5.59919428 C84.4019643,5.64097202 84.451742,5.73341637 84.451742,5.8418607 C84.451742,5.96808279 84.3824088,6.07386046 84.2908533,6.1005271 C84.3557421,6.2187492 84.4472976,6.37519349 84.4472976,6.37519349 C84.4472976,6.37519349 84.5601864,6.15119372 84.5512975,5.88808288" id="Fill-63" fill="#FFF7F0"></path>
                <path d="M84.2992089,5.69786085 C84.2992089,5.74497191 84.2609867,5.78319409 84.2138756,5.78319409 C84.1658757,5.78319409 84.1276535,5.74497191 84.1276535,5.69786085 C84.1276535,5.65074978 84.1658757,5.6125276 84.2138756,5.6125276 C84.2609867,5.6125276 84.2992089,5.65074978 84.2992089,5.69786085" id="Fill-65" fill="#FFF7F0"></path>
                <path d="M77.8001044,1.417243 C77.834771,1.41279856 77.8321044,1.36124305 77.7974377,1.36035417 C77.3201049,1.34435418 76.9254386,1.41102078 76.4818835,1.37902081 C75.9476618,1.34079863 75.4809956,0.935465711 75.2267737,0.803021402 C74.9734406,0.671465981 74.224108,0.102577673 73.6747753,0.289244149 C73.3103312,0.412799578 73.0525537,0.851021353 72.9201094,1.13279884 C72.9049983,1.16302103 72.946776,1.18879879 72.9681093,1.16302103 C73.1165536,0.978132334 73.3689978,0.732799252 73.692553,0.669688205 C74.0774415,0.594132727 74.4578856,0.819910274 74.6427743,0.953243471 C74.660552,0.966576791 74.6463298,0.994132318 74.6249965,0.987021214 C74.4489967,0.929243495 74.1254415,0.883910208 73.8374418,1.17013214 C73.8178862,1.18968767 73.8347751,1.22346542 73.8623306,1.21990987 C74.2027747,1.17190991 74.5876632,1.35146529 74.7654408,1.44924296 C74.7841075,1.45902073 74.7752186,1.48835404 74.7538853,1.48568737 C74.6018854,1.46613184 74.3307746,1.46968739 74.1618859,1.69368716 C74.144997,1.71502047 74.1654414,1.74524266 74.1921081,1.73813156 C74.8898851,1.54524287 75.2356626,2.07590899 75.2356626,2.07590899 C75.2356626,2.07590899 74.8152186,2.44568639 74.6507743,3.25457445 C74.6445521,3.28479665 74.684552,3.30168552 74.7023298,3.27679665 C74.9965517,2.85724153 75.2196626,2.54968629 75.6809954,2.24479771 C76.5645501,1.6607983 77.2374383,1.49457625 77.8001044,1.417243" id="Fill-67" fill="#FFF7F0"></path>
            </g>
        </g>
    </g>
</svg>