<svg xmlns="http://www.w3.org/2000/svg" width="14" height="10" viewBox="0 0 14 10"><path fill="#014032" stroke="#014032" stroke-width=".5" d="M6.11717505,8 C5.77907802,8.00043495 5.45717979,7.84916699 5.23374184,7.58485188 L0.220807669,1.64931164 C-0.108719189,1.2402368 -0.0644707441,0.631949179 0.320468276,0.279267716 C0.705407296,-0.0734137474 1.29023481,-0.0414860576 1.63767307,0.351178331 L6.02111637,5.5415826 C6.04537076,5.57040592 6.08037931,5.58693436 6.11717505,5.58693436 C6.15397078,5.58693436 6.18897933,5.57040592 6.21323372,5.5415826 L10.596677,0.351178331 C10.8167659,0.0779599009 11.1616548,-0.0496516376 11.4978859,0.0177241283 C11.8341171,0.0850998941 12.1089395,0.336892449 12.2160083,0.67566844 C12.323077,1.01444443 12.2455942,1.38705364 12.0135424,1.64931164 L7.0021411,7.58272292 C6.77832057,7.84767785 6.45598602,7.99966393 6.11717505,8 Z" transform="translate(1 1)"/></svg>