<?xml version="1.0" encoding="UTF-8"?>
<svg width="72px" height="70px" viewBox="0 0 72 70" version="1.1" xmlns="http://www.w3.org/2000/svg" xmlns:xlink="http://www.w3.org/1999/xlink">
    <title>TT Symbol@2x</title>
    <g id="Symbols" stroke="none" stroke-width="1" fill="none" fill-rule="evenodd">
        <g id="Footer" transform="translate(-30.000000, -40.000000)" fill="#FFF7F0">
            <g id="TT-Symbol" transform="translate(30.000000, 40.000000)">
                <path d="M13.2828104,6.22985656 L22.3054851,6.22985656 L22.3054851,43.494747 C22.3060832,44.5570826 23.1674364,45.4178376 24.2285757,45.419034 L26.6110547,45.419034 C27.6739885,45.4178376 28.5335472,44.5570826 28.5353416,43.494747 L28.5353416,6.22985656 L37.5562218,6.22985656 C38.6179592,6.2292584 39.4793124,5.36850338 39.4799106,4.30616778 L39.4799106,1.92428695 C39.4787143,0.862549512 38.6179592,0.00239264774 37.55682,0 L13.2828104,0 C12.221073,0.00239264774 11.360318,0.862549512 11.3591217,1.92428695 L11.3591217,4.30616778 C11.360318,5.36790521 12.221073,6.2292584 13.2828104,6.22985656" id="Fill-1"></path>
                <path d="M33.6904208,13.3245955 L33.6904208,15.7064763 C33.6922153,16.7682137 34.5523722,17.6295669 35.6141096,17.6301651 L44.6367843,17.6301651 L44.6367843,50.4255895 C44.6373824,51.4879251 45.4987356,52.3486802 46.5598749,52.3498765 L48.942952,52.3498765 C50.0052876,52.3486802 50.8648464,51.4879251 50.8666408,50.4255895 L50.8666408,17.6301651 L59.887521,17.6301651 C60.9498566,17.6295669 61.8112098,16.7688119 61.8118079,15.7064763 L61.8118079,13.3245955 C61.8100135,12.262858 60.9498566,11.402103 59.8881192,11.4003085 L35.6141096,11.4003085 C34.5523722,11.402103 33.6922153,12.262858 33.6904208,13.3245955" id="Fill-3"></path>
                <g id="Group-7" transform="translate(0.000000, 12.695058)">
                    <path d="M70.1964232,10.8437504 C69.8734158,9.79457441 68.725543,9.23648932 67.6961064,9.6187148 L65.448812,10.4525525 C64.4989308,10.8048699 63.9946803,11.8349048 64.2883778,12.8051234 C65.1305898,15.5835856 65.5558829,18.4721096 65.5558829,21.4150663 C65.5558829,38.3867149 51.2299046,52.076249 34.0351416,51.0246803 C18.1455679,50.0526672 5.75225075,36.3900504 6.23676192,20.4783447 C6.41262153,14.6923243 8.22146322,9.22033895 11.5101575,4.50263576 C12.0915709,3.66819986 11.933058,2.52929953 11.13511,1.89943502 L9.25389072,0.414198929 C8.39433202,-0.264714869 7.1328085,-0.0912479073 6.50174766,0.804200511 C2.42647039,6.59022092 0.198317176,13.3231317 0.0122888138,20.4418569 C-0.487176403,39.539373 14.2987885,55.9020928 33.3574241,57.2174509 C54.2871102,58.6614138 71.7791597,42.0420825 71.7791597,21.4150663 C71.7791597,17.8027664 71.2473938,14.2556661 70.1964232,10.8437504" id="Fill-5"></path>
                </g>
            </g>
        </g>
    </g>
</svg>