<?xml version="1.0" encoding="utf-8"?>
<!-- Generator: Adobe Illustrator 26.3.1, SVG Export Plug-In . SVG Version: 6.00 Build 0)  -->
<svg version="1.1" id="Layer_1" xmlns="http://www.w3.org/2000/svg" xmlns:xlink="http://www.w3.org/1999/xlink" x="0px" y="0px"
	 viewBox="0 0 14 10" style="enable-background:new 0 0 14 10;" xml:space="preserve">
<style type="text/css">
	.st0{fill:#014032;stroke:#014032;stroke-width:0.5;}
</style>
<path class="st0" d="M7,1C6.6,1,6.3,1.2,6.1,1.4l-5,5.9c-0.3,0.4-0.3,1,0.1,1.4s1,0.3,1.3-0.1l4.4-5.2c0,0,0.1,0,0.1,0s0.1,0,0.1,0
	l4.4,5.2C11.7,8.9,12,9,12.4,9c0.3-0.1,0.6-0.3,0.7-0.7c0.1-0.3,0-0.7-0.2-1l-5-5.9C7.6,1.2,7.3,1,7,1z"/>
</svg>
